SplineFontDB: 3.2
FontName: ZameroSans-Light
FullName: Zamero Sans Light
FamilyName: Zamero Sans
Weight: Light
Copyright: Copyright (c) 2024, Zamero Type Foundry
UComments: "2024-1-17: Created with FontForge (http://fontforge.org)+AAoACgAK-Instead of Charlie and the Alphabet and Charlie and the Numbers, how about Charlie and the Fonts? :)"
Version: 001.000
ItalicAngle: 0
UnderlinePosition: -100
UnderlineWidth: 50
Ascent: 800
Descent: 200
InvalidEm: 0
LayerCount: 2
Layer: 0 0 "Back" 1
Layer: 1 0 "Fore" 0
XUID: [1021 474 1118879153 20760]
StyleMap: 0x0000
FSType: 0
OS2Version: 0
OS2_WeightWidthSlopeOnly: 0
OS2_UseTypoMetrics: 1
CreationTime: 1705525712
ModificationTime: 1727736258
PfmFamily: 33
TTFWeight: 300
TTFWidth: 5
LineGap: 90
VLineGap: 90
OS2TypoAscent: 0
OS2TypoAOffset: 1
OS2TypoDescent: 0
OS2TypoDOffset: 1
OS2TypoLinegap: 90
OS2WinAscent: 0
OS2WinAOffset: 1
OS2WinDescent: 0
OS2WinDOffset: 1
HheadAscent: 0
HheadAOffset: 1
HheadDescent: 0
HheadDOffset: 1
OS2Vendor: 'ZAM '
Lookup: 1 0 0 "'ss15' Style Set 15 lookup 20" { "'ss15' Style Set 15 lookup 20-1" ("ss15") } ['ss15' ('DFLT' <'dflt' > 'grek' <'dflt' > 'latn' <'dflt' > ) ]
Lookup: 1 0 0 "'ss14' Style Set 14 lookup 19" { "'ss14' Style Set 14 lookup 19-1" ("ss14") } ['ss14' ('DFLT' <'dflt' > 'grek' <'dflt' > 'latn' <'dflt' > ) ]
Lookup: 1 0 0 "'onum' Oldstyle Figures lookup 18" { "'onum' Oldstyle Figures lookup 18-1" ("osf") } ['onum' ('DFLT' <'dflt' > 'grek' <'dflt' > 'latn' <'dflt' > ) ]
Lookup: 1 0 0 "'tnum' Tabular Numbers lookup 17" { "'tnum' Tabular Numbers lookup 17-1" ("tf") } ['tnum' ('DFLT' <'dflt' > 'grek' <'dflt' > 'latn' <'dflt' > ) ]
Lookup: 1 0 0 "'dnom' Denominators lookup 0" { "'dnom' Denominators lookup 0 subtable" ("dnom") } ['dnom' ('DFLT' <'dflt' > 'latn' <'dflt' > ) ]
Lookup: 1 0 0 "'numr' Numerators lookup 0" { "'numr' Numerators lookup 0 subtable" ("numr") } ['numr' ('DFLT' <'dflt' > 'latn' <'dflt' > ) ]

StartChar: I
Encoding: 73 73 0
Width: 434
Flags: W
HStem: 0 84<44 168.5 265.5 390> 30 54<168.5 265.5> 646 85<44 168.5 265.5 390> 646 55<168.5 265.5>
VStem: 168.5 97<30 701>
LayerCount: 2
Fore
SplineSet
390 0 m 1x88
 44 0 l 1
 44 84 l 1
 390 84 l 1
 390 0 l 1x88
390 646 m 1x28
 44 646 l 1
 44 731 l 1
 390 731 l 1
 390 646 l 1x28
168.5 30 m 1x58
 168.5 701 l 1
 265.5 701 l 1
 265.5 30 l 1
 168.5 30 l 1x58
EndSplineSet
EndChar

StartChar: O
Encoding: 79 79 1
Width: 797
Flags: W
HStem: -9.99805 89.8619<286.441 511.336> 649.259 89.8619<286.441 511.336>
VStem: 49 97.8486<228.433 500.69> 650.929 97.8486<228.433 500.69>
LayerCount: 2
Back
SplineSet
104.848632812 364.561523438 m 0
 104.848632812 169.015917071 203.263968617 38.4638671875 398.888671875 38.4638671875 c 4
 594.513375133 38.4638671875 692.928710938 169.015917071 692.928710938 364.561523438 c 0
 692.928710938 560.107129798 594.513375133 690.659179688 398.888671875 690.659179688 c 0
 203.263968617 690.659179688 104.848632812 560.107129798 104.848632812 364.561523438 c 0
55 364.561523438 m 0
 55 591.206054688 185.120861123 739.12109375 398.888671875 739.12109375 c 0
 612.656482627 739.12109375 742.77734375 591.206054688 742.77734375 364.561523438 c 0
 742.77734375 137.916992188 612.656482627 -9.998046875 398.888671875 -9.998046875 c 0
 185.120861123 -9.998046875 55 137.916992188 55 364.561523438 c 0
EndSplineSet
Fore
SplineSet
146.848632812 364.561523438 m 0
 146.848632812 193.841572664 227.133151104 79.8638671878 398.888671875 79.8638671878 c 0
 570.644192646 79.8638671878 650.928710938 193.841572664 650.928710938 364.561523438 c 0
 650.928710938 535.281474207 570.644192646 649.259179688 398.888671875 649.259179688 c 0
 227.133151104 649.259179688 146.848632812 535.281474207 146.848632812 364.561523438 c 0
49 364.561523438 m 0
 49 591.206054688 181.391145754 739.12109375 398.888671875 739.12109375 c 0
 616.386197996 739.12109375 748.77734375 591.206054688 748.77734375 364.561523438 c 0
 748.77734375 137.916992188 616.386197996 -9.998046875 398.888671875 -9.998046875 c 0
 181.391145754 -9.998046875 49 137.916992188 49 364.561523438 c 0
EndSplineSet
EndChar

StartChar: H
Encoding: 72 72 2
Width: 719
Flags: W
HStem: 0 21G<69 166 553 650> 317 82<114 590> 711.008 20G<69 166 553 650>
VStem: 69 97<0 317 399 731.008> 114 52<317 399> 553 97<0 317 399 731.008> 553 37<317 399>
LayerCount: 2
Fore
SplineSet
590 317 m 1xea
 114 317 l 1
 114 399 l 1
 590 399 l 1
 590 317 l 1xea
553 0 m 1xe4
 553 731.0078125 l 1
 650 731.0078125 l 1
 650 0 l 1
 553 0 l 1xe4
69 0 m 1xf0
 69 731.0078125 l 1
 166 731.0078125 l 1
 166 0 l 1
 69 0 l 1xf0
EndSplineSet
EndChar

StartChar: V
Encoding: 86 86 4
Width: 699
Flags: W
HStem: 0 21G<288.227 420.5> 711.008 20G<19 127.569 571.691 680>
LayerCount: 2
Fore
SplineSet
295.8 0 m 1
 19 731.0078125 l 1
 120.2 731.0078125 l 1
 353.606445312 97.4943359378 l 1
 578.8 731.0078125 l 1
 680 731.0078125 l 1
 413.2 0 l 1
 295.8 0 l 1
EndSplineSet
EndChar

StartChar: D
Encoding: 68 68 5
Width: 727
Flags: W
HStem: 0 86.9516<166 428.136> 644.049 86.9584<166 423.782>
VStem: 69 97<86.9516 644.049> 580.929 97.8486<233.695 495.554>
LayerCount: 2
Fore
SplineSet
69 0 m 1
 69 731.0078125 l 1
 308.888671875 731.0078125 l 2
 503.505031086 731.0078125 678.77734375 631.206054688 678.77734375 364.561523438 c 0
 678.77734375 97.9169921873 502.365959911 -2.36954448424e-14 308.888671875 0 c 2
 69 0 l 1
166 644.049414062 m 1
 166 644.049414062 166 86.9515625 166 86.9515625 c 1
 166 86.9515625 283.888671875 87.0619140622 283.888671875 87.0619140622 c 2
 453.943933795 87.2278741716 580.928710938 144.960150687 580.928710938 364.561523438 c 0
 580.928710938 583.709125146 453.943941378 643.790348286 283.888671875 643.945898438 c 2
 166 644.049414062 l 1
EndSplineSet
EndChar

StartChar: U
Encoding: 85 85 6
Width: 719
Flags: W
HStem: -9.99805 90.2619<250.82 464.958> 711.008 20G<69 166 549.777 646.777>
VStem: 69 97<168.919 731.008> 549.777 97<168.919 731.008>
LayerCount: 2
Fore
SplineSet
357.888671875 -9.998046875 m 0
 142.14381223 -9.998046875 69 105.534871519 69 282.561523438 c 2
 69 731.0078125 l 1
 166 731.0078125 l 1
 166 304.561523438 l 2
 166 170.060645075 196.456737061 80.2638671878 357.888671875 80.2638671878 c 0
 519.320606689 80.2638671878 549.77734375 170.060645075 549.77734375 304.561523438 c 2
 549.77734375 731.0078125 l 1
 646.77734375 731.0078125 l 1
 646.77734375 282.561523438 l 2
 646.77734375 105.534871519 573.63353152 -9.998046875 357.888671875 -9.998046875 c 0
EndSplineSet
EndChar

StartChar: L
Encoding: 76 76 7
Width: 568
Flags: W
HStem: 0 85<166 544> 711.008 20G<69 166>
VStem: 69 97<85 731.008>
LayerCount: 2
Fore
SplineSet
166 85 m 1
 544 85 l 1
 544 0 l 1
 69 0 l 1
 69 731.0078125 l 1
 166 731.0078125 l 1
 166 85 l 1
EndSplineSet
EndChar

StartChar: F
Encoding: 70 70 8
Width: 574
Flags: W
HStem: 0 21G<69 166> 301 87<114 466> 646.008 85<166 526>
VStem: 69 97<0 301 388 646.008> 114 52<301 388>
LayerCount: 2
Fore
SplineSet
466 301 m 1xe8
 114 301 l 1
 114 388 l 1
 466 388 l 1
 466 301 l 1xe8
166 646.0078125 m 1xf0
 166 0 l 1
 69 0 l 1
 69 731.0078125 l 1
 526 731.0078125 l 1
 526 646.0078125 l 1
 166 646.0078125 l 1xf0
EndSplineSet
EndChar

StartChar: C
Encoding: 67 67 9
Width: 667
Flags: W
HStem: -9.99805 88.2619<297.306 552.177> 650.859 88.2619<297.643 534.402>
VStem: 49 100.849<233.242 491.062>
LayerCount: 2
Fore
SplineSet
49 360.561523438 m 0
 49 589.626439045 178.266294216 739.12109375 405.888671875 739.12109375 c 0
 564.736324229 739.12109375 635.681640625 672.891601562 635.681640625 672.891601562 c 1
 598.95546875 592.138671875 l 1
 598.95546875 592.138671875 535.810123544 650.859179688 419.888671875 650.859179688 c 0
 230.724045876 650.859179688 149.848632812 534.639533901 149.848632812 360.561523438 c 0
 149.848632812 191.280741105 233.12606926 78.2638671878 415.888671875 78.2638671878 c 0
 542.277767888 78.2638671878 609.218554688 125.995703125 609.218554688 125.995703125 c 1
 609.218554688 125.995703125 638.827148438 44.595703125 638.827148438 44.595703125 c 1
 638.827148438 44.595703125 567.674290982 -9.998046875 405.888671875 -9.998046875 c 0
 178.266294216 -9.998046875 49 136.337376545 49 360.561523438 c 0
EndSplineSet
Substitution2: "'ss12' Style Set 12 lookup 13-1" C.ss12
EndChar

StartChar: E
Encoding: 69 69 10
Width: 579
Flags: W
HStem: 0 85<166 535> 323 88<118 475> 646.008 85<166 535>
VStem: 118 48<323 411>
LayerCount: 2
Fore
SplineSet
475 323 m 1
 118 323 l 1
 118 411 l 1
 475 411 l 1
 475 323 l 1
166 646.0078125 m 1
 166 85 l 1
 535 85 l 1
 535 0 l 1
 69 0 l 1
 69 731.0078125 l 1
 535 731.0078125 l 1
 535 646.0078125 l 1
 166 646.0078125 l 1
EndSplineSet
EndChar

StartChar: N
Encoding: 78 78 11
Width: 719
Flags: W
HStem: 0 21G<69 164.8 534.771 650> 711.008 20G<69 184.434 554.2 650>
VStem: 69 95.8<0 571.005> 554.2 95.8<168.6 731.008>
LayerCount: 2
Fore
SplineSet
69 0 m 1
 69 731.0078125 l 1
 170.8 731.0078125 l 1
 554.2 168.599609375 l 1
 554.2 731.0078125 l 1
 650 731.0078125 l 1
 650 0 l 1
 548.2 0 l 1
 164.8 571.004882812 l 1
 164.8 0 l 1
 69 0 l 1
EndSplineSet
EndChar

StartChar: M
Encoding: 77 77 12
Width: 830
Flags: W
HStem: 0 21G<69 166 664 761> 711.008 20G<69 196.533 633.467 761>
VStem: 69 97<0 579.005> 664 97<0 579.005>
LayerCount: 2
Fore
SplineSet
69 0 m 1
 69 731.0078125 l 1
 186 731.0078125 l 1
 415 296.199609375 l 1
 644 731.0078125 l 1
 761 731.0078125 l 1
 761 0 l 1
 664 0 l 1
 664 579.004882812 l 1
 453 180 l 1
 377 180 l 1
 166 579.004882812 l 1
 166 0 l 1
 69 0 l 1
EndSplineSet
EndChar

StartChar: G
Encoding: 71 71 13
Width: 789
Flags: W
HStem: -9.99805 88.2619<292.316 514.007> 313 82<410 572.019 663.427 750> 313 23.5957<572.019 663.427> 650.859 88.2619<299.64 537.322>
VStem: 49 100.449<228.052 493.471> 594.081 91.401<151.097 312.224>
LayerCount: 2
Fore
SplineSet
750 313 m 1xdc
 410 313 l 1
 410 395 l 1
 750 395 l 1
 750 313 l 1xdc
49 364.561523438 m 0
 49 591.206054688 185.174953474 739.12109375 408.888671875 739.12109375 c 0
 580.240378288 739.12109375 650.681640625 663.891601562 650.681640625 663.891601562 c 1
 611.35546875 586.338671875 l 1
 611.35546875 586.338671875 546.793241808 650.859179688 415.888671875 650.859179688 c 0
 234.510374719 650.859179688 149.448632812 536.240919834 149.448632812 364.561523438 c 0
 149.448632812 192.882127038 228.267530409 78.2638671878 406.888671875 78.2638671878 c 0
 536.330409144 78.2638671878 594.081445312 140.135330378 594.081445312 233 c 0
 594.081445312 301.455145586 572.018554688 336.595703125 572.018554688 336.595703125 c 1
 663.427148438 336.595703125 l 1xbc
 663.427148438 336.595703125 685.482421875 305.754522021 685.482421875 222 c 0
 685.482421875 93.0859042083 593.568308072 -9.998046875 399.888671875 -9.998046875 c 0
 176.389963006 -9.998046875 49 137.916992188 49 364.561523438 c 0
EndSplineSet
Substitution2: "'ss12' Style Set 12 lookup 13-1" G.ss12
Substitution2: "'ss08' Style Set 8 lookup 9-1" G.ss08
EndChar

StartChar: A
Encoding: 65 65 14
Width: 719
Flags: W
HStem: 0 21G<19 128.195 590.54 700> 167 85.8<150 568> 711.008 20G<297.175 412.098>
LayerCount: 2
Fore
SplineSet
568 167 m 1
 150 167 l 1
 150 252.8 l 1
 568 252.8 l 1
 568 167 l 1
404 731.0078125 m 1
 700 0 l 1
 598.4 0 l 1
 355.393554688 618.313476562 l 1
 120.6 0 l 1
 19 0 l 1
 305 731.0078125 l 1
 404 731.0078125 l 1
EndSplineSet
EndChar

StartChar: P
Encoding: 80 80 15
Width: 665
Flags: W
HStem: 0 21G<69 166> 240 81.3516<130 439.21> 645.649 85.3584<166 439.569>
VStem: 69 97<0 240 321.352 645.649> 130 36<240 321.352> 523.929 97.8486<393.154 573.15>
LayerCount: 2
Fore
SplineSet
130 240 m 1xec
 130 321.3515625 l 1xec
 316.888671875 321.461914062 l 2
 435.418880038 321.639435314 523.928710938 354.429833861 523.928710938 482.561523438 c 0
 523.928710938 611.072548426 435.418893159 645.379530746 316.888671875 645.545898438 c 2
 166 645.649414062 l 1
 166 0 l 1
 69 0 l 1
 69 731.0078125 l 1xf4
 338.888671875 731.0078125 l 2
 487.730114094 731.0078125 621.77734375 663.343390426 621.77734375 482.561523438 c 0
 621.77734375 305.149208758 486.858959186 240 338.888671875 240 c 2
 130 240 l 1xec
EndSplineSet
EndChar

StartChar: R
Encoding: 82 82 16
Width: 660
Flags: W
HStem: 0 21G<69 166 538.883 646> 284 86.9516<130 432.221> 645.049 85.9584<166 440.209>
VStem: 69 97<0 284 370.952 645.049> 130 36<284 370.952> 508.929 97.8486<427.853 585.272>
LayerCount: 2
Back
SplineSet
124 383.3515625 m 1xec
 300.888671875 383.461914062 l 2
 383.403259307 383.509014034 462.928710938 404.697396723 462.928710938 501.561523438 c 0
 462.928710938 596.672668425 383.403268044 618.487535435 300.888671875 618.545898438 c 2
 184 618.649414062 l 1
 184 0 l 1
 55 0 l 1
 55 731.0078125 l 1xf4
 308.888671875 731.0078125 l 2
 457.204101562 731.0078125 590.77734375 670.696715458 590.77734375 509.561523438 c 4
 590.77734375 364.195131811 466.688476562 330.276367188 466.688476562 330.276367188 c 1
 466.688476562 330.276367188 540.174524344 311.767586577 573.702148438 195.399414062 c 2
 630 0 l 1
 492 0 l 1
 447 165 l 2
 420.732434887 256.417062766 391.813913829 266 270 266 c 2
 124 266 l 1
 124 383.3515625 l 1xec
EndSplineSet
Fore
SplineSet
130 370.9515625 m 1xec
 322.888671875 371.061914062 l 2
 429.396314386 371.127326324 508.928710938 398.446279599 508.928710938 505.561523438 c 0
 508.928710938 616.484413778 429.396320131 644.867111076 322.888671875 644.945898438 c 2
 166 645.049414062 l 1
 166 0 l 1
 69 0 l 1
 69 731.0078125 l 1xf4
 338.888671875 731.0078125 l 2
 479.838016214 731.0078125 606.77734375 670.533304916 606.77734375 508.961523438 c 0
 606.77734375 363.813190949 478.688476562 329.276367188 478.688476562 329.276367188 c 1
 478.688476562 329.276367188 544.921886104 315.923159228 581.056054688 204.9625 c 2
 646 0 l 1
 545 0 l 1
 500.380859375 145.886328125 l 2
 464.836520831 255.883459596 443.82888347 284 319 284 c 2
 130 284 l 1
 130 370.9515625 l 1xec
EndSplineSet
Substitution2: "'ss01' Style Set 1 lookup 2-1" R.ss01
EndChar

StartChar: T
Encoding: 84 84 17
Width: 614
Flags: W
HStem: 0 21G<258.5 355.5> 646 85<40 258.5 355.5 574> 646 55<258.5 355.5>
VStem: 258.5 97<0 701>
LayerCount: 2
Fore
SplineSet
574 646 m 1xd0
 40 646 l 1
 40 731 l 1
 574 731 l 1
 574 646 l 1xd0
258.5 0 m 1
 258.5 701 l 1
 355.5 701 l 1xb0
 355.5 0 l 1
 258.5 0 l 1
EndSplineSet
EndChar

StartChar: Q
Encoding: 81 81 18
Width: 866
Flags: W
HStem: -9.99805 93.8619<287.961 517.638> 649.259 89.8619<289.554 518.546>
VStem: 49 97.8486<233.847 496.228> 660.929 99.8486<239.622 496.673>
LayerCount: 2
Fore
SplineSet
49 364.561523438 m 0
 49 591.206054687 183.283049614 739.12109375 403.888671875 739.12109375 c 0
 625.737532592 739.12109375 760.77734375 589.104132899 760.77734375 384.561523438 c 0
 760.77734375 157.922592272 630.738476562 85.1986328122 630.738476562 85.1986328122 c 1
 714.13940998 86.742522969 817.888671875 104.001953125 817.888671875 104.001953125 c 1
 827.888671875 19.001953125 l 1
 827.888671875 19.001953125 720.635082809 -9.998046875 444 -9.998046875 c 0
 170.539585056 -9.998046875 49 137.916992188 49 364.561523438 c 0
146.848632812 364.561523438 m 0
 146.848632812 196.240186731 228.869633635 83.8638671878 403.888671875 83.8638671878 c 0
 578.907710115 83.8638671878 660.928710938 196.240186731 660.928710938 364.561523438 c 0
 660.928710938 535.281474207 578.907710115 649.259179688 403.888671875 649.259179688 c 0
 228.869633635 649.259179688 146.848632812 535.281474207 146.848632812 364.561523438 c 0
EndSplineSet
Substitution2: "'ss10' Style Set 10 lookup 11-1" Q.ss10
Substitution2: "'ss09' Style Set 9 lookup 10-1" Q.ss09
EndChar

StartChar: B
Encoding: 66 66 19
Width: 640
Flags: W
HStem: 0 84.66<161 449.192> 326.656 77.6953<130 419.102> 646.449 84.5584<161 415.724>
VStem: 130 31<326.656 404.352> 479.929 92.8486<455.252 592.263> 502.929 92.8486<134.194 275.065>
LayerCount: 2
Fore
SplineSet
467.062109375 373.2375 m 1xf8
 467.062109375 373.2375 595.77734375 343.454958404 595.77734375 202.446289062 c 0xf4
 595.77734375 55.1363081418 471.197709119 -1.60915359842e-14 331.888671875 0 c 2
 69 0 l 1
 69 731.0078125 l 1
 310.888671875 731.0078125 l 2
 448.6809962 731.0078125 572.77734375 675.762564237 572.77734375 528.161523438 c 0
 572.77734375 402.743624439 467.062109375 373.2375 467.062109375 373.2375 c 1xf8
161 84.6599609378 m 1
 161 84.6599609378 328.888671875 84.6619140622 328.888671875 84.6619140622 c 2
 428.419007771 84.6630501333 502.928710938 107.245088281 502.928710938 205.446289062 c 0xf4
 502.928710938 304.770527375 419.976259682 326.436994192 308.888671875 326.545898438 c 2
 130 326.65625 l 1
 130 404.3515625 l 1
 286.888671875 404.461914062 l 2
 397.403504328 404.60744847 479.928710938 425.98554592 479.928710938 524.161523438 c 0xf8
 479.928710938 623.500964831 397.403958776 646.27080112 286.888671875 646.345898438 c 2
 161 646.449414062 l 1
 161 84.6599609378 l 1
EndSplineSet
EndChar

StartChar: J
Encoding: 74 74 20
Width: 432
Flags: W
HStem: -10 83.4<20.8097 214.139> 646.008 85<54 256>
VStem: 14 13.6<50.8353 53.1647> 256 97<119.509 646.008>
LayerCount: 2
Fore
SplineSet
132 73.4 m 0
 219.302539063 73.4 256 114.832254802 256 212 c 2
 256 646.0078125 l 1
 54 646.0078125 l 1
 54 731.0078125 l 1
 353 731.0078125 l 1
 353 201 l 2
 353 74.4647758463 294.672413793 -10 154 -10 c 0
 71.2409727516 -10 14 12.4 14 12.4 c 1
 14 12.4 27.6 91.6 27.6 91.6 c 1
 27.6 91.6 71.1055551382 73.4 132 73.4 c 0
EndSplineSet
EndChar

StartChar: K
Encoding: 75 75 21
Width: 669
Flags: W
HStem: 0 21G<69 166 498.039 647> 319 74<96 271.6> 711.008 20G<69 166 495.401 637>
VStem: 69 97<0 319 393 731.008> 96 70<319 393> 196.6 75<328.2 386.2>
LayerCount: 2
Fore
SplineSet
96 393 m 1xec
 271.6 393 l 1
 271.6 319 l 1
 96 319 l 1
 96 393 l 1xec
517.6 0 m 1
 196.6 328.2 l 1
 196.6 386.2 l 1
 513.8 731.0078125 l 1
 637 731.0078125 l 1
 293.4 366.8 l 1
 647 0 l 1
 517.6 0 l 1
69 0 m 1xf4
 69 731.0078125 l 1
 166 731.0078125 l 1
 166 0 l 1
 69 0 l 1xf4
EndSplineSet
EndChar

StartChar: S
Encoding: 83 83 22
Width: 591
Flags: W
HStem: -10 86.4619<142.492 388.84> 651.659 87.4619<217.315 446.074>
VStem: 63.627 97.3115<473.191 602.543> 447.738 94.7816<127.355 259.503>
LayerCount: 2
Fore
SplineSet
283.3828125 323.740625 m 0
 115.060529757 367.610487369 63.626953125 429.084986946 63.626953125 529.8 c 0
 63.626953125 657.129053554 160.343517213 739.12109375 319.233398438 739.12109375 c 0
 454.810626032 739.12109375 520.745117188 688.891601562 520.745117188 688.891601562 c 1
 487.97109375 609.138671875 l 1
 487.97109375 609.138671875 427.234421032 651.659179688 331.96328125 651.659179688 c 0
 213.990141307 651.659179688 160.938476562 611.678503621 160.938476562 536.2 c 0
 160.938476562 474.711956166 194.724309991 441.161465646 321.997070312 408.481054688 c 0
 483.405324397 366.665088993 542.51953125 304.320796378 542.51953125 200 c 0
 542.51953125 70.5799989442 452.446447392 -10 283.8046875 -10 c 0
 141.205292897 -10 50.81640625 42.2294921875 50.81640625 42.2294921875 c 1
 79.97265625 124.982421875 l 1
 79.97265625 124.982421875 164.040056841 76.4619140622 271.896289062 76.4619140622 c 0
 387.77266836 76.4619140622 447.737890625 116.309069849 447.737890625 193.6 c 0
 447.737890625 259.602256309 420.776510841 288.064802269 283.3828125 323.740625 c 0
EndSplineSet
EndChar

StartChar: W
Encoding: 87 87 23
Width: 949
Flags: W
HStem: 0 21G<204.774 326.634 614.826 740.724> 711.008 20G<19 114.2 823.071 930>
LayerCount: 2
Fore
SplineSet
210 0 m 1
 19 731.0078125 l 1
 19 731.0078125 114.2 731.0078125 114.2 731.0078125 c 1
 114.2 731.0078125 269.006445312 116.694335938 269.006445312 116.694335938 c 1
 417.2 671.0078125 l 1
 525.8 671.0078125 l 1
 676.606445312 116.694335938 l 1
 828 731.0078125 l 1
 930 731.0078125 l 1
 735.4 0 l 1
 620.4 0 l 1
 471.5 534.271484375 l 1
 321 0 l 1
 210 0 l 1
EndSplineSet
EndChar

StartChar: X
Encoding: 88 88 24
Width: 689
Flags: W
HStem: 0 21G<25.2 157.267 531.733 663.8> 711.008 20G<35.2 163.394 525.606 653.8>
VStem: 330.4 28.2<319 401>
LayerCount: 2
Fore
SplineSet
143.8 0 m 1
 143.8 0 25.2 0 25.2 0 c 1
 25.2 0 278.8 370.4 278.8 370.4 c 1
 35.2 731.0078125 l 1
 150.8 731.0078125 l 1
 358.6 401 l 1
 358.6 319 l 1
 143.8 0 l 1
545.2 0 m 1
 330.4 319 l 1
 330.4 401 l 1
 538.2 731.0078125 l 1
 653.8 731.0078125 l 1
 410.2 370.4 l 1
 663.8 0 l 1
 545.2 0 l 1
EndSplineSet
EndChar

StartChar: Y
Encoding: 89 89 25
Width: 689
Flags: W
HStem: 0 21G<296 393> 282 51<302 387> 711.008 20G<34 151.805 537.195 655>
VStem: 296 97<0 333>
LayerCount: 2
Fore
SplineSet
302 282 m 1
 34 731.0078125 l 1
 140.2 731.0078125 l 1
 344.5 378.916015625 l 1
 548.8 731.0078125 l 1
 655 731.0078125 l 1
 387 282 l 1
 302 282 l 1
296 0 m 1
 296 333 l 1
 393 333 l 1
 393 0 l 1
 296 0 l 1
EndSplineSet
EndChar

StartChar: Z
Encoding: 90 90 26
Width: 594
Flags: W
HStem: 0 85<164 554> 646 85<50 430>
LayerCount: 2
Fore
SplineSet
554 0 m 1
 40 0 l 1
 40 70 l 1
 430 646 l 1
 50 646 l 1
 50 731 l 1
 544 731 l 1
 544 651 l 1
 164 85 l 1
 554 85 l 1
 554 0 l 1
EndSplineSet
EndChar

StartChar: ampersand
Encoding: 38 38 27
Width: 754
Flags: W
HStem: -10 81.4928<192.459 368.143 549.471 730.312> 661.562 77.4305<317.037 491.294>
VStem: 49 90.0369<121.064 260.365> 175.551 91.376<414.133 607.601>
LayerCount: 2
Fore
SplineSet
269.267578125 418.821289062 m 1
 293.741796875 356.713867188 l 0
 293.741796875 356.713867188 139.036914062 304.565675393 139.036914062 189.2 c 0
 139.036914062 114.050401644 194.698956515 71.4927734375 280.940234375 71.4927734375 c 0
 386.059425933 71.4927734375 522.878255899 160.006928713 590.85 443.605078125 c 1
 677.538085938 419.8046875 l 1
 587.104290931 106.417214756 435.700489799 -10 265.928710938 -10 c 0
 128.603220199 -10 49 67.6844167703 49 180.185546875 c 0
 49 354.893838692 269.267578125 418.821289062 269.267578125 418.821289062 c 1
738.451171875 4.5546875 m 1
 738.451171875 4.5546875 710.709814015 -10 636 -10 c 0
 500.707513665 -10 411.704638595 69.4286695787 337 160 c 0
 232.620436393 286.510874833 175.55078125 417.618845605 175.55078125 523.2 c 0
 175.55078125 664.32112696 257.356743005 738.9921875 393.022460938 738.9921875 c 0
 476.316249137 738.9921875 527.200390625 704.449414062 527.200390625 704.449414062 c 1
 505.3703125 632.648632812 l 1
 505.3703125 632.648632812 457.417597418 661.56171875 400 661.56171875 c 0
 312.389676042 661.56171875 266.926757812 613.279162478 266.926757812 522.2 c 0
 266.926757812 438.888462042 313.377088906 334.100138959 394.9375 232 c 0
 456.426836724 155.06640512 528.412776075 72.3046875 641.51171875 72.3046875 c 0
 696.794334813 72.3046875 728.42890625 81.9546875 728.42890625 81.9546875 c 1
 738.451171875 4.5546875 l 1
EndSplineSet
EndChar

StartChar: i
Encoding: 105 105 28
Width: 269
Flags: W
HStem: 0 21G<89.8 179.2> 481.011 20G<89.8 179.2> 595.551 122.449<86.6794 182.32>
VStem: 73.8867 121.227<607.597 705.953> 89.8 89.4<0 501.011>
LayerCount: 2
Fore
SplineSet
89.8 0 m 1xe8
 89.8 0 89.8 501.010742188 89.8 501.010742188 c 1
 89.8 501.010742188 179.2 501.010742188 179.2 501.010742188 c 1
 179.2 0 l 1
 179.2 0 89.8 0 89.8 0 c 1xe8
73.88671875 656.775390625 m 0xf0
 73.88671875 693.86624886 97.7785436737 718 134.499023438 718 c 0
 171.220545073 718 195.11328125 693.86624886 195.11328125 656.775390625 c 0
 195.11328125 619.683862287 171.220545073 595.55078125 134.499023438 595.55078125 c 0
 97.7785436737 595.55078125 73.88671875 619.683862287 73.88671875 656.775390625 c 0xf0
EndSplineSet
EndChar

StartChar: o
Encoding: 111 111 29
Width: 589
Flags: W
HStem: -9.99805 78.0619<209.49 379.178> 432.684 78.2494<207.839 380.898>
VStem: 49 87.2486<148.585 355.487> 453.529 87.2486<150.438 353.698>
LayerCount: 2
Fore
SplineSet
136.248632812 253.561523438 m 0
 136.248632812 142.327201524 187.545541115 68.0638671875 293.888671875 68.0638671875 c 0
 401.633700405 68.0638671875 453.528710938 142.327201524 453.528710938 253.561523438 c 0
 453.528710938 360.973054181 401.666993693 432.684179688 294 432.684179688 c 0
 187.578833423 432.684179688 136.248632812 360.973054181 136.248632812 253.561523438 c 0
49 253.561523438 m 0
 49 409.296356709 141.661164701 510.93359375 293.888671875 510.93359375 c 0
 447.359417505 510.93359375 540.77734375 409.296356709 540.77734375 253.561523438 c 0
 540.77734375 94.0826581123 447.359417505 -9.998046875 293.888671875 -9.998046875 c 0
 141.661164701 -9.998046875 49 94.0826581123 49 253.561523438 c 0
EndSplineSet
EndChar

StartChar: n
Encoding: 110 110 30
Width: 595
Flags: W
HStem: 0 21G<69.8 159.2 440.577 529.977> 435.284 75.6494<228.979 389.143> 481.011 20G<69.8 159.2>
VStem: 69.8 89.4<0 501.011> 440.577 89.4<0 380.899>
LayerCount: 2
Fore
SplineSet
159.2 284 m 1xd8
 159.2 284 112.2 293.561523438 112.2 293.561523438 c 1
 136.530813866 444 202.56491851 510.93359375 338 510.93359375 c 0
 464.779374443 510.93359375 529.97734375 441.493288275 529.97734375 296.561523438 c 2
 529.97734375 0 l 1
 440.57734375 0 l 1
 440.57734375 279.561523438 l 2
 440.57734375 386.206648615 400.753815739 435.284179688 307 435.284179688 c 0
 211.893043458 435.284179688 159.2 374.718090373 159.2 284 c 1xd8
69.8 0 m 1
 69.8 501.010742188 l 1
 159.2 501.010742188 l 1xb8
 159.2 0 l 1
 69.8 0 l 1
EndSplineSet
EndChar

StartChar: m
Encoding: 109 109 31
Width: 882
Flags: W
HStem: 0 21G<69.8 159.2 396.577 485.977 727.355 816.755> 435.284 75.6494<213.221 356.016 539.485 687.882> 481.011 20G<69.8 159.2>
VStem: 69.8 89.4<0 501.011> 396.577 89.4<0 388.804> 727.355 89.4<0 391.818>
LayerCount: 2
Fore
SplineSet
485.97734375 284 m 1xdc
 425.77734375 301.561523438 l 1
 449.267677775 446.463374201 508.96839543 510.93359375 643.77734375 510.93359375 c 0
 754.009361993 510.93359375 816.7546875 447.323924219 816.7546875 314.561523438 c 2
 816.7546875 0 l 1
 727.3546875 0 l 1
 727.3546875 297.561523438 l 2
 727.3546875 388.804247089 694.686300065 435.284179688 617.77734375 435.284179688 c 0
 525.450673256 435.284179688 485.97734375 374.718090371 485.97734375 284 c 1xdc
159.2 284 m 1
 100.2 293.561523438 l 1
 122.914506479 444 180.775567404 510.93359375 311 510.93359375 c 0
 422.59754098 510.93359375 485.97734375 447.323924219 485.97734375 314.561523438 c 2
 485.97734375 0 l 1
 396.57734375 0 l 1
 396.57734375 297.561523438 l 2
 396.57734375 388.804247089 363.3126946 435.284179688 285 435.284179688 c 0
 200.876364581 435.284179688 159.2 374.718090373 159.2 284 c 1
69.8 0 m 1
 69.8 501.010742188 l 1
 159.2 501.010742188 l 1xbc
 159.2 0 l 1
 69.8 0 l 1
EndSplineSet
EndChar

StartChar: p
Encoding: 112 112 32
Width: 602
Flags: W
HStem: -9.99805 77.4619<228.299 397.915> 434.284 76.6494<231.104 399.166> 481.011 20G<69.8 159.2>
VStem: 69.8 89.4<-180 501.011> 111.351 47.8486<66.4394 183.562> 120.351 38.8486<283.562 425.747> 468.08 86.8486<143.548 360.691>
LayerCount: 2
Fore
SplineSet
69.8 -180 m 1xb2
 69.8 501.010742188 l 1
 159.2 501.010742188 l 1
 159.2 -180 l 1
 69.8 -180 l 1xb2
159.2 213.561523438 m 1
 159.2 142.383606929 206.771663132 67.4638671875 318.040039062 67.4638671875 c 0
 423.143963548 67.4638671875 468.080078125 141.967409413 468.080078125 253.561523438 c 0
 468.080078125 361.932499807 423.177305671 434.284179688 318.151367188 434.284179688 c 0
 214.805005255 434.284179688 159.2 373.942894305 159.2 283.561523438 c 1xd2
 120.351367188 283.561523438 l 1xc6
 120.351367188 425.746590474 203.279484515 510.93359375 331 510.93359375 c 0
 473.240588621 510.93359375 554.928710938 409.296356709 554.928710938 253.561523438 c 0
 554.928710938 94.0826581123 469.456780901 -9.998046875 329.040039062 -9.998046875 c 0
 193.720574894 -9.998046875 111.351367188 66.4393843715 111.351367188 183.561523438 c 1xca
 159.2 213.561523438 l 1
EndSplineSet
EndChar

StartChar: j
Encoding: 106 106 33
Width: 269
Flags: W
HStem: -190 76.4<-70.9471 64.9241> 481.011 20G<89.8 179.2> 595.551 122.449<86.6794 182.32>
VStem: 73.8867 121.227<607.597 705.953> 89.8 89.4<-89.3289 501.011>
LayerCount: 2
Fore
SplineSet
89.8 -11.6 m 2xe8
 89.8 -11.6 89.8 501.010742188 89.8 501.010742188 c 1
 89.8 501.010742188 179.2 501.010742188 179.2 501.010742188 c 1
 179.2 -13 l 2
 179.2 -119.535545024 134.237931034 -190 25.8 -190 c 0
 -37.3333150724 -190 -81 -171.6 -81 -171.6 c 1
 -81 -171.6 -67.8 -98.8 -67.8 -98.8 c 1
 -67.8 -98.8 -38.7129525991 -113.6 2 -113.6 c 0
 63.8158300781 -113.6 89.8 -82.8771084336 89.8 -11.6 c 2xe8
73.88671875 656.775390625 m 0xf0
 73.88671875 693.86624886 97.7785436737 718 134.499023438 718 c 0
 171.220545073 718 195.11328125 693.86624886 195.11328125 656.775390625 c 0
 195.11328125 619.683862287 171.220545073 595.55078125 134.499023438 595.55078125 c 0
 97.7785436737 595.55078125 73.88671875 619.683862287 73.88671875 656.775390625 c 0xf0
EndSplineSet
EndChar

StartChar: k
Encoding: 107 107 34
Width: 555
Flags: W
HStem: 0 21G<69.8 159.2 399.995 535> 225.8 60.4<83.8 196.2> 481.011 20G<392.996 525> 731.002 20G<69.8 159.2>
VStem: 69.8 89.4<0 225.8 286.2 751.002> 83.8 75.4<225.8 286.2>
LayerCount: 2
Fore
SplineSet
196.2 286.2 m 1xf4
 196.2 225.8 l 1
 83.8 225.8 l 1
 83.8 286.2 l 1
 196.2 286.2 l 1xf4
419.8 0 m 1
 196.2 225.8 l 1
 196.2 286.2 l 1
 413.2 501.010742188 l 1
 525 501.010742188 l 1
 285 261 l 1
 535 0 l 1
 419.8 0 l 1
69.8 0 m 1xf8
 69.8 751.001953125 l 1
 159.2 751.001953125 l 1
 159.2 0 l 1
 69.8 0 l 1xf8
EndSplineSet
EndChar

StartChar: l
Encoding: 108 108 35
Width: 371
Flags: W
HStem: -10.0088 80<192.299 317.857> 731.002 20G<75.8 165.2>
VStem: 75.8 89.4<97.3557 751.002>
LayerCount: 2
Fore
SplineSet
165.2 183.991210938 m 2
 165.2 104.328560334 192.190390624 69.9912109375 256.4 69.9912109375 c 0
 290.81352727 69.9912109375 315.4 82.5912109378 315.4 82.5912109378 c 1
 315.4 82.5912109378 327 5.9912109375 327 5.9912109375 c 1
 327 5.9912109375 289.711594894 -10.0087890625 235.8 -10.0087890625 c 0
 122.696551724 -10.0087890625 75.8 54.4670403211 75.8 160.991210938 c 2
 75.8 751.001953125 l 1
 165.2 751.001953125 l 1
 165.2 183.991210938 l 2
EndSplineSet
EndChar

StartChar: h
Encoding: 104 104 36
Width: 595
Flags: W
HStem: 0 21G<69.8 159.2 440.577 529.977> 435.284 75.6494<228.809 389.143> 731.002 20G<69.8 159.2>
VStem: 69.8 89.4<0 751.002> 440.577 89.4<0 380.899>
LayerCount: 2
Fore
SplineSet
69.8 0 m 1
 69.8 751.001953125 l 1
 159.2 751.001953125 l 1
 159.2 0 l 1
 69.8 0 l 1
159.2 284 m 9
 159.2 284 112.2 293.561523438 112.2 293.561523438 c 17
 136.530813866 444 202.224492978 510.93359375 338 510.93359375 c 0
 464.779374443 510.93359375 529.97734375 441.493288275 529.97734375 296.561523438 c 2
 529.97734375 0 l 1
 440.57734375 0 l 1
 440.57734375 279.561523438 l 2
 440.57734375 386.206648615 400.753815739 435.284179688 307 435.284179688 c 0
 211.465235972 435.284179688 159.2 374.718090373 159.2 284 c 9
EndSplineSet
EndChar

StartChar: q
Encoding: 113 113 37
Width: 602
Flags: W
HStem: -9.99805 77.4619<212.776 382.975> 433.484 77.4494<209.814 385.718> 481.011 20G<447.8 537.2>
VStem: 52.0713 86.8486<145.369 358.69> 447.8 89.4<-180 501.011> 447.8 52.2486<66.4394 183.562 283.562 425.747>
LayerCount: 2
Fore
SplineSet
537.2 -180 m 1xb8
 447.8 -180 l 1
 447.8 501.010742188 l 1
 537.2 501.010742188 l 1
 537.2 -180 l 1xb8
447.8 205.561523438 m 1
 500.048632812 183.561523438 l 1xd4
 500.048632812 66.4393843713 417.528072799 -9.998046875 281.959960938 -9.998046875 c 0
 139.056742185 -9.998046875 52.0712890625 94.0826581121 52.0712890625 253.561523438 c 0
 52.0712890625 409.296356709 135.21859224 510.93359375 280 510.93359375 c 0
 415.358436523 510.93359375 496.648632812 425.746590474 496.648632812 283.561523438 c 1
 447.8 275.561523438 l 1
 447.8 370.260399625 403.189936286 433.484179688 298.848632812 433.484179688 c 0xd8
 186.81763587 433.484179688 138.919921875 361.452776992 138.919921875 253.561523438 c 0
 138.919921875 141.967409413 186.850977992 67.4638671875 298.959960938 67.4638671875 c 0
 403.223278408 67.4638671875 447.8 138.28115975 447.8 205.561523438 c 1
EndSplineSet
EndChar

StartChar: g
Encoding: 103 103 38
Width: 602
Flags: W
HStem: -190 77<155.559 387.518> 20.002 74.0619<209.623 382.567> 436.484 74.4494<207.057 382.789> 481.011 20G<447.8 537.2>
VStem: 52.0713 86.8486<166.708 364.224> 447.8 89.4<-54.0477 35.8 223.562 501.011> 447.8 53.8486<100.388 429.493>
LayerCount: 2
Fore
SplineSet
447.8 35.8 m 2xdc
 447.8 501.010742188 l 1
 537.2 501.010742188 l 1
 537.2 31 l 2
 537.2 -102.018957346 466.210344829 -190 295 -190 c 0
 169.088051401 -190 82 -146 82 -146 c 1
 102.4 -68.6 l 1
 102.4 -68.6 175.992730243 -113 279 -113 c 0
 397.844101562 -113 447.8 -68.1807228917 447.8 35.8 c 2xdc
447.8 235.561523438 m 1
 501.648632812 223.561523438 l 1xea
 501.648632812 100.388423477 427.017615747 20.001953125 281.959960938 20.001953125 c 0
 128.408259804 20.001953125 52.0712890625 115.39477208 52.0712890625 261.561523438 c 0
 52.0712890625 412.455587994 124.564168627 510.93359375 280 510.93359375 c 0
 419.860770038 510.93359375 496.648632812 429.493180948 496.648632812 293.561523438 c 1
 447.8 285.561523438 l 1
 447.8 376.062825009 398.875317049 436.484179688 294.848632812 436.484179688 c 0xec
 185.619659253 436.484179688 138.919921875 367.655548859 138.919921875 264.561523438 c 0
 138.919921875 162.322004273 186.850977992 94.0638671878 298.959960938 94.0638671878 c 0
 403.223278409 94.0638671878 447.8 166.624699801 447.8 235.561523438 c 1
EndSplineSet
Substitution2: "'ss14' Style Set 14 lookup 19-1" g.ss14
EndChar

StartChar: f
Encoding: 102 102 39
Width: 398
Flags: W
HStem: 0 21G<129.8 219.2> 428.4 72.6107<28 368> 688.411 72.6<249.994 388.902>
VStem: 129.8 89.4<0 655.432>
LayerCount: 2
Fore
SplineSet
28 501.010742188 m 1
 368 501.010742188 l 1
 368 428.4 l 1
 28 428.4 l 1
 28 501.010742188 l 1
219.2 569.010742188 m 2
 219.2 0 l 1
 219.2 0 129.8 0 129.8 0 c 1
 129.8 0 129.8 582.010742188 129.8 582.010742188 c 2
 129.8 689.749918194 178.513651055 761.010742188 296 761.010742188 c 0
 356.295853366 761.010742188 398 745.010742188 398 745.010742188 c 1
 386.4 675.810742188 l 1
 386.4 675.810742188 358.729550781 688.410742188 320 688.410742188 c 0
 249.031883446 688.410742188 219.2 652.446347924 219.2 569.010742188 c 2
EndSplineSet
EndChar

StartChar: c
Encoding: 99 99 40
Width: 492
Flags: W
HStem: -9.99805 75.0619<220.643 421.946> 434.484 76.4494<214.44 404.697>
VStem: 49 88.4486<149.598 354.202>
LayerCount: 2
Fore
SplineSet
49 253.561523438 m 0
 49 409.296356709 136.973219291 510.93359375 294.488671875 510.93359375 c 0
 414.674319709 510.93359375 464.081640625 457.104101562 464.081640625 457.104101562 c 1
 435.95546875 394.151171875 l 1
 435.95546875 394.151171875 392.436944836 434.484179688 304.2 434.484179688 c 0
 191.389692469 434.484179688 137.448632812 362.052430509 137.448632812 253.561523438 c 0
 137.448632812 140.528240972 193.512708255 65.0638671875 311.288671875 65.0638671875 c 0
 391.653882547 65.0638671875 434.218554688 92.995703125 434.218554688 92.995703125 c 1
 459.027148438 26.595703125 l 1
 459.027148438 26.595703125 400.445877154 -9.998046875 298.688671875 -9.998046875 c 0
 138.650069848 -9.998046875 49 94.0826581128 49 253.561523438 c 0
EndSplineSet
Substitution2: "'ss12' Style Set 12 lookup 13-1" c.ss12
EndChar

StartChar: t
Encoding: 116 116 41
Width: 412
Flags: W
HStem: -10 76<243.985 364.264> 429 72.0107<28 368>
VStem: 129.8 89.4<91.368 654.611>
LayerCount: 2
Fore
SplineSet
28 501.010742188 m 1
 368 501.010742188 l 1
 368 429 l 1
 28 429 l 1
 28 501.010742188 l 1
219.2 174 m 2
 219.2 98.5306078758 244.296663851 66 304 66 c 0
 337.94668457 66 362.2 77 362.2 77 c 1
 373 4 l 1
 373 4 335.793359375 -10 282 -10 c 0
 158.132139878 -10 129.8 61.2797723741 129.8 159 c 2
 129.8 159 129.8 654.610742188 129.8 654.610742188 c 1
 129.8 654.610742188 219.2 666.010742188 219.2 666.010742188 c 1
 219.2 174 l 2
EndSplineSet
Substitution2: "'ss11' Style Set 11 lookup 12-1" t.ss11
EndChar

StartChar: r
Encoding: 114 114 42
Width: 420
Flags: W
HStem: 0 21G<69.8 159.2> 435.284 75.6494<215.304 382.225> 481.011 20G<69.8 159.2>
VStem: 69.8 89.4<0 501.011>
LayerCount: 2
Fore
SplineSet
69.8 0 m 1xb0
 69.8 501.010742188 l 1
 159.2 501.010742188 l 1
 159.2 0 l 1
 69.8 0 l 1xb0
301.2 510.93359375 m 0xd0
 372.384528775 510.93359375 397 484.93359375 397 484.93359375 c 1
 376.2 413.93359375 l 1
 376.2 413.93359375 344.142900509 435.284179688 292 435.284179688 c 0
 209.763387507 435.284179688 159.2 384.072165949 159.2 284 c 1
 113 293.561523438 l 1
 133.17986183 444 182.84287297 510.93359375 301.2 510.93359375 c 0xd0
EndSplineSet
EndChar

StartChar: e
Encoding: 101 101 43
Width: 551
Flags: W
HStem: -9.99805 74.2619<220.661 452.849> 215.8 68.4<108 425.8> 435.684 75.2494<204.744 365.696>
VStem: 108 29.6486<215.8 284.2>
LayerCount: 2
Fore
SplineSet
49 253.561523438 m 0
 49 409.296356709 139.390880071 510.93359375 287.888671875 510.93359375 c 0
 458.872582694 510.93359375 512.465820312 376.304265253 512.465820312 279.9109375 c 0
 512.465820312 240.331487732 508 215.8 508 215.8 c 1
 108 215.8 l 1
 108 284.2 l 1
 425.8 284.2 l 1
 425.8 284.2 425.981730022 289.952935352 425 301 c 0
 420.413800539 371.076362414 382.974576439 435.684179688 284 435.684179688 c 0
 181.480011727 435.684179688 137.648632812 361.971321763 137.648632812 251.561523438 c 0
 137.648632812 129.170137156 194.217697686 64.2638671875 327.4 64.2638671875 c 0
 416.464431125 64.2638671875 467.218554688 92.395703125 467.218554688 92.395703125 c 1
 482.827148438 18.595703125 l 1
 482.827148438 18.595703125 424.757381202 -9.998046875 323.888671875 -9.998046875 c 0
 133.981819358 -9.998046875 49 94.0826581128 49 253.561523438 c 0
EndSplineSet
Substitution2: "'ss03' Style Set 3 lookup 4-1" e.ss03
EndChar

StartChar: d
Encoding: 100 100 44
Width: 602
Flags: W
HStem: -9.99805 77.0494<211.996 374.925> 0 21G<447.8 537.2> 433.072 77.8619<213.237 380.495> 731.002 20G<447.8 537.2>
VStem: 52.0713 86.8486<145.1 355.45> 447.8 89.4<217.374 751.002> 447.8 38.8486<75.1885 217.374 317.374 434.496>
LayerCount: 2
Fore
SplineSet
537.2 0 m 1x7c
 447.8 0 l 1x7a
 447.8 751.001953125 l 1
 537.2 751.001953125 l 1
 537.2 0 l 1x7c
447.8 295.374023438 m 1xbc
 447.8 362.459894508 401.726428377 433.071679688 293.959960938 433.071679688 c 0
 189.354117303 433.071679688 138.919921875 358.72869569 138.919921875 247.374023438 c 0
 138.919921875 139.24321653 189.31955038 67.0513671875 293.848632812 67.0513671875 c 0
 401.691716427 67.0513671875 447.8 130.435624627 447.8 225.374023438 c 1xbc
 486.648632812 217.374023438 l 1xba
 486.648632812 75.1884765622 402.932983725 -9.998046875 274 -9.998046875 c 0
 133.030172031 -9.998046875 52.0712890625 91.639648437 52.0712890625 247.374023438 c 0
 52.0712890625 406.852539062 136.786209423 510.93359375 275.959960938 510.93359375 c 0
 403.819852513 510.93359375 481.648632812 434.49609375 481.648632812 317.374023438 c 1
 447.8 295.374023438 l 1xbc
EndSplineSet
Substitution2: "'ss05' Style Set 5 lookup 6-1" d.ss05
EndChar

StartChar: b
Encoding: 98 98 45
Width: 602
Flags: W
HStem: -9.99805 77.0494<226.214 397.335> 0 21G<69.8 159.2> 433.072 77.8619<229.935 396.103> 731.002 20G<69.8 159.2>
VStem: 69.8 89.4<197.374 751.002> 124.351 34.8486<55.1885 197.374 297.374 424.496> 468.08 86.8486<142.13 355.45>
LayerCount: 2
Fore
SplineSet
69.8 0 m 1x7a
 69.8 751.001953125 l 1
 159.2 751.001953125 l 1x7a
 159.2 0 l 1x76
 69.8 0 l 1x7a
159.2 295.374023438 m 1
 119.351367188 297.374023438 l 1
 119.351367188 424.49609375 200.963962103 510.93359375 335.040039062 510.93359375 c 0
 471.727309231 510.93359375 554.928710938 406.852539062 554.928710938 247.374023438 c 0
 554.928710938 91.639648437 475.429015158 -9.998046875 337 -9.998046875 c 0
 208.067016275 -9.998046875 124.351367188 55.1884765622 124.351367188 197.374023438 c 1xb6
 159.2 225.374023438 l 1
 159.2 130.435624627 205.308283573 67.0513671875 313.151367188 67.0513671875 c 0xba
 421.68044962 67.0513671875 468.080078125 139.24321653 468.080078125 247.374023438 c 0
 468.080078125 358.72869569 421.645882697 433.071679688 313.040039062 433.071679688 c 0
 205.273571623 433.071679688 159.2 362.459894508 159.2 295.374023438 c 1
EndSplineSet
EndChar

StartChar: a
Encoding: 97 97 46
Width: 566
Flags: W
HStem: -9.99805 72.398<160.087 314.349 462.84 534.957> 234.284 67.6494<192.015 385.777> 436.011 75<135.113 324.738>
VStem: 39 92.2486<89.3239 190.942> 369.929 87<65.6119 234.284 297.011 391.276> 369.929 36.8486<57.3566 160.562> 369.929 15.8486<234.284 301.934>
LayerCount: 2
Back
SplineSet
357.928710938 177.561523438 m 5x7c
 407.77734375 180.561523438 l 5x7a
 407.77734375 65.2546726394 343.443566636 -9.998046875 207.888671875 -9.998046875 c 4
 103.525845263 -9.998046875 40 50 40 141 c 4
 40 286.71747631 179.159368499 309.798279039 373.928710938 309.93359375 c 5
 373.77734375 224.284179688 l 5x79
 214.9215174 224.170106541 164.848632812 210.544945242 164.848632812 148.561523438 c 4
 164.848632812 111.324445486 189.419144912 86.4638671875 246.888671875 86.4638671875 c 4
 313.711369303 86.4638671875 357.928710938 123.027306191 357.928710938 177.561523438 c 5x7c
357.928710938 299.010742188 m 6xbc
 357.928710938 377.97408765 325.670027448 412.010742188 248.928710938 412.010742188 c 4
 170.769677734 412.010742188 114.928710938 368.010742188 114.928710938 368.010742188 c 5
 79.9287109375 467.010742188 l 5
 79.9287109375 467.010742188 159.657226562 511.010742188 274.928710938 511.010742188 c 4
 417.721987032 511.010742188 476.928710938 427.01055301 476.928710938 300.010742188 c 6
 476.928710938 118 l 6
 476.928710938 93.251950046 485.36431245 84 507.928710938 84 c 4
 525.694039812 84 536.928710938 91 536.928710938 91 c 5
 545.928710938 13 l 5
 545.928710938 13 520.8653569 -9.998046875 467.928710938 -9.998046875 c 4
 394.082557091 -9.998046875 357.928710938 33 357.928710938 125 c 6
 357.928710938 299.010742188 l 6xbc
EndSplineSet
Fore
SplineSet
369.928710938 177.561523438 m 1xf8
 406.77734375 160.561523438 l 1xf4
 406.77734375 57.3565944281 345.983895067 -9.998046875 217.888671875 -9.998046875 c 0
 106.688033754 -9.998046875 39 48.7285017656 39 135.8 c 0
 39 279.377128196 194.454846572 301.800521821 385.928710938 301.93359375 c 1
 385.77734375 234.284179688 l 1xf2
 222.750545055 234.143555773 131.248632812 217.823322323 131.248632812 140.936914063 c 0
 131.248632812 96.2502664053 161.389736177 64.6638671875 231.888671875 64.6638671875 c 0
 314.959677984 64.6638671875 369.928710938 109.97706994 369.928710938 177.561523438 c 1xf8
369.928710938 297.010742188 m 2xf8
 369.928710938 394.142645012 332.04695418 436.010742188 241.928710938 436.010742188 c 0
 159.103466796 436.010742188 99.9287109378 397.010742188 99.9287109378 397.010742188 c 1
 74.9287109375 467.010742188 l 1
 74.9287109375 467.010742188 149.341992187 511.010742188 256.928710938 511.010742188 c 0
 398.308192218 511.010742188 456.928710938 430.195394306 456.928710938 308.010742188 c 2
 456.928710938 122 l 2
 456.928710938 78.6181241983 467.758934814 62.4 496.728710938 62.4 c 0
 518.904742153 62.4 532.928710938 70.8 532.928710938 70.8 c 1
 532.928710938 70.8 541.928710938 8.4 541.928710938 8.4 c 1
 541.928710938 8.4 518.433563339 -9.998046875 473.557226563 -9.998046875 c 0
 402.333084783 -9.998046875 369.928710938 31.7259653641 369.928710938 121 c 2
 369.928710938 297.010742188 l 2xf8
EndSplineSet
Substitution2: "'ss15' Style Set 15 lookup 20-1" a.ss15
Substitution2: "'ss02' Style Set 2 lookup 3-1" a.ss02
EndChar

StartChar: plus
Encoding: 43 43 47
Width: 450
Flags: W
HStem: 321.2 73.6<30 420>
VStem: 188.2 73.6<163 553>
LayerCount: 2
Fore
SplineSet
261.8 553 m 1
 261.8 163 l 1
 188.2 163 l 1
 188.2 553 l 1
 261.8 553 l 1
420 321.2 m 1
 30 321.2 l 1
 30 394.8 l 1
 420 394.8 l 1
 420 321.2 l 1
EndSplineSet
EndChar

StartChar: s
Encoding: 115 115 48
Width: 476
Flags: W
HStem: -9.99805 72.9795<98.8774 315.018> 437.504 73.4293<170.192 377.522>
VStem: 53.2041 88.0576<318.062 409.52> 341.521 86.1689<88.0659 179.482>
LayerCount: 2
Fore
SplineSet
216.733007813 216.87578125 m 0
 86.9020319079 243.115356452 53.2041015625 288.296086639 53.2041015625 359 c 0
 53.2041015625 453.644245969 129.94500566 510.93359375 256.017578125 510.93359375 c 0
 362.533308833 510.93359375 414.334960938 473.225585938 414.334960938 473.225585938 c 1
 393.294921875 408.244335938 l 1
 393.294921875 408.244335938 341.414048548 437.504296875 264.943164062 437.504296875 c 0
 179.629330334 437.504296875 141.26171875 408.80275703 141.26171875 362.518554688 c 0
 141.26171875 323.24075336 166.193719334 303.308885562 253.64765625 285.529101562 c 0
 381.816487605 258.68215926 427.689453125 213.804328653 427.689453125 139.40234375 c 0
 427.689453125 47.3285907896 358.115850293 -9.998046875 227.856445312 -9.998046875 c 0
 116.552339321 -9.998046875 46 26.5625 46 26.5625 c 1
 65.314453125 98.861328125 l 1
 65.314453125 98.861328125 132.554998645 62.9814453125 214.993164062 62.9814453125 c 0
 300.711117427 62.9814453125 341.520507812 87.2546622332 341.520507812 134.336914062 c 0
 341.520507812 172.170113171 321.219108194 196.097400593 216.733007813 216.87578125 c 0
EndSplineSet
EndChar

StartChar: y
Encoding: 121 121 49
Width: 539
Flags: W
HStem: 481.011 20G<19 122.09 417.564 520>
LayerCount: 2
Fore
SplineSet
225.8 26.8 m 1
 19 501.010742188 l 1
 113.4 501.010742188 l 1
 275.606445312 127.694335938 l 1
 425.6 501.010742188 l 1
 520 501.010742188 l 1
 240.4 -179.994140625 l 1
 141.6 -179.994140625 l 1
 225.8 26.8 l 1
EndSplineSet
Substitution2: "'ss04' Style Set 4 lookup 5-1" y.ss04
EndChar

StartChar: u
Encoding: 117 117 50
Width: 595
Flags: W
HStem: -9.92285 75.6494<210.634 370.969> 0 21G<440.577 529.977> 481.011 20G<69.8 159.2 440.577 529.977>
VStem: 69.8 89.4<120.112 501.011> 440.577 89.4<207.449 501.011>
LayerCount: 2
Fore
SplineSet
440.57734375 217.010742188 m 9xb8
 487.57734375 207.44921875 l 17
 463.246529884 57.0107421877 397.552850772 -9.9228515625 261.77734375 -9.9228515625 c 0
 134.997969307 -9.9228515625 69.8 59.5174539126 69.8 204.44921875 c 2
 69.8 501.010742188 l 1
 159.2 501.010742188 l 1
 159.2 221.44921875 l 2
 159.2 114.804093572 199.023528011 65.7265625 292.77734375 65.7265625 c 0
 388.312107778 65.7265625 440.57734375 126.292651815 440.57734375 217.010742188 c 9xb8
529.97734375 501.010742188 m 1
 529.97734375 0 l 1
 440.57734375 0 l 1x78
 440.57734375 501.010742188 l 1
 529.97734375 501.010742188 l 1
EndSplineSet
Substitution2: "'ss05' Style Set 5 lookup 6-1" u.ss05
EndChar

StartChar: backslash
Encoding: 92 92 51
Width: 434
Flags: W
LayerCount: 2
Fore
SplineSet
313.2 -171.469726562 m 1
 313.2 -171.469726562 38.2 761.403320312 38.2 761.403320312 c 1
 38.2 761.403320312 120.8 761.403320312 120.8 761.403320312 c 1
 395.8 -171.469726562 l 1
 313.2 -171.469726562 l 1
EndSplineSet
EndChar

StartChar: equal
Encoding: 61 61 52
Width: 450
Flags: W
HStem: 239.6 68<30 420> 408.4 68<30 420>
LayerCount: 2
Back
SplineSet
420 285 m 5xea
 30 285 l 5
 30 431 l 5
 420 431 l 5
 420 285 l 5xea
EndSplineSet
Fore
SplineSet
420 239.6 m 1
 30 239.6 l 1
 30 307.6 l 1
 420 307.6 l 1
 420 239.6 l 1
420 408.4 m 1
 30 408.4 l 1
 30 476.4 l 1
 420 476.4 l 1
 420 408.4 l 1
EndSplineSet
EndChar

StartChar: v
Encoding: 118 118 53
Width: 539
Flags: W
HStem: 0 21G<212.936 335.665> 481.011 20G<19 121.171 418.227 520>
LayerCount: 2
Fore
SplineSet
221 0 m 1
 19 501.010742188 l 1
 113.4 501.010742188 l 1
 273.606445312 88.6943359378 l 1
 425.6 501.010742188 l 1
 520 501.010742188 l 1
 328 0 l 1
 221 0 l 1
EndSplineSet
EndChar

StartChar: w
Encoding: 119 119 54
Width: 735
Flags: W
HStem: 0 21G<153.219 267.552 466.504 580.821> 481.011 20G<19 112.034 622.966 716>
LayerCount: 2
Fore
SplineSet
158.8 0 m 1
 19 501.010742188 l 1
 106.8 501.010742188 l 1
 212.606445312 96.6943359378 l 1
 313.4 451.010742188 l 1
 421.2 451.010742188 l 1
 522.393554688 96.6943359378 l 1
 628.2 501.010742188 l 1
 716 501.010742188 l 1
 575.2 0 l 1
 472.4 0 l 1
 367.5 355.841796875 l 1
 261.6 0 l 1
 158.8 0 l 1
EndSplineSet
EndChar

StartChar: x
Encoding: 120 120 55
Width: 528
Flags: W
HStem: 0 21G<19 142.248 387.56 509> 481.011 20G<29 145.456 382.544 499>
VStem: 249.8 28.4<208.2 289.4>
LayerCount: 2
Fore
SplineSet
127.8 0 m 1
 19 0 l 1
 210.2 252.4 l 1
 29 501.010742188 l 1
 131.6 501.010742188 l 1
 278.2 289.4 l 1
 278.2 208.2 l 1
 127.8 0 l 1
402.2 0 m 1
 249.8 208.2 l 1
 249.8 289.4 l 1
 396.4 501.010742188 l 1
 499 501.010742188 l 1
 317.8 252.4 l 1
 509 0 l 1
 402.2 0 l 1
EndSplineSet
EndChar

StartChar: z
Encoding: 122 122 56
Width: 478
Flags: W
HStem: 0 78<146.8 438> 423.011 78<50 321.2>
LayerCount: 2
Fore
SplineSet
438 0 m 1
 40 0 l 1
 40 76 l 1
 321.2 423.010742188 l 1
 50 423.010742188 l 1
 50 501.010742188 l 1
 428 501.010742188 l 1
 428 427.010742188 l 1
 146.8 78 l 1
 438 78 l 1
 438 0 l 1
EndSplineSet
EndChar

StartChar: period
Encoding: 46 46 57
Width: 245
Flags: W
HStem: -10 122.449<74.7928 170.433>
VStem: 62 121.227<2.04656 100.402>
LayerCount: 2
Fore
SplineSet
62 51.224609375 m 0
 62 88.3151963037 85.8921197218 112.44921875 122.612304688 112.44921875 c 0
 159.333537628 112.44921875 183.2265625 88.3151963037 183.2265625 51.224609375 c 0
 183.2265625 14.1333810959 159.333537628 -10 122.612304688 -10 c 0
 85.892119722 -10 62 14.1333810959 62 51.224609375 c 0
EndSplineSet
EndChar

StartChar: two
Encoding: 50 50 58
Width: 608
Flags: W
HStem: 0 83.8<152.413 568.549> 653.999 84.9936<173.951 396.836>
VStem: 52 100.413<83.8 151.063> 463.876 92.8859<451.657 594.016>
LayerCount: 2
Fore
SplineSet
463.87578125 520.4 m 0
 463.87578125 595.359949401 418.997213586 653.998632812 287.328125 653.998632812 c 0
 182.094211817 653.998632812 106.738085938 598.954882812 106.738085938 598.954882812 c 1
 73.922265625 677.396875 l 1
 73.922265625 677.396875 162.203397592 738.9921875 290.69140625 738.9921875 c 0
 456.603612431 738.9921875 556.76171875 664.448223601 556.76171875 517.33359375 c 0
 556.76171875 390.524910078 466.355496623 336.255305453 349.374023438 278.2234375 c 0
 172.967543069 192.672038227 153.691116039 140.169905978 152.413476562 83.8 c 1
 568.548828125 83.8 l 1
 568.548828125 0 l 1
 52 0 l 1
 52 54 l 2
 52 197.351575245 145.820931812 280.049295841 314.821289062 361.076953125 c 0
 406.952043797 404.261321741 463.87578125 443.521827368 463.87578125 520.4 c 0
EndSplineSet
Substitution2: "'onum' Oldstyle Figures lookup 18-1" two.osf
Substitution2: "'tnum' Tabular Numbers lookup 17-1" two.tf
Substitution2: "'numr' Numerators lookup 0 subtable" two.numr
Substitution2: "'dnom' Denominators lookup 0 subtable" two.dnom
Substitution2: "'sups' Superscript lookup 0 subtable" two.superior
Substitution2: "'sinf' Scientific Inferiors lookup 0 subtable" two.inferior
Substitution2: "'sups' Superscript lookup 0 subtable" two.superior
EndChar

StartChar: three
Encoding: 51 51 59
Width: 579
Flags: W
HStem: -9.99805 81.9375<111.563 365.071> 333 79.4814<164.139 372.074> 654.599 84.3936<122.414 362.11>
VStem: 422.184 92.8859<457.328 599.468> 434.227 96.684<130.965 276.58>
LayerCount: 2
Fore
SplineSet
265.138671875 412.481445312 m 2xe8
 375.459715497 412.481445312 422.184375 451.542964633 422.184375 529.25859375 c 0
 422.184375 600.50925239 380.408197341 654.598632812 247.58203125 654.598632812 c 0
 133.869278358 654.598632812 66.4466796875 605.554882812 66.4466796875 605.554882812 c 1
 38.630859375 684.796875 l 1
 38.630859375 684.796875 117.129545407 738.9921875 253.2 738.9921875 c 0
 416.531293382 738.9921875 515.0703125 668.823720419 515.0703125 535.668164062 c 0xf0
 515.0703125 407.699833133 398.163085938 374.497265625 398.163085938 374.497265625 c 1
 398.163085938 374.497265625 530.911132812 344.463396694 530.911132812 201.802539063 c 0
 530.911132812 52.421804103 418.615377155 -9.998046875 250 -9.998046875 c 0
 105.442626837 -9.998046875 19.451171875 40.9091796875 19.451171875 40.9091796875 c 1
 46.7744140625 123.062695312 l 1
 46.7744140625 123.062695312 121.962595794 71.939453125 244 71.939453125 c 0
 374.325503693 71.939453125 434.227148438 118.555149748 434.227148438 202.6 c 0
 434.227148438 291.721509504 376.08593905 332.438587441 265.138671875 332.737304688 c 2
 164 333 l 1
 164.138671875 412.481445312 l 1
 265.138671875 412.481445312 l 2xe8
EndSplineSet
Substitution2: "'onum' Oldstyle Figures lookup 18-1" three.osf
Substitution2: "'tnum' Tabular Numbers lookup 17-1" three.tf
Substitution2: "'numr' Numerators lookup 0 subtable" three.numr
Substitution2: "'dnom' Denominators lookup 0 subtable" three.dnom
Substitution2: "'sups' Superscript lookup 0 subtable" three.superior
Substitution2: "'sinf' Scientific Inferiors lookup 0 subtable" three.inferior
Substitution2: "'sups' Superscript lookup 0 subtable" three.superior
EndChar

StartChar: comma
Encoding: 44 44 61
Width: 252
Flags: W
HStem: -106.4 218.849
VStem: 62 128.227<5.04223 95.7459>
LayerCount: 2
Fore
SplineSet
62 51.224609375 m 0
 62 88.3151963037 85.8921197218 112.44921875 122.612304688 112.44921875 c 0
 163.574266458 112.44921875 190.2265625 85.9540981827 190.2265625 38 c 0
 190.2265625 -42.8632643331 104.8 -106.4 104.8 -106.4 c 1
 67.2 -69 l 1
 67.2 -69 106.044917948 -42.7574176381 122.948242188 -10.64921875 c 1
 85.7167448989 -7.46195462376 62 16.1980411855 62 51.224609375 c 0
EndSplineSet
EndChar

StartChar: zero
Encoding: 48 48 63
Width: 683
Flags: W
HStem: -9.99805 83.8619<251.243 432.534> 655.259 83.8619<251.243 432.534>
VStem: 49 92.4486<212.083 517.04> 542.329 92.4486<212.083 517.04>
LayerCount: 2
Fore
SplineSet
141.448632812 364.561523438 m 0
 141.448632812 190.243651563 201.479252755 73.8638671875 341.888671875 73.8638671875 c 0
 482.298090995 73.8638671875 542.328710938 190.243651563 542.328710938 364.561523438 c 0
 542.328710938 538.879395308 482.298090995 655.259179688 341.888671875 655.259179688 c 0
 201.479252755 655.259179688 141.448632812 538.879395308 141.448632812 364.561523438 c 0
49 364.561523438 m 0
 49 591.206054688 150.279633244 739.12109375 341.888671875 739.12109375 c 0
 533.497710506 739.12109375 634.77734375 591.206054688 634.77734375 364.561523438 c 0
 634.77734375 137.916992188 533.497710506 -9.998046875 341.888671875 -9.998046875 c 0
 150.279633244 -9.998046875 49 137.916992188 49 364.561523438 c 0
EndSplineSet
Substitution2: "'onum' Oldstyle Figures lookup 18-1" zero.osf
Substitution2: "'tnum' Tabular Numbers lookup 17-1" zero.tf
Substitution2: "'numr' Numerators lookup 0 subtable" zero.numr
Substitution2: "'dnom' Denominators lookup 0 subtable" zero.dnom
Substitution2: "'sups' Superscript lookup 0 subtable" zero.superior
Substitution2: "'sinf' Scientific Inferiors lookup 0 subtable" zero.inferior
Substitution2: "'sups' Superscript lookup 0 subtable" zero.superior
EndChar

StartChar: one
Encoding: 49 49 64
Width: 415
Flags: W
HStem: 0 21G<245 342> 711 20G<224.602 342>
VStem: 245 97<0 627.2>
LayerCount: 2
Fore
SplineSet
342 731 m 1
 342 0 l 1
 245 0 l 1
 245 627.2 l 1
 68 534.2 l 1
 32 608 l 1
 262 731 l 1
 342 731 l 1
EndSplineSet
Substitution2: "'onum' Oldstyle Figures lookup 18-1" one.osf
Substitution2: "'tnum' Tabular Numbers lookup 17-1" one.tf
Substitution2: "'numr' Numerators lookup 0 subtable" one.numr
Substitution2: "'dnom' Denominators lookup 0 subtable" one.dnom
Substitution2: "'sups' Superscript lookup 0 subtable" one.superior
Substitution2: "'sinf' Scientific Inferiors lookup 0 subtable" one.inferior
Substitution2: "'sups' Superscript lookup 0 subtable" one.superior
EndChar

StartChar: four
Encoding: 52 52 65
Width: 660
Flags: W
HStem: 0 21G<410.2 502.8> 188.2 80.8<161 616> 711 20G<396.862 502.8>
VStem: 410.2 92.6<0 595>
LayerCount: 2
Fore
SplineSet
502.8 731 m 1
 502.8 0 l 1
 410.2 0 l 1
 410.2 595 l 1
 161 269 l 1
 616 269 l 1
 616 188.2 l 1
 70 188.2 l 1
 51 260 l 1
 412.2 731 l 1
 502.8 731 l 1
EndSplineSet
Substitution2: "'onum' Oldstyle Figures lookup 18-1" four.osf
Substitution2: "'tnum' Tabular Numbers lookup 17-1" four.tf
Substitution2: "'numr' Numerators lookup 0 subtable" four.numr
Substitution2: "'dnom' Denominators lookup 0 subtable" four.dnom
Substitution2: "'sups' Superscript lookup 0 subtable" four.superior
Substitution2: "'sinf' Scientific Inferiors lookup 0 subtable" four.inferior
Substitution2: "'sups' Superscript lookup 0 subtable" four.superior
EndChar

StartChar: exclam
Encoding: 33 33 66
Width: 274
Flags: W
HStem: -10 122.449<89.1795 184.82> 711.008 20G<91.4 186.6>
VStem: 76.3867 121.227<2.04656 100.402> 91.4 95.2<427.087 731.008> 103.4 71.2<210 513.921>
LayerCount: 2
Fore
SplineSet
103.4 210 m 1xc8
 91.4 731.0078125 l 1
 186.6 731.0078125 l 1xd0
 174.6 210 l 1
 103.4 210 l 1xc8
76.38671875 51.224609375 m 0xe0
 76.38671875 88.3151963037 100.278838472 112.44921875 136.999023438 112.44921875 c 0
 173.720256378 112.44921875 197.61328125 88.3151963037 197.61328125 51.224609375 c 0
 197.61328125 14.1333810959 173.720256378 -10 136.999023438 -10 c 0
 100.278838472 -10 76.38671875 14.1333810959 76.38671875 51.224609375 c 0xe0
EndSplineSet
EndChar

StartChar: five
Encoding: 53 53 67
Width: 594
Flags: W
HStem: -9.99805 85.4926<122.27 368.305> 397.136 79.8346<207.116 385.872> 646.841 84.167<175.805 504.672>
VStem: 452.045 93.7824<153.084 330.553>
LayerCount: 2
Fore
SplineSet
267 -9.998046875 m 0
 118.053527919 -9.998046875 29.451171875 40.9091796875 29.451171875 40.9091796875 c 1
 55.7744140625 125.062695312 l 1
 55.7744140625 125.062695312 141.645561077 75.49453125 252 75.49453125 c 0
 394.078889507 75.49453125 452.044726562 138.914102133 452.044726562 241.576171875 c 0
 452.044726562 339.00507786 399.247234451 397.135546875 295 397.135546875 c 0
 182.170736119 397.135546875 145.8 314.4 145.8 314.4 c 1
 63.947265625 337.328515625 l 1
 100 731.0078125 l 1
 504.671875 731.0078125 l 1
 504.671875 646.840820312 l 1
 175.8046875 646.840820312 l 1
 154.070703125 418.722265625 l 1
 154.070703125 418.722265625 192.15550368 476.970117188 314.815429688 476.970117188 c 0
 460.192816026 476.970117188 545.827148438 389.459269081 545.827148438 243.497070312 c 0
 545.827148438 86.3775128111 447.915952328 -9.998046875 267 -9.998046875 c 0
EndSplineSet
Substitution2: "'onum' Oldstyle Figures lookup 18-1" five.osf
Substitution2: "'tnum' Tabular Numbers lookup 17-1" five.tf
Substitution2: "'numr' Numerators lookup 0 subtable" five.numr
Substitution2: "'dnom' Denominators lookup 0 subtable" five.dnom
Substitution2: "'sups' Superscript lookup 0 subtable" five.superior
Substitution2: "'sinf' Scientific Inferiors lookup 0 subtable" five.inferior
Substitution2: "'sups' Superscript lookup 0 subtable" five.superior
EndChar

StartChar: six
Encoding: 54 54 68
Width: 640
Flags: W
HStem: -9.99805 83.4887<235.858 427.798> 400.291 76.309<233.621 428.399> 655.72 83.2727<258.216 486.392>
VStem: 49 86.3037<373.747 513.376> 503.598 87.5666<148.719 325.681>
LayerCount: 2
Back
SplineSet
188.3984375 236.890625 m 4
 188.3984375 160.019065367 229.88147703 103.890625 330.3984375 103.890625 c 4
 431.623435844 103.890625 473.3984375 160.019065367 473.3984375 236.890625 c 4
 473.3984375 314.340166284 431.623435844 370.890625 330.3984375 370.890625 c 4
 229.88147703 370.890625 188.3984375 314.340166284 188.3984375 236.890625 c 4
173.303710938 405.747070312 m 5
 173.303710938 405.747070312 214.094697864 475.599609375 341.263671875 475.599609375 c 4
 515.711185917 475.599609375 595.165039062 379.238029036 595.165039062 239 c 4
 595.165039062 79.095703125 494.937095781 -9.998046875 331.297851562 -9.998046875 c 4
 151.540405276 -9.998046875 45 99.6728515624 45 365.331054688 c 4
 45 605.528320312 159.046377502 738.9921875 364.297851562 738.9921875 c 4
 505.428880973 738.9921875 576.923828125 678.860351562 576.923828125 678.860351562 c 5
 532.619140625 573.388671875 l 5
 532.619140625 573.388671875 473.487673927 622.51953125 364.778320312 622.51953125 c 4
 242.266224145 622.51953125 180.301516454 546.295339891 173.303710938 405.747070312 c 5
EndSplineSet
Fore
SplineSet
156.5984375 236.890625 m 0
 156.5984375 142.448423165 211.316041273 73.490625 330.3984375 73.490625 c 0
 451.423452814 73.490625 503.5984375 142.448423165 503.5984375 236.890625 c 0
 503.5984375 331.332826835 453.001022907 400.290625 330.3984375 400.290625 c 0
 211.316041273 400.290625 156.5984375 331.332826835 156.5984375 236.890625 c 0
135.303710938 373.747070312 m 1
 135.303710938 373.747070312 173.707691358 476.599609375 341.863671875 476.599609375 c 0
 496.069512199 476.599609375 591.165039062 379.830752031 591.165039062 239 c 0
 591.165039062 79.095703125 492.456465343 -9.998046875 331.297851562 -9.998046875 c 0
 150.451879885 -9.998046875 49 99.6728515624 49 365.331054688 c 0
 49 605.528320312 158.045876317 738.9921875 354.297851562 738.9921875 c 0
 496.756386028 738.9921875 568.923828125 681.660351562 568.923828125 681.660351562 c 1
 539.619140625 607.388671875 l 1
 539.619140625 607.388671875 476.823682935 655.71953125 361.378320312 655.71953125 c 0
 216.727944082 655.71953125 139.699747566 569.353623116 135.303710938 373.747070312 c 1
EndSplineSet
Substitution2: "'onum' Oldstyle Figures lookup 18-1" six.osf
Substitution2: "'tnum' Tabular Numbers lookup 17-1" six.tf
Substitution2: "'numr' Numerators lookup 0 subtable" six.numr
Substitution2: "'dnom' Denominators lookup 0 subtable" six.dnom
Substitution2: "'ss07' Style Set 7 lookup 8-1" six.ss07
Substitution2: "'sups' Superscript lookup 0 subtable" six.superior
Substitution2: "'sinf' Scientific Inferiors lookup 0 subtable" six.inferior
Substitution2: "'sups' Superscript lookup 0 subtable" six.superior
EndChar

StartChar: parenright
Encoding: 41 41 69
Width: 402
Flags: W
HStem: -171.47 79.3254<44 140.88> 680.144 79.3254<44 140.88>
VStem: 269.848 88.2787<88.1904 499.81>
LayerCount: 2
Fore
SplineSet
44 -92.1443359377 m 1
 191.361197996 -92.1443359377 269.848242188 14.8417428785 269.848242188 294 c 0
 269.848242188 573.15825712 191.361197996 680.144335938 44 680.144335938 c 1
 44 759.469726562 l 1
 248.267098187 759.469726562 358.126953125 611.823242188 358.126953125 294 c 0
 358.126953125 -23.8232421879 248.267098187 -171.469726562 44 -171.469726562 c 1
 44 -92.1443359377 l 1
EndSplineSet
EndChar

StartChar: seven
Encoding: 55 55 70
Width: 604
Flags: W
HStem: 0 21G<195.8 294.859> 646.6 84.4<50 450.8>
VStem: 195.8 97.2<0 166.534>
LayerCount: 2
Fore
SplineSet
293 0 m 1
 195.8 0 l 1
 208.773752331 371.906324786 450.8 646.6 450.8 646.6 c 1
 50 646.6 l 1
 50 731 l 1
 554 731 l 1
 554 650.6 l 1
 554 650.6 296.717788435 374.58176 293 0 c 1
EndSplineSet
Substitution2: "'onum' Oldstyle Figures lookup 18-1" seven.osf
Substitution2: "'tnum' Tabular Numbers lookup 17-1" seven.tf
Substitution2: "'numr' Numerators lookup 0 subtable" seven.numr
Substitution2: "'dnom' Denominators lookup 0 subtable" seven.dnom
Substitution2: "'sups' Superscript lookup 0 subtable" seven.superior
Substitution2: "'sinf' Scientific Inferiors lookup 0 subtable" seven.inferior
Substitution2: "'sups' Superscript lookup 0 subtable" seven.superior
EndChar

StartChar: eight
Encoding: 56 56 71
Width: 647
Flags: W
HStem: -9.99805 78.7637<215.642 431.358> 344.397 73.0641<229.931 420.767> 363.573 40.2568<167.797 482.457> 659.398 79.4867<228.015 421.556>
VStem: 49 90.1676<135.037 279.048> 84.2598 87.0885<470.405 606.783> 480.652 87.0885<471.614 606.783> 507.832 90.1676<133.857 279.082>
LayerCount: 2
Fore
SplineSet
324.3 417.461523438 m 0xd6
 420.767210776 417.461523438 480.651757812 463.367176685 480.651757812 536.269140625 c 0
 480.651757812 613.685900977 422.816815931 659.398046875 323.5 659.398046875 c 0
 227.343487003 659.398046875 171.348242188 613.685900977 171.348242188 536.269140625 c 0
 171.348242188 463.367176685 229.930580077 417.461523438 324.3 417.461523438 c 0xd6
323.5 738.884765625 m 0
 475.734483779 738.884765625 567.740234375 665.090820312 567.740234375 543.655273438 c 0
 567.740234375 430.073262102 482.456667127 363.573242188 323.5 363.573242188 c 0xb6
 167.797253737 363.573242188 84.259765625 430.073262102 84.259765625 543.655273438 c 0
 84.259765625 665.090820312 174.381747742 738.884765625 323.5 738.884765625 c 0
323.5 68.765625 m 0
 438.627629834 68.765625 507.832421875 118.090759175 507.832421875 207.220507812 c 0
 507.832421875 291.116162025 438.653197232 344.397460938 323.5 344.397460938 c 0
 208.346802768 344.397460938 139.167578125 291.116162025 139.167578125 207.220507812 c 0xd9
 139.167578125 118.090759175 208.372370166 68.765625 323.5 68.765625 c 0
323.5 403.830078125 m 0xb9
 500.57635654 403.830078125 598 332.116476357 598 202.381835938 c 0
 598 73.804351377 490.0144488 -9.998046875 323.5 -9.998046875 c 0
 156.9855512 -9.998046875 49 73.8043513772 49 202.381835938 c 0
 49 332.116476357 146.42364346 403.830078125 323.5 403.830078125 c 0xb9
EndSplineSet
Substitution2: "'onum' Oldstyle Figures lookup 18-1" eight.osf
Substitution2: "'tnum' Tabular Numbers lookup 17-1" eight.tf
Substitution2: "'numr' Numerators lookup 0 subtable" eight.numr
Substitution2: "'dnom' Denominators lookup 0 subtable" eight.dnom
Substitution2: "'sups' Superscript lookup 0 subtable" eight.superior
Substitution2: "'sinf' Scientific Inferiors lookup 0 subtable" eight.inferior
Substitution2: "'sups' Superscript lookup 0 subtable" eight.superior
EndChar

StartChar: nine
Encoding: 57 57 72
Width: 640
Flags: W
HStem: -9.99805 83.2727<153.773 381.949> 252.395 77.109<212.366 407.164> 655.504 83.4887<213.054 408.476>
VStem: 49 88.7666<404.451 578.518> 504.861 86.3037<215.619 355.247>
LayerCount: 2
Fore
SplineSet
484.766601562 492.103515625 m 0
 484.766601562 586.54571746 430.048997791 655.503515625 310.966601562 655.503515625 c 0
 190.335978773 655.503515625 137.766601562 586.54571746 137.766601562 492.103515625 c 0
 137.766601562 398.123699112 188.364016156 329.503515625 310.966601562 329.503515625 c 0
 430.048997791 329.503515625 484.766601562 398.123699112 484.766601562 492.103515625 c 0
504.861328125 355.247070312 m 1
 504.861328125 355.247070312 466.550707422 252.39453125 298.301367188 252.39453125 c 0
 144.095526864 252.39453125 49 349.164169963 49 489.994140625 c 0
 49 649.8984375 147.708573721 738.9921875 308.8671875 738.9921875 c 0
 490.113159177 738.9921875 591.165039062 629.321289062 591.165039062 363.663085938 c 0
 591.165039062 123.465820312 482.119162745 -9.998046875 285.8671875 -9.998046875 c 0
 143.408653034 -9.998046875 71.2412109375 47.3337890625 71.2412109375 47.3337890625 c 1
 100.545898438 121.60546875 l 1
 100.545898438 121.60546875 163.341356127 73.274609375 278.78671875 73.274609375 c 0
 423.437094981 73.274609375 500.465291495 159.641239158 504.861328125 355.247070312 c 1
EndSplineSet
Substitution2: "'onum' Oldstyle Figures lookup 18-1" nine.osf
Substitution2: "'tnum' Tabular Numbers lookup 17-1" nine.tf
Substitution2: "'numr' Numerators lookup 0 subtable" nine.numr
Substitution2: "'dnom' Denominators lookup 0 subtable" nine.dnom
Substitution2: "'ss07' Style Set 7 lookup 8-1" nine.ss07
Substitution2: "'sups' Superscript lookup 0 subtable" nine.superior
Substitution2: "'sinf' Scientific Inferiors lookup 0 subtable" nine.inferior
Substitution2: "'sups' Superscript lookup 0 subtable" nine.superior
EndChar

StartChar: question
Encoding: 63 63 73
Width: 562
Flags: W
HStem: -10 122.449<177.18 272.82> 301.453 70.5955<226.04 367.362> 655.429 83.5637<119.487 345.948>
VStem: 164.387 121.227<2.04656 100.402> 184.423 82.9561<210 301.453> 426.096 91.7744<424.217 584.957>
LayerCount: 2
Back
SplineSet
152.38671875 63.224609375 m 0xf4
 152.38671875 107.584937143 181.008990842 136.44921875 224.999023438 136.44921875 c 0
 268.990077228 136.44921875 297.61328125 107.584937143 297.61328125 63.224609375 c 0
 297.61328125 18.8635145521 268.990077228 -10 224.999023438 -10 c 0
 181.008990842 -10 152.38671875 18.8635145521 152.38671875 63.224609375 c 0xf4
280.88671875 300.653320312 m 1
 282.37890625 210 l 1
 169.422851562 210 l 1xec
 171.15625 399.46875 l 1
 171.15625 399.46875 208.949224154 395.048828125 256.3984375 395.048828125 c 0
 348.180522211 395.048828125 392.095703125 431.389934102 392.095703125 499.145507812 c 0
 392.095703125 585.201602829 327.571533338 623.228515625 232.89453125 623.228515625 c 0
 138.66274719 623.228515625 76.923828125 573.958007812 76.923828125 573.958007812 c 1
 30.2412109375 685.311523438 l 1
 30.2412109375 685.311523438 107.390463661 738.9921875 239.89453125 738.9921875 c 0
 405.150107971 738.9921875 521.870117188 670 521.870117188 501.010742188 c 0
 521.870117188 365.685958308 421.37343496 300.59375 309 300.59375 c 0
 290.63582236 300.59375 280.88671875 300.653320312 280.88671875 300.653320312 c 1
EndSplineSet
Fore
SplineSet
164.38671875 51.224609375 m 0xf4
 164.38671875 88.3151963037 188.278838472 112.44921875 224.999023438 112.44921875 c 0
 261.720256378 112.44921875 285.61328125 88.3151963037 285.61328125 51.224609375 c 0
 285.61328125 14.1333810959 261.720256378 -10 224.999023438 -10 c 0
 188.278838472 -10 164.38671875 14.1333810959 164.38671875 51.224609375 c 0xf4
265.88671875 301.453320312 m 1
 267.37890625 210 l 1
 184.422851562 210 l 1xec
 186.15625 377.26875 l 1
 186.15625 377.26875 222.175784252 372.048828125 267.3984375 372.048828125 c 0
 374.737121223 372.048828125 426.095703125 417.81588183 426.095703125 503.145507812 c 0
 426.095703125 608.759332144 349.412545618 655.428515625 236.89453125 655.428515625 c 0
 128.16282655 655.428515625 56.923828125 601.958007812 56.923828125 601.958007812 c 1
 24.2412109375 685.311523438 l 1
 24.2412109375 685.311523438 103.598372964 738.9921875 239.89453125 738.9921875 c 0
 402.805854284 738.9921875 517.870117188 661.327703299 517.870117188 505.010742188 c 0
 517.870117188 366.309877707 415.580630344 299.59375 307.2 299.59375 c 0
 280.213308941 299.59375 265.88671875 301.453320312 265.88671875 301.453320312 c 1
EndSplineSet
EndChar

StartChar: hyphen
Encoding: 45 45 74
Width: 354
Flags: W
HStem: 240 79<44 310>
VStem: 44 266<240 319>
LayerCount: 2
Fore
SplineSet
310 240 m 1
 44 240 l 1
 44 319 l 1
 310 319 l 1
 310 240 l 1
EndSplineSet
EndChar

StartChar: quotesingle
Encoding: 39 39 75
Width: 266
Flags: W
HStem: 456 275.008<104 166>
VStem: 92 86<570.587 731.008> 104 62<456 616.421>
LayerCount: 2
Fore
SplineSet
104 456 m 1xa0
 92 731.0078125 l 1
 178 731.0078125 l 1xc0
 166 456 l 1
 104 456 l 1xa0
EndSplineSet
EndChar

StartChar: parenleft
Encoding: 40 40 77
Width: 402
Flags: W
HStem: -171.47 79.3254<261.247 358.127> 680.144 79.3254<261.247 358.127>
VStem: 44 88.2787<88.1904 499.81>
LayerCount: 2
Fore
SplineSet
358.126953125 -92.1443359377 m 1
 358.126953125 -171.469726562 l 1
 153.859854938 -171.469726562 44 -23.8232421879 44 294 c 0
 44 611.823242188 153.859854938 759.469726562 358.126953125 759.469726562 c 1
 358.126953125 680.144335938 l 1
 210.765755128 680.144335938 132.278710938 573.15825712 132.278710938 294 c 0
 132.278710938 14.8417428785 210.765755128 -92.1443359377 358.126953125 -92.1443359377 c 1
EndSplineSet
EndChar

StartChar: asterisk
Encoding: 42 42 78
Width: 400
Flags: W
HStem: 718.992 20G<159.134 241.305>
LayerCount: 2
Fore
SplineSet
241.305273438 738.9921875 m 1
 233.096484375 588.351367188 l 1
 367.640429688 645.349804688 l 1
 395.440429688 570.369140625 l 1
 252.896484375 531.767578125 l 1
 349.905273438 423.006835938 l 1
 285.75390625 370.116992188 l 1
 200.219726562 494.675195312 l 1
 114.685546875 370.116992188 l 1
 50.5341796875 423.006835938 l 1
 147.54296875 531.767578125 l 1
 5 570.369140625 l 1
 5 570.369140625 32.8 645.349804688 32.8 645.349804688 c 1
 32.8 645.349804688 167.34296875 588.351367188 167.34296875 588.351367188 c 1
 159.134179688 738.9921875 l 1
 241.305273438 738.9921875 l 1
EndSplineSet
Substitution2: "'ss13' Style Set 13 lookup 14-1" asterisk.ss13
EndChar

StartChar: less
Encoding: 60 60 79
Width: 450
Flags: W
LayerCount: 2
Fore
SplineSet
420 163 m 1
 30 317 l 1
 30 399 l 1
 420 553 l 1
 420 476 l 1
 420 476 124.454101562 358 124.454101562 358 c 1
 124.454101562 358 420 240 420 240 c 1
 420 163 l 1
EndSplineSet
EndChar

StartChar: greater
Encoding: 62 62 80
Width: 450
Flags: W
LayerCount: 2
Fore
SplineSet
30 553 m 1
 420 399 l 1
 420 317 l 1
 30 163 l 1
 30 240 l 1
 319.545898438 358 l 1
 30 476 l 1
 30 553 l 1
EndSplineSet
EndChar

StartChar: slash
Encoding: 47 47 81
Width: 434
Flags: W
LayerCount: 2
Fore
SplineSet
38.2 -171.469726562 m 1
 38.2 -171.469726562 313.2 761.403320312 313.2 761.403320312 c 1
 395.8 761.403320312 l 1
 120.8 -171.469726562 l 1
 120.8 -171.469726562 38.2 -171.469726562 38.2 -171.469726562 c 1
EndSplineSet
EndChar

StartChar: bar
Encoding: 124 124 82
Width: 249
Flags: W
VStem: 84 81<-171.47 759.47>
LayerCount: 2
Fore
SplineSet
84 -171.469726562 m 1
 84 759.469726562 l 1
 165 759.469726562 l 1
 165 -171.469726562 l 1
 84 -171.469726562 l 1
EndSplineSet
EndChar

StartChar: bracketleft
Encoding: 91 91 83
Width: 375
Flags: W
HStem: -171.47 72<159.2 321> 688.47 71<159.2 321>
VStem: 75.8 83.4<-99.4697 688.47>
LayerCount: 2
Fore
SplineSet
75.8 759.469726562 m 1
 321 759.469726562 l 1
 321 688.469726562 l 1
 159.2 688.469726562 l 1
 159.2 -99.4697265623 l 1
 321 -99.4697265623 l 1
 321 -171.469726562 l 1
 75.8 -171.469726562 l 1
 75.8 759.469726562 l 1
EndSplineSet
EndChar

StartChar: bracketright
Encoding: 93 93 84
Width: 375
Flags: W
HStem: -171.47 72<54 215.8> 687.87 71.6<54 215.8>
VStem: 215.8 83.4<-99.4697 687.87>
LayerCount: 2
Fore
SplineSet
299.2 -171.469726562 m 1
 54 -171.469726562 l 1
 54 -99.4697265623 l 1
 215.8 -99.4697265623 l 1
 215.8 687.869726562 l 1
 54 687.869726562 l 1
 54 759.469726562 l 1
 299.2 759.469726562 l 1
 299.2 -171.469726562 l 1
EndSplineSet
EndChar

StartChar: asciicircum
Encoding: 94 94 85
Width: 449
Flags: W
HStem: 440 291.008
LayerCount: 2
Fore
SplineSet
272 731.0078125 m 1
 430 440 l 1
 347 440 l 1
 225.393554688 669.313476562 l 1
 103 440 l 1
 19 440 l 1
 177 731.0078125 l 1
 272 731.0078125 l 1
EndSplineSet
EndChar

StartChar: braceleft
Encoding: 123 123 86
Width: 433
Flags: W
HStem: -171.47 69.9961<249.025 377.357> 273.532 82<50 138.874> 689.474 69.9961<248.932 377.451>
VStem: 148 85<-84.4356 264.196 364.043 672.435>
LayerCount: 2
Fore
SplineSet
180.4 314.532226562 m 1
 180.4 314.532226562 233 290.484607514 233 213.532226562 c 2
 233 -27.4736328125 l 2
 233 -84.2914767794 262.477407094 -101.473632812 315 -101.473632812 c 0
 365.000847583 -101.473632812 376 -94.4736328123 376 -94.4736328123 c 1
 383 -160.269726562 l 1
 383 -160.269726562 347.525773196 -171.469726562 290 -171.469726562 c 0
 185.456317204 -171.469726562 148 -121.782421875 148 -37.4697265625 c 2
 148 203.532226562 l 2
 148 256.967206401 129.501953125 273.532226562 93 273.532226562 c 2
 50 273.532226562 l 1
 50 355.532226562 l 1
 93 355.532226562 l 2
 129.501953125 355.532226562 148 372.098349295 148 425.532226562 c 2
 148 625.469726562 l 2
 148 709.780112592 185.456317204 759.469726562 290 759.469726562 c 0
 342.492268041 759.469726562 383 748.269726562 383 748.269726562 c 1
 376 682.473632812 l 1
 376 682.473632812 356.68891059 689.473632812 314 689.473632812 c 0
 262.118043664 689.473632812 233 672.29047309 233 615.473632812 c 2
 233 415.532226562 l 2
 233 336.658854167 180.4 314.532226562 180.4 314.532226562 c 1
EndSplineSet
EndChar

StartChar: grave
Encoding: 96 96 87
Width: 242
Flags: W
HStem: 536 205.008
VStem: 19 204
LayerCount: 2
Fore
SplineSet
163 536 m 1
 19 711.0078125 l 1
 101 741.0078125 l 1
 223 556 l 1
 163 536 l 1
EndSplineSet
EndChar

StartChar: underscore
Encoding: 95 95 88
Width: 564
Flags: W
HStem: -71 71<40 524>
LayerCount: 2
Fore
SplineSet
524 -71 m 1
 40 -71 l 1
 40 0 l 1
 524 0 l 1
 524 -71 l 1
EndSplineSet
EndChar

StartChar: dollar
Encoding: 36 36 89
Width: 591
Flags: W
HStem: -105 154.47<255 334> -10 86.4619<142.492 388.84> 651.659 87.4619<217.315 446.074> 679 150.47<255 334>
VStem: 63.627 97.3115<473.191 602.543> 255 79<-105 49.4697 679 829.47> 447.738 94.7816<127.355 259.503>
LayerCount: 2
Fore
SplineSet
255 -105 m 1x8e
 255 49.4697265625 l 1
 334 49.4697265625 l 1
 334 -105 l 1
 255 -105 l 1x8e
255 679 m 1x1e
 255 829.469726562 l 1
 334 829.469726562 l 1
 334 679 l 1
 255 679 l 1x1e
EndSplineSet
Refer: 22 83 N 1 0 0 1 0 0 2
EndChar

StartChar: percent
Encoding: 37 37 90
Width: 953
Flags: W
HStem: -9.99805 71.3803<656.633 788.403> 0 21G<213 298> 290.472 71.3793<656.633 790.614> 367.143 71.3793<165.959 297.403> 667.612 71.3803<165.959 299.614> 711.008 20G<645.825 743>
VStem: 49 79.2602<476.935 630.25> 336.81 77.1498<476.935 630.25> 540 78.2602<99.7942 253.109> 827.81 77.1498<99.7942 253.109>
LayerCount: 2
Fore
SplineSet
618.26015625 176.481445312 m 0xb3c0
 618.26015625 93.9095747806 667.099803968 61.3822265625 722.48046875 61.3822265625 c 0
 777.057548807 61.3822265625 827.81015625 93.9095747806 827.81015625 176.481445312 c 0
 827.81015625 260.075294912 777.057548807 290.472265625 722.48046875 290.472265625 c 0
 667.099803968 290.472265625 618.26015625 260.075294912 618.26015625 176.481445312 c 0xb3c0
540 176.481445312 m 0
 540 278.624023438 606.580582433 361.8515625 722.48046875 361.8515625 c 0
 838.379386147 361.8515625 904.959960938 278.624023438 904.959960938 176.481445312 c 0
 904.959960938 74.4218750004 838.379386147 -9.998046875 722.48046875 -9.998046875 c 0
 606.580582433 -9.998046875 540 74.4218750004 540 176.481445312 c 0
128.26015625 553.622070312 m 0
 128.26015625 471.050536997 176.649372756 438.521875 231.48046875 438.521875 c 0
 286.057548807 438.521875 336.81015625 471.050536997 336.81015625 553.622070312 c 0
 336.81015625 637.214816188 286.057548807 667.611914062 231.48046875 667.611914062 c 0x3bc0
 176.649372756 667.611914062 128.26015625 637.214816188 128.26015625 553.622070312 c 0
49 553.622070312 m 0
 49 655.764648438 115.580582433 738.9921875 231.48046875 738.9921875 c 0
 347.379386147 738.9921875 413.959960938 655.764648438 413.959960938 553.622070312 c 0
 413.959960938 451.5625 347.379386147 367.142578125 231.48046875 367.142578125 c 0
 115.580582433 367.142578125 49 451.5625 49 553.622070312 c 0
EndSplineSet
Refer: 138 8260 N 1 0 0 1 301 0 2
EndChar

StartChar: at
Encoding: 64 64 91
Width: 924
Flags: W
HStem: -159.727 71.7578<342.75 649.33> -29.0424 20G<775.813 785.131> 71.9697 70.3539<377.76 513.523 663.669 773.905> 410.703 68.3734<395.109 530.495> 637.738 69.9883<342.386 613.505>
VStem: 39 74.1748<134.957 403.873> 256.842 84.7166<179.903 353.998> 566.383 83.5023<198.773 331.945> 569.733 52.8717<153.25 350.156> 818.217 67.0701<197.775 449.568>
LayerCount: 2
Fore
SplineSet
341.558398438 261.0546875 m 0xff40
 341.558398438 183.361542658 376.961691505 142.323632812 443.994335938 142.323632812 c 0
 521.286702714 142.323632812 566.382617188 198.772885457 566.382617188 295.529296875 c 0
 566.382617188 369.911900896 527.91618246 410.702734375 465.434960938 410.702734375 c 0
 387.11862242 410.702734375 341.558398438 355.663962758 341.558398438 261.0546875 c 0xff40
423.392578125 71.9697265625 m 0
 323.686123268 71.9697265625 256.841796875 146.245237785 256.841796875 257.037109375 c 0
 256.841796875 388.627283766 338.355697422 479.076171875 451 479.076171875 c 0
 566.164977881 479.076171875 622.604882812 396.787107744 622.604882812 268.87734375 c 0xfec0
 622.604882812 153.249897372 540.374824801 71.9697265625 423.392578125 71.9697265625 c 0
487.713867188 -159.7265625 m 0
 209.874225416 -159.7265625 39 14.611328125 39 268.08984375 c 0
 39 524.041992188 218.193304139 707.7265625 476.420898438 707.7265625 c 0
 715.124397986 707.7265625 885.287109375 561.379882812 885.287109375 321.901367188 c 0
 885.287109375 171.18359375 818.025344281 72.708984375 700.626953125 72.708984375 c 0
 618.562864072 72.708984375 569.733203125 120.982421875 569.733203125 228.081054688 c 0xfec0
 569.733203125 350.15625 608.763476562 476.46484375 608.763476562 476.46484375 c 1
 691.17890625 476.46484375 l 1
 691.17890625 476.46484375 649.884960938 331.944544316 649.884960938 227.827148438 c 0xff40
 649.884960938 168.888212509 668.168692902 137.784765625 712 137.784765625 c 0
 765.00187109 137.784765625 818.216992188 177.739358163 818.216992188 328.072265625 c 0
 818.216992188 525.983132653 679.2833363 637.73828125 474.184375 637.73828125 c 0
 261.200831535 637.73828125 113.174804688 495.058450639 113.174804688 267.489257812 c 0
 113.174804688 46.6124053794 250.573488056 -87.96875 497.6796875 -87.96875 c 0
 668.826234417 -87.96875 775.81328125 -9.0423828125 775.81328125 -9.0423828125 c 1
 805.250976562 -72.2255859375 l 1
 805.250976562 -72.2255859375 701.004882812 -159.7265625 487.713867188 -159.7265625 c 0
EndSplineSet
EndChar

StartChar: numbersign
Encoding: 35 35 92
Width: 767
Flags: W
HStem: 0 21G<126.1 208.414 396.1 478.414> 192.8 73.4<59 673> 447.8 73.4<94 708> 711.008 20G<286.586 368.9 556.586 638.9>
LayerCount: 2
Fore
SplineSet
94 521.2 m 1
 708 521.2 l 1
 708 447.8 l 1
 94 447.8 l 1
 94 521.2 l 1
59 266.2 m 1
 673 266.2 l 1
 673 192.8 l 1
 59 192.8 l 1
 59 266.2 l 1
396.1 0 m 1
 561.1 731.0078125 l 1
 638.9 731.0078125 l 1
 473.9 0 l 1
 396.1 0 l 1
126.1 0 m 1
 291.1 731.0078125 l 1
 368.9 731.0078125 l 1
 203.9 0 l 1
 126.1 0 l 1
EndSplineSet
EndChar

StartChar: braceright
Encoding: 125 125 93
Width: 433
Flags: W
HStem: -171.47 69.9961<43.6433 175.829> 273.532 82<294.126 383> 689.474 69.9961<43.5492 175.951>
VStem: 200 85<-77.857 264.196 364.043 665.856>
LayerCount: 2
Fore
SplineSet
253 314.532226562 m 1
 253 314.532226562 200 336.658854167 200 415.532226562 c 2
 200 593.873632812 l 2
 200 667.27484809 166.568172089 689.473632812 107 689.473632812 c 0
 64.3110894097 689.473632812 45 682.473632812 45 682.473632812 c 1
 38 748.269726562 l 1
 38 748.269726562 78.5077319588 759.469726562 131 759.469726562 c 0
 244.378360215 759.469726562 285 701.770443474 285 603.869726562 c 2
 285 425.532226562 l 2
 285 372.098349295 303.498046875 355.532226562 340 355.532226562 c 2
 383 355.532226562 l 1
 383 273.532226562 l 1
 340 273.532226562 l 2
 303.498046875 273.532226562 285 256.967206401 285 203.532226562 c 2
 285 -15.8697265625 l 2
 285 -113.773125 244.378360215 -171.469726562 131 -171.469726562 c 0
 73.4742268041 -171.469726562 38 -160.269726562 38 -160.269726562 c 1
 45 -94.4736328123 l 1
 45 -94.4736328123 55.9991524174 -101.473632812 106 -101.473632812 c 0
 166.208826014 -101.473632812 200 -79.2761447481 200 -5.8736328125 c 2
 200 -5.8736328125 200 213.532226562 200 213.532226562 c 2
 200 290.484607514 253 314.532226562 253 314.532226562 c 1
EndSplineSet
EndChar

StartChar: asciitilde
Encoding: 126 126 94
Width: 436
VWidth: 999
Flags: W
HStem: 302.6 70<238.613 359.671> 359.6 69<77.7503 199.797>
LayerCount: 2
Fore
SplineSet
421 358.6 m 1x80
 421 358.6 373.786885246 302.6 301 302.6 c 0x80
 221.523076924 302.6 195.03076923 359.6 137 359.6 c 0
 90.1884057971 359.6 52 315.6 52 315.6 c 1
 15 378.6 l 1
 15 378.6 67.131147541 428.6 135 428.6 c 0x40
 213.215384616 428.6 246.015384616 372.6 299 372.6 c 0
 352.584615384 372.6 380 414.6 380 414.6 c 1
 421 358.6 l 1x80
EndSplineSet
EndChar

StartChar: cent
Encoding: 162 162 95
Width: 492
Flags: W
HStem: 105.002 75.0619<220.643 421.946> 549.484 76.4494<214.44 404.697> 582 147.47<258 329>
VStem: 49 88.4486<264.598 469.202> 258 71<-5 164.47 582 729.47>
LayerCount: 2
Fore
SplineSet
258 -5 m 1x98
 258 164.469726562 l 1
 329 164.469726562 l 1
 329 -5 l 1
 258 -5 l 1x98
258 582 m 1xb8
 258 729.469726562 l 1
 329 729.469726562 l 1
 329 582 l 1
 258 582 l 1xb8
EndSplineSet
Refer: 40 99 N 1 0 0 1 0 115 2
EndChar

StartChar: sterling
Encoding: 163 163 96
Width: 553
Flags: W
HStem: 0 83.8<148.319 523> 305 78<50 434> 653.621 85.8408<223.386 437.022>
VStem: 73.3516 101.979<443.05 607.939> 150.824 89.6572<199.477 302.096>
LayerCount: 2
Fore
SplineSet
434 305 m 1xe0
 50 305 l 1
 50 383 l 1
 434 383 l 1
 434 305 l 1xe0
523 0 m 1
 30 0 l 1
 30 79.8 l 1
 30 79.8 150.82421875 165.634453634 150.82421875 289.379882812 c 0xe8
 150.82421875 391.588284089 73.3515625 418.167846584 73.3515625 547.185546875 c 0
 73.3515625 671.3984375 165.166008786 739.461914062 302.80859375 739.461914062 c 0
 436.317802183 739.461914062 495.95703125 698.605273438 495.95703125 698.605273438 c 1
 474.9375 616.024414062 l 1
 474.9375 616.024414062 404.184638134 653.62109375 325.80859375 653.62109375 c 0
 242.169789871 653.62109375 175.330078125 631.818116456 175.330078125 532.414648437 c 0xf0
 175.330078125 432.530193156 240.481445312 407.787865231 240.481445312 290.158203125 c 0xe8
 240.481445312 162.289105693 148.319335938 83.8 148.319335938 83.8 c 1
 523 83.8 l 1
 523 0 l 1
EndSplineSet
EndChar

StartChar: yen
Encoding: 165 165 97
Width: 649
Flags: W
HStem: 0 21G<276 373> 183 70<99.5 549.5> 313 70<99.5 276 373 549.5> 326 57<282 367> 711.008 20G<34 153.584 495.416 615>
VStem: 276 97<0 387>
LayerCount: 2
Fore
SplineSet
282 326 m 1xdc
 34 731.0078125 l 1
 142 731.0078125 l 1
 324.5 415.916015625 l 1
 507 731.0078125 l 1
 615 731.0078125 l 1
 367 326 l 1
 282 326 l 1xdc
276 0 m 1
 276 387 l 1
 373 387 l 1
 373 0 l 1
 276 0 l 1
549.5 183 m 1
 99.5 183 l 1
 99.5 253 l 1
 549.5 253 l 1
 549.5 183 l 1
549.5 313 m 1xec
 99.5 313 l 1
 99.5 383 l 1
 549.5 383 l 1
 549.5 313 l 1xec
EndSplineSet
EndChar

StartChar: currency
Encoding: 164 164 98
Width: 513
Flags: W
HStem: 156.724 80.8619<181.989 330.026> 476.606 81.0494<178.598 331.121>
VStem: 56.6113 85.2486<280.04 436.279> 371.14 85.2486<280.04 436.279>
LayerCount: 2
Fore
SplineSet
335.239257812 217.436523438 m 1
 399.889648438 246.325195312 l 1
 494.259765625 116.765625 l 1
 409.580078125 70.1455078125 l 1
 335.239257812 217.436523438 l 1
178.020507812 217.436523438 m 1
 103.6796875 70.1455078125 l 1
 19 116.765625 l 1
 113.370117188 246.325195312 l 1
 178.020507812 217.436523438 l 1
335.239257812 493.74609375 m 1
 409.580078125 641.036132812 l 1
 494.259765625 594.416015625 l 1
 399.889648438 464.856445312 l 1
 335.239257812 493.74609375 l 1
178.020507812 493.74609375 m 1
 113.370117188 464.856445312 l 1
 19 594.416015625 l 1
 103.6796875 641.036132812 l 1
 178.020507812 493.74609375 l 1
141.859960938 359.283203125 m 0
 141.859960938 286.307638296 175.895049063 237.585546875 255.5 237.585546875 c 0
 336.506555996 237.585546875 371.140039062 286.307638296 371.140039062 359.283203125 c 0
 371.140039062 429.635944262 336.539668502 476.605859375 255.611328125 476.605859375 c 0
 175.928158818 476.605859375 141.859960938 429.635944262 141.859960938 359.283203125 c 0
56.611328125 359.283203125 m 0
 56.611328125 479.317382812 131.8663719 557.655273438 255.5 557.655273438 c 0
 380.376793733 557.655273438 456.388671875 479.317382812 456.388671875 359.283203125 c 0
 456.388671875 236.715820312 380.376793733 156.723632812 255.5 156.723632812 c 0
 131.8663719 156.723632812 56.611328125 236.715820312 56.611328125 359.283203125 c 0
EndSplineSet
EndChar

StartChar: brokenbar
Encoding: 166 166 99
Width: 249
Flags: W
VStem: 81 87<-171.47 239 339 759.47>
LayerCount: 2
Fore
SplineSet
81 -171.469726562 m 1
 81 239 l 1
 168 239 l 1
 168 -171.469726562 l 1
 81 -171.469726562 l 1
81 339 m 1
 81 759.469726562 l 1
 168 759.469726562 l 1
 168 339 l 1
 81 339 l 1
EndSplineSet
EndChar

StartChar: section
Encoding: 167 167 100
Width: 593
Flags: W
HStem: -19.6709 74.3906<169.379 354.425> 680.212 74.3906<237.98 421.343>
VStem: 43.6328 85.8594<339.874 426.614> 119.533 89.6324<544.685 653.171> 382.234 91.2324<81.4419 195.55> 463.508 85.8594<309.266 394.066>
LayerCount: 2
Fore
SplineSet
187.71484375 514.353320312 m 1xe8
 236.5234375 467.151171875 l 1
 236.5234375 467.151171875 129.4921875 450.169442149 129.4921875 378.393554688 c 0
 129.4921875 343.457439597 162.705381297 313.767896657 292.860351562 302.17578125 c 0
 426.621708499 290.280704785 473.466796875 221.36709384 473.466796875 141.370117188 c 0
 473.466796875 41.0522807006 404.160013683 -19.6708984375 290.30078125 -19.6708984375 c 0
 177.5859375 -19.6708984375 122.76953125 19.734375 122.76953125 19.734375 c 1
 146.896484375 87.8251953122 l 1
 146.896484375 87.8251953122 199.003593642 54.7197265625 275.8046875 54.7197265625 c 0
 349.219080982 54.7197265625 382.234375 86.7670557378 382.234375 138.443359375 c 0
 382.234375 185.02790017 359.103568174 222.384430757 247.696289062 231.377929688 c 0
 86.8613859294 243.491814666 43.6328125 304.685569647 43.6328125 366.309570312 c 0
 43.6328125 480.745709156 187.71484375 514.353320312 187.71484375 514.353320312 c 1xe8
385.28515625 211.778320312 m 1
 348.4765625 270.98046875 l 1
 348.4765625 270.98046875 463.5078125 284.362432172 463.5078125 353 c 0
 463.5078125 395.317886573 423.964025643 419.197277369 292.208007812 436.451171875 c 0
 165.270549187 452.897963962 119.533203125 515.402876482 119.533203125 593.561523438 c 0
 119.533203125 693.879359924 188.839986317 754.602539062 302.69921875 754.602539062 c 0
 415.4140625 754.602539062 470.23046875 715.197265625 470.23046875 715.197265625 c 1
 446.103515625 646.306445312 l 1
 446.103515625 646.306445312 393.997414192 680.211914062 317.1953125 680.211914062 c 0
 242.67725112 680.211914062 209.165625 647.399034514 209.165625 594.48828125 c 0
 209.165625 553.497220724 231.154052698 520.374301264 352.260742188 505.03125 c 0
 502.661806786 486.023992046 549.3671875 428.204400893 549.3671875 363.622070312 c 0xd4
 549.3671875 243.74364778 385.28515625 211.778320312 385.28515625 211.778320312 c 1
EndSplineSet
EndChar

StartChar: dieresis
Encoding: 168 168 101
Width: 459
Flags: W
HStem: 616.543 122.449<76.6794 172.32 286.679 382.32>
VStem: 63.8867 121.227<628.589 726.946> 273.887 121.227<628.589 726.946>
LayerCount: 2
Fore
SplineSet
273.88671875 677.767578125 m 0
 273.88671875 714.858436361 297.778543673 738.9921875 334.499023438 738.9921875 c 0
 371.220545073 738.9921875 395.11328125 714.858436361 395.11328125 677.767578125 c 0
 395.11328125 640.676049786 371.220545073 616.54296875 334.499023438 616.54296875 c 0
 297.778543673 616.54296875 273.88671875 640.676049786 273.88671875 677.767578125 c 0
63.88671875 677.767578125 m 0
 63.88671875 714.858436361 87.7785436737 738.9921875 124.499023438 738.9921875 c 0
 161.220545073 738.9921875 185.11328125 714.858436361 185.11328125 677.767578125 c 0
 185.11328125 640.676049786 161.220545073 616.54296875 124.499023438 616.54296875 c 0
 87.7785436734 616.54296875 63.88671875 640.676049786 63.88671875 677.767578125 c 0
EndSplineSet
EndChar

StartChar: copyright
Encoding: 169 169 102
Width: 797
Flags: W
HStem: -9.99805 71.4574<273.207 524.57> 177.281 65.2314<352.854 522.986> 486.61 65.2314<352.854 506.581> 667.664 71.4574<273.207 524.57>
VStem: 39 72.8965<235.214 493.909> 235.957 77.0238<282.789 446.334> 685.881 72.8965<235.214 493.909>
LayerCount: 2
Fore
SplineSet
235.95703125 364.561523438 m 0
 235.95703125 477.88408452 298.354007976 551.841796875 418.401367188 551.841796875 c 0
 498.54590792 551.841796875 537.297851562 518.7265625 537.297851562 518.7265625 c 1
 512.234765625 460.449609375 l 1
 512.234765625 460.449609375 489.352210676 486.610351562 429.901367188 486.610351562 c 0
 344.798529493 486.610351562 312.980859375 437.749056009 312.980859375 364.561523438 c 0
 312.980859375 291.373990869 344.798529493 242.512695312 429.901367188 242.512695312 c 0
 492.560093513 242.512695312 519.465820312 265.578125 519.465820312 265.578125 c 1
 538.870117188 204.578125 l 1
 538.870117188 204.578125 498.038379176 177.28125 418.401367188 177.28125 c 0
 298.354007976 177.28125 235.95703125 251.238962356 235.95703125 364.561523438 c 0
111.896484375 364.561523438 m 0
 111.896484375 182.805348105 205.849201842 61.459375 398.888671875 61.459375 c 0
 591.928141908 61.459375 685.880859375 182.805348105 685.880859375 364.561523438 c 0
 685.880859375 546.31769877 591.928141908 667.663671875 398.888671875 667.663671875 c 0
 205.849201842 667.663671875 111.896484375 546.31769877 111.896484375 364.561523438 c 0
39 364.561523438 m 0
 39 591.206054688 175.174953474 739.12109375 398.888671875 739.12109375 c 0
 622.602390276 739.12109375 758.77734375 591.206054688 758.77734375 364.561523438 c 0
 758.77734375 137.916992188 622.602390276 -9.998046875 398.888671875 -9.998046875 c 0
 175.174953474 -9.998046875 39 137.916992188 39 364.561523438 c 0
EndSplineSet
EndChar

StartChar: registered
Encoding: 174 174 103
Width: 797
Flags: W
HStem: -9.99805 71.4574<273.207 524.57> 314.752 54.7758<297 452.172> 492.076 56.1797<329.2 461.865> 667.664 71.4574<273.207 524.57>
VStem: 39 72.8965<235.214 493.909> 256.5 72.7<182.752 314.752 369.528 492.076> 297 32.2<314.752 369.528> 476.265 70.1238<382.472 477.374> 685.881 72.8965<235.214 493.909>
LayerCount: 2
Fore
SplineSet
297 369.527734375 m 1xfb80
 387.244335938 369.582421875 l 2
 438.208443343 369.613952391 476.26484375 376.218456009 476.26484375 430.333203125 c 0
 476.26484375 480.490453526 438.208442278 491.983647745 387.244335938 492.025390625 c 2
 329.2 492.076171875 l 1
 329.2 182.751953125 l 1
 256.5 182.751953125 l 1
 256.5 548.255859375 l 1xfd80
 405.444335938 548.255859375 l 2
 479.602050781 548.255859375 546.388671875 516.923715833 546.388671875 432.419921875 c 0
 546.388671875 359.320063638 485.54375 339.890625 485.54375 339.890625 c 1
 485.54375 339.890625 514.779031202 329.975522165 533.3515625 271.451171875 c 2
 561.5 182.751953125 l 1
 488.1 182.751953125 l 1
 464.8 265.251953125 l 2
 451.557721957 311.95790239 429.455737705 314.751953125 387.8 314.751953125 c 2
 297 314.751953125 l 1
 297 369.527734375 l 1xfb80
111.896484375 364.561523438 m 0
 111.896484375 182.805348105 205.849201842 61.459375 398.888671875 61.459375 c 0
 591.928141908 61.459375 685.880859375 182.805348105 685.880859375 364.561523438 c 0
 685.880859375 546.31769877 591.928141908 667.663671875 398.888671875 667.663671875 c 0
 205.849201842 667.663671875 111.896484375 546.31769877 111.896484375 364.561523438 c 0
39 364.561523438 m 0
 39 591.206054688 175.174953474 739.12109375 398.888671875 739.12109375 c 0
 622.602390276 739.12109375 758.77734375 591.206054688 758.77734375 364.561523438 c 0
 758.77734375 137.916992188 622.602390276 -9.998046875 398.888671875 -9.998046875 c 0
 175.174953474 -9.998046875 39 137.916992188 39 364.561523438 c 0
EndSplineSet
EndChar

StartChar: uni2117
Encoding: 8471 8471 104
Width: 797
Flags: W
HStem: -9.99805 71.4574<273.207 524.57> 294.752 53.1758<314.494 473.665> 492.076 56.1797<340.094 473.247> 667.664 71.4574<273.207 524.57>
VStem: 39 72.8965<235.214 493.909> 266.994 73.1<182.752 294.752 347.928 492.076> 314.494 25.6<294.752 347.928> 492.459 68.9238<367.084 473.362> 685.881 72.8965<235.214 493.909>
LayerCount: 2
Fore
SplineSet
314.494335938 294.751953125 m 1xfb80
 314.494335938 347.927734375 l 1xfb80
 394.938671875 347.982421875 l 2
 450.769082853 348.024369422 492.459179688 360.938140766 492.459179688 420.033203125 c 0
 492.459179688 478.564940029 452.479065817 491.947982675 398.938671875 492.025390625 c 2
 340.094335938 492.076171875 l 1
 340.094335938 182.751953125 l 1
 266.994335938 182.751953125 l 1
 266.994335938 548.255859375 l 1xfd80
 402.938671875 548.255859375 l 2
 486.303916995 548.255859375 561.383007812 513.33438011 561.383007812 420.033203125 c 0
 561.383007812 328.401042206 489.631436295 294.751953125 410.938671875 294.751953125 c 2
 314.494335938 294.751953125 l 1xfb80
111.896484375 364.561523438 m 0
 111.896484375 182.805348105 205.849201842 61.459375 398.888671875 61.459375 c 0
 591.928141908 61.459375 685.880859375 182.805348105 685.880859375 364.561523438 c 0
 685.880859375 546.31769877 591.928141908 667.663671875 398.888671875 667.663671875 c 0
 205.849201842 667.663671875 111.896484375 546.31769877 111.896484375 364.561523438 c 0
39 364.561523438 m 0
 39 591.206054688 175.174953474 739.12109375 398.888671875 739.12109375 c 0
 622.602390276 739.12109375 758.77734375 591.206054688 758.77734375 364.561523438 c 0
 758.77734375 137.916992188 622.602390276 -9.998046875 398.888671875 -9.998046875 c 0
 175.174953474 -9.998046875 39 137.916992188 39 364.561523438 c 0
EndSplineSet
EndChar

StartChar: guillemotleft
Encoding: 171 171 105
Width: 590
Flags: W
LayerCount: 2
Fore
SplineSet
57 277 m 1
 197 441 l 1
 291 441 l 1
 137.75 254 l 1
 291 67 l 1
 197 67 l 1
 57 231 l 1
 57 277 l 1
307 277 m 1
 447 441 l 1
 541 441 l 1
 387.75 254 l 1
 541 67 l 1
 447 67 l 1
 307 231 l 1
 307 277 l 1
EndSplineSet
EndChar

StartChar: guillemotright
Encoding: 187 187 106
Width: 590
Flags: W
LayerCount: 2
Fore
SplineSet
533 231 m 1
 393 67 l 1
 299 67 l 1
 452.25 254 l 1
 299 441 l 1
 393 441 l 1
 533 277 l 1
 533 231 l 1
283 231 m 1
 143 67 l 1
 49 67 l 1
 202.25 254 l 1
 49 441 l 1
 143 441 l 1
 283 277 l 1
 283 231 l 1
EndSplineSet
EndChar

StartChar: mu
Encoding: 181 181 107
Width: 595
Flags: W
HStem: -9.92285 75.6494<209.45 374.112> 0 21G<440.577 529.977> 481.011 20G<69.8 159.2 440.577 529.977>
VStem: 69.8 89.4<-180 501.011> 97 62.2<56.9261 321.011> 440.577 89.4<207.449 501.011>
LayerCount: 2
Fore
SplineSet
69.8 -180 m 1x34
 69.8 501.010742188 l 1
 159.2 501.010742188 l 1
 159.2 -180 l 1
 69.8 -180 l 1x34
440.57734375 217.010742188 m 9
 487.57734375 207.44921875 l 17
 464.539575793 57.0107421877 395.428931122 -9.9228515625 273.77734375 -9.9228515625 c 0
 164.169517268 -9.9228515625 97 56.9260601597 97 196.44921875 c 2
 97 321.010742188 l 1xac
 159.2 321.010742188 l 1
 159.2 213.44921875 l 2
 159.2 119.871827584 196.223528011 65.7265625 292.77734375 65.7265625 c 0xb4
 388.312107778 65.7265625 440.57734375 126.292651815 440.57734375 217.010742188 c 9
529.97734375 501.010742188 m 1
 529.97734375 0 l 1
 440.57734375 0 l 1x64
 440.57734375 501.010742188 l 1
 529.97734375 501.010742188 l 1
EndSplineSet
EndChar

StartChar: acute
Encoding: 180 180 108
Width: 242
Flags: W
HStem: 536 205.008
VStem: 19 204
LayerCount: 2
Fore
SplineSet
79 536 m 1
 19 556 l 1
 141 741.0078125 l 1
 223 711.0078125 l 1
 79 536 l 1
EndSplineSet
EndChar

StartChar: macron
Encoding: 175 175 109
Width: 374
Flags: W
HStem: 654.808 76.2<44 330>
VStem: 44 286<654.808 731.008>
LayerCount: 2
Fore
SplineSet
330 654.8078125 m 1
 44 654.8078125 l 1
 44 731.0078125 l 1
 330 731.0078125 l 1
 330 654.8078125 l 1
EndSplineSet
EndChar

StartChar: uni00AD
Encoding: 173 173 110
Width: 354
Flags: W
HStem: 240 79<50 304>
VStem: 50 254<240 319>
LayerCount: 2
Fore
SplineSet
304 240 m 1
 50 240 l 1
 50 319 l 1
 304 319 l 1
 304 240 l 1
EndSplineSet
EndChar

StartChar: logicalnot
Encoding: 172 172 111
Width: 450
Flags: W
HStem: 320 76<30 327>
VStem: 327 78<167 320>
LayerCount: 2
Fore
SplineSet
405 167 m 1
 327 167 l 1
 327 320 l 1
 30 320 l 1
 30 396 l 1
 405 396 l 1
 405 167 l 1
EndSplineSet
EndChar

StartChar: minus
Encoding: 8722 8722 112
Width: 450
Flags: W
HStem: 321.2 73.6<30 420>
LayerCount: 2
Fore
SplineSet
420 321.2 m 1
 30 321.2 l 1
 30 394.8 l 1
 420 394.8 l 1
 420 321.2 l 1
EndSplineSet
EndChar

StartChar: notequal
Encoding: 8800 8800 113
Width: 450
Flags: W
HStem: 239.6 68<30 420> 408.4 68<30 420>
LayerCount: 2
Fore
SplineSet
81.8 108.530273438 m 1
 286.8 601.403320312 l 1
 364.6 601.403320312 l 1
 159.6 108.530273438 l 1
 81.8 108.530273438 l 1
EndSplineSet
Refer: 52 61 N 1 0 0 1 0 0 2
EndChar

StartChar: partialdiff
Encoding: 8706 8706 114
Width: 620
Flags: W
HStem: -9.99805 82.8887<203.863 380.7> 396.891 73.709<216.345 392.234> 656.72 82.2727<188.648 378.741>
VStem: 49 91.5666<137.119 321.034> 480.061 91.1037<387.547 527.563>
LayerCount: 2
Fore
SplineSet
456.366601562 246.890625 m 0
 456.366601562 333.587872707 405.359969978 396.890625 309.766601562 396.890625 c 0
 194.156288661 396.890625 140.566601562 325.147505735 140.566601562 226.890625 c 0
 140.566601562 137.881450688 184.152827067 72.890625 289.766601562 72.890625 c 0
 407.697063635 72.890625 456.366601562 146.32181766 456.366601562 246.890625 c 0
480.061328125 387.547070312 m 1
 476.41084848 562.638185363 416.467443118 656.71953125 291.37890625 656.71953125 c 0
 200.260484378 656.71953125 150.145898438 611.388671875 150.145898438 611.388671875 c 1
 113.241210938 688.860351562 l 1
 113.241210938 688.860351562 174.648733922 738.9921875 295.8671875 738.9921875 c 0
 472.834522427 738.9921875 571.165039062 612.671898034 571.165039062 385.331054688 c 0
 571.165039062 105.516837439 466.113159177 -9.998046875 288.8671875 -9.998046875 c 0
 140.11172591 -9.998046875 49 75.5176128099 49 229 c 0
 49 372.20164401 144.764648438 470.599609375 295.901367188 470.599609375 c 0
 435.335986935 470.599609375 480.061328125 387.547070312 480.061328125 387.547070312 c 1
EndSplineSet
EndChar

StartChar: emptyset
Encoding: 8709 8709 115
Width: 797
Flags: W
HStem: -9.99805 79.6619<282.603 523.265> 659.459 79.6619<274.159 515.889>
VStem: 39 80.8486<233.699 495.424> 677.929 80.8486<233.699 495.424>
LayerCount: 2
Fore
SplineSet
119.848632812 364.561523438 m 0
 119.848632812 187.725106794 207.419493265 69.6638671875 398.888671875 69.6638671875 c 0
 590.357850485 69.6638671875 677.928710938 187.725106794 677.928710938 364.561523438 c 0
 677.928710938 541.397940078 590.357850485 659.459179688 398.888671875 659.459179688 c 0
 207.419493265 659.459179688 119.848632812 541.397940078 119.848632812 364.561523438 c 0
39 364.561523438 m 0
 39 591.206054688 175.174953474 739.12109375 398.888671875 739.12109375 c 0
 622.602390276 739.12109375 758.77734375 591.206054688 758.77734375 364.561523438 c 0
 758.77734375 137.916992188 622.602390276 -9.998046875 398.888671875 -9.998046875 c 0
 175.174953474 -9.998046875 39 137.916992188 39 364.561523438 c 0
123.5 -90.873046875 m 1
 588.5 812 l 1
 673.5 812 l 1
 208.5 -90.873046875 l 1
 123.5 -90.873046875 l 1
EndSplineSet
EndChar

StartChar: Delta
Encoding: 8710 8710 116
Width: 719
Flags: W
HStem: 0 90.4<157.4 561.6> 711.008 20G<297.13 412.177>
LayerCount: 2
Fore
SplineSet
670 0 m 1
 49 0 l 1
 49 80.4 l 1
 305 731.0078125 l 1
 404 731.0078125 l 1
 670 80.4 l 1
 670 0 l 1
561.6 90.4 m 1
 355.393554688 618.313476562 l 1
 355.393554688 618.313476562 157.4 90.4 157.4 90.4 c 1
 157.4 90.4 561.6 90.4 561.6 90.4 c 1
EndSplineSet
EndChar

StartChar: plusminus
Encoding: 177 177 117
Width: 450
Flags: W
HStem: 155.6 67.6<30 420> 350.2 73.6<30 420>
VStem: 188.2 73.6<160.6 558.6>
LayerCount: 2
Fore
SplineSet
420 155.6 m 1
 30 155.6 l 1
 30 223.2 l 1
 420 223.2 l 1
 420 155.6 l 1
188.2 160.6 m 1
 188.2 558.6 l 1
 261.8 558.6 l 1
 261.8 160.6 l 1
 188.2 160.6 l 1
420 350.2 m 1
 30 350.2 l 1
 30 423.8 l 1
 420 423.8 l 1
 420 350.2 l 1
EndSplineSet
EndChar

StartChar: degree
Encoding: 176 176 118
Width: 431
Flags: W
HStem: 408.07 66.5264<145.062 285.758> 694.288 66.7139<145.082 285.778>
VStem: 39 72.8121<508.305 660.855> 319.965 72.8121<510.309 658.852>
LayerCount: 2
Fore
SplineSet
111.812109375 584.854492188 m 0
 111.812109375 518.738481374 142.65284855 474.596679688 214.786132812 474.596679688 c 0
 288.464519386 474.596679688 319.965234375 518.738481374 319.965234375 584.854492188 c 0
 319.965234375 650.476725557 288.501804283 694.288085938 214.909179688 694.288085938 c 0
 142.690138762 694.288085938 111.812109375 650.476725557 111.812109375 584.854492188 c 0
39 584.629882812 m 0
 39 691.352303618 105.552521206 761.001953125 214.888671875 761.001953125 c 0
 325.467989583 761.001953125 392.77734375 691.352303618 392.77734375 584.629882812 c 0
 392.77734375 477.794630433 325.467989583 408.0703125 214.888671875 408.0703125 c 0
 105.552521206 408.0703125 39 477.794630433 39 584.629882812 c 0
EndSplineSet
EndChar

StartChar: cedilla
Encoding: 184 184 120
Width: 317
VWidth: 999
Flags: W
HStem: -249 56<49.8036 197.287> -84.4 53.4<122.019 201.003>
VStem: 208.8 70.2<-180.204 -92.244>
LayerCount: 2
Fore
SplineSet
279 -133 m 0
 279 -206.875819053 232.263966922 -249 145.2 -249 c 0
 84.0183581505 -249 36.4 -223.6 36.4 -223.6 c 1
 53.6 -169.6 l 1
 53.6 -169.6 84.2352796053 -193 133.6 -193 c 0
 189.537955729 -193 208.8 -170.098595463 208.8 -136 c 0
 208.8 -100.050735294 188.150457444 -84.4 154.6 -84.4 c 0
 115.146796874 -84.4 101.4 -109 101.4 -109 c 1
 51 -92 l 1
 73 39 l 1
 136 39 l 1
 121.485351562 -45.203515625 l 1
 121.485351562 -45.203515625 136.413577847 -31 175 -31 c 0
 237.971998762 -31 279 -69.5035511364 279 -133 c 0
EndSplineSet
EndChar

StartChar: paragraph
Encoding: 182 182 121
Width: 682
Flags: W
HStem: 654.992 76<393.889 507.889>
VStem: 40 353.889<398.701 608.473> 309.889 84<-179.994 279.392> 507.889 84<-179.994 654.992>
LayerCount: 2
Fore
SplineSet
393.888671875 -179.994140625 m 1xb0
 309.888671875 -179.994140625 l 1
 309.888671875 279.3921875 l 1xb0
 150.472833747 285.3921875 40 336.158665763 40 503.432617188 c 0xd0
 40 668.137081971 152 730.9921875 293.888671875 730.9921875 c 2
 591.888671875 730.9921875 l 1
 591.888671875 -179.994140625 l 1
 507.888671875 -179.994140625 l 1
 507.888671875 654.9921875 l 1
 393.888671875 654.9921875 l 1
 393.888671875 -179.994140625 l 1xb0
EndSplineSet
EndChar

StartChar: ordfeminine
Encoding: 170 170 122
Width: 402
Flags: W
HStem: 369.992 57.4<114.553 239.656 331.972 380.642> 543.392 50<128.251 276.6> 679.992 59<92.2511 240.033>
VStem: 34 70.8<438.755 521.525> 260.6 67.4<444.27 486.992 590.992 657.949> 260.6 31.4<414.312 480.792> 260.6 16<543.392 593.392>
LayerCount: 2
Fore
SplineSet
260.6 494.9921875 m 1xf2
 260.6 454.117768895 224.911111111 427.3921875 173 427.3921875 c 0
 124.760975609 427.3921875 104.8 447.753477822 104.8 479.9921875 c 0
 104.8 529.269792822 146.545794392 543.3921875 276.6 543.3921875 c 1
 276.6 593.3921875 l 1xf2
 135.173991031 593.3921875 34 574.815916313 34 475.9921875 c 0
 34 411.9921875 80 369.9921875 154 369.9921875 c 0
 247.796875 369.9921875 292 414.3121875 292 480.7921875 c 1xf4
 260.6 494.9921875 l 1xf2
260.6 590.9921875 m 2xf8
 260.6 459.9921875 l 2
 260.6 398.9921875 285.004255319 369.9921875 334.6 369.9921875 c 0
 368.673239437 369.9921875 385 384.5921875 385 384.5921875 c 1
 379 433.5921875 l 1
 379 433.5921875 369.863157895 429.1921875 354.2 429.1921875 c 0
 335.485714286 429.1921875 328 444.270448369 328 486.9921875 c 2
 328 595.9921875 l 2
 328 682.197861259 286.2875 738.9921875 186 738.9921875 c 0
 109.640000001 738.9921875 57.2 707.1921875 57.2 707.1921875 c 1
 79.6 650.5921875 l 1
 79.6 650.5921875 119.075862069 679.9921875 175 679.9921875 c 0
 234.367741935 679.9921875 260.6 652.717993951 260.6 590.9921875 c 2xf8
EndSplineSet
EndChar

StartChar: ordmasculine
Encoding: 186 186 123
Width: 418
Flags: W
HStem: 367.992 64<144.955 273.544> 674.992 64<144.955 273.23>
VStem: 37 70.8<469.802 636.567> 310.2 70.8<469.802 636.567>
LayerCount: 2
Fore
SplineSet
107.8 554.9921875 m 0
 107.8 480.194890202 139.734603175 431.9921875 209 431.9921875 c 0
 279.711111112 431.9921875 310.2 480.194890202 310.2 554.9921875 c 0
 310.2 625.978102993 278.265396825 674.9921875 209 674.9921875 c 0
 139.734603175 674.9921875 107.8 625.978102993 107.8 554.9921875 c 0
37 555.9921875 m 0
 37 667.025895365 102.655913979 738.9921875 209 738.9921875 c 0
 316.268817204 738.9921875 381 667.025895365 381 555.9921875 c 0
 381 441.959400615 316.268817204 367.9921875 209 367.9921875 c 0
 102.655913979 367.9921875 37 441.959400615 37 555.9921875 c 0
EndSplineSet
EndChar

StartChar: arrowleft
Encoding: 8592 8592 124
Width: 550
Flags: W
HStem: 312.44 92.4<177.749 537.749> 320.84 75.6<105.749 465.749>
LayerCount: 2
Fore
SplineSet
537.749023438 312.439648438 m 1x80
 537.749023438 312.439648438 105.749023438 320.839648438 105.749023438 320.839648438 c 1
 105.749023438 320.839648438 105.749023438 396.439648438 105.749023438 396.439648438 c 1x40
 105.749023438 396.439648438 537.749023438 404.839648438 537.749023438 404.839648438 c 1
 537.749023438 312.439648438 l 1x80
113.561523438 358.638671875 m 1
 113.561523438 358.638671875 295.848632812 188.3171875 295.848632812 188.3171875 c 1
 231.310742188 123.779296875 l 1
 12.2509765625 358.638671875 l 1
 231.310742188 593.5 l 1
 295.848632812 528.96015625 l 1
 295.848632812 528.96015625 113.561523438 358.638671875 113.561523438 358.638671875 c 1
EndSplineSet
EndChar

StartChar: product
Encoding: 8719 8719 128
Width: 719
Flags: W
HStem: 646.008 85<166 553>
VStem: 69 97<-179.994 646.008> 553 97<-179.994 646.008>
LayerCount: 2
Fore
SplineSet
650 731.0078125 m 1
 650 -179.994140625 l 1
 553 -179.994140625 l 1
 553 646.0078125 l 1
 166 646.0078125 l 1
 166 -179.994140625 l 1
 69 -179.994140625 l 1
 69 731.0078125 l 1
 650 731.0078125 l 1
EndSplineSet
EndChar

StartChar: summation
Encoding: 8721 8721 129
Width: 634
Flags: W
HStem: -179.994 84.4<169.4 590> 646.608 84.4<186.2 590>
LayerCount: 2
Back
SplineSet
264 585.0078125 m 5
 394 410 l 5
 394 319 l 5
 244 146 l 5
 544 146 l 5
 544 0 l 5
 55 0 l 5
 55 161 l 5
 235 358 l 5
 55 589 l 5
 55 731.0078125 l 5
 544 731.0078125 l 5
 544 585.0078125 l 5
 264 585.0078125 l 5
EndSplineSet
Fore
SplineSet
186.2 646.6078125 m 1
 186.2 646.6078125 416.2 315.6 416.2 315.6 c 1
 416.2 248.6 l 1
 416.2 248.6 169.4 -95.594140625 169.4 -95.594140625 c 1
 169.4 -95.594140625 590 -95.594140625 590 -95.594140625 c 1
 590 -179.994140625 l 1
 69 -179.994140625 l 1
 69 -80.594140625 l 1
 327 278 l 1
 69 650.6 l 1
 69 731.0078125 l 1
 590 731.0078125 l 1
 590 646.6078125 l 1
 590 646.6078125 186.2 646.6078125 186.2 646.6078125 c 1
EndSplineSet
EndChar

StartChar: approxequal
Encoding: 8776 8776 130
Width: 450
VWidth: 999
Flags: W
HStem: 209 71.2<236.234 373.918> 258 70.2<81.7153 208.515> 397.4 71.6<237.034 371.919> 446.4 70.6<81.1857 208.048> 488.6 20G<392.4 407.922>
LayerCount: 2
Fore
SplineSet
434 263 m 1x80
 434 263 382.065429688 209 302 209 c 0x80
 224.461914062 209 198.615234375 258 142 258 c 0
 96.289855072 258 59 218.2 59 218.2 c 1
 16 278.2 l 1
 16 278.2 69.869288589 328.2 140 328.2 c 0x40
 217.73838501 328.2 250.33838501 280.2 303 280.2 c 0
 362.406153847 280.2 392.8 317.4 392.8 317.4 c 1
 434 263 l 1x80
434 455 m 1
 434 455 382.065429688 397.4 302 397.4 c 0x28
 224.461914062 397.4 198.615234375 446.4 142 446.4 c 0
 96.289855072 446.4 59 407.4 59 407.4 c 1
 59 407.4 17.6 467 17.6 467 c 1
 17.6 467 71.469288589 517 141.6 517 c 0x10
 219.33838501 517 251.93838501 469 304.6 469 c 0
 362.683076923 469 392.4 508.6 392.4 508.6 c 1x28
 434 455 l 1
EndSplineSet
EndChar

StartChar: perthousand
Encoding: 8240 8240 131
Width: 1263
Flags: W
HStem: -9.99805 71.3803<655.997 792.423 962.606 1099.03> 0 21G<213 298> 290.472 71.3793<655.997 794.556 960.473 1099.03> 367.143 71.3793<165.971 297.391> 667.612 71.3803<165.971 299.602> 711.008 20G<645.825 743>
VStem: 49 79.2602<476.935 630.25> 336.81 77.1498<476.935 630.25> 540 78.2602<99.7942 253.109> 832.21 91.65<93.9099 260.075> 855 44.96<74.4222 278.624> 1137.81 77.1498<99.7944 253.109>
LayerCount: 2
Fore
SplineSet
923.86015625 176.481445312 m 0xb3d0
 923.86015625 93.9098987335 971.929296875 61.3822265625 1030.68046875 61.3822265625 c 0
 1088.16508154 61.3822265625 1137.81015625 93.9098987335 1137.81015625 176.481445312 c 0
 1137.81015625 260.075468976 1088.16508154 290.472265625 1030.68046875 290.472265625 c 0
 971.929296875 290.472265625 923.86015625 260.075468976 923.86015625 176.481445312 c 0xb3d0
855 176.481445312 m 0xb3b0
 855 278.623614564 921.580392903 361.8515625 1037.48046875 361.8515625 c 0
 1156.24873556 361.8515625 1214.95996094 278.623614564 1214.95996094 176.481445312 c 0
 1214.95996094 74.4221678793 1156.24873556 -9.998046875 1037.48046875 -9.998046875 c 0
 921.580392903 -9.998046875 855 74.4221678793 855 176.481445312 c 0xb3b0
618.26015625 176.481445312 m 0
 618.26015625 93.9095747806 665.968695103 61.3822265625 724.28046875 61.3822265625 c 0
 782.194253696 61.3822265625 832.21015625 93.9095747806 832.21015625 176.481445312 c 0xb3d0
 832.21015625 260.075294912 782.194253696 290.472265625 724.28046875 290.472265625 c 0
 665.968695103 290.472265625 618.26015625 260.075294912 618.26015625 176.481445312 c 0
540 176.481445312 m 0
 540 278.624023438 598.711240969 361.8515625 717.48046875 361.8515625 c 0
 833.379593423 361.8515625 899.959960938 278.623614564 899.959960938 176.481445312 c 0xb3b0
 899.959960938 74.4221678793 833.379593423 -9.998046875 717.48046875 -9.998046875 c 0
 598.711240969 -9.998046875 540 74.4218750004 540 176.481445312 c 0
128.26015625 553.622070312 m 0
 128.26015625 471.050536997 176.708710996 438.521875 231.48046875 438.521875 c 0
 285.999124661 438.521875 336.81015625 471.050536997 336.81015625 553.622070312 c 0
 336.81015625 637.214816188 285.999124661 667.611914062 231.48046875 667.611914062 c 0x3b90
 176.708710996 667.611914062 128.26015625 637.214816188 128.26015625 553.622070312 c 0
49 553.622070312 m 0
 49 655.764648438 115.580582433 738.9921875 231.48046875 738.9921875 c 0
 347.379386147 738.9921875 413.959960938 655.764648438 413.959960938 553.622070312 c 0
 413.959960938 451.5625 347.379386147 367.142578125 231.48046875 367.142578125 c 0
 115.580582433 367.142578125 49 451.5625 49 553.622070312 c 0
EndSplineSet
Refer: 138 8260 N 1 0 0 1 301 0 2
EndChar

StartChar: uni2031
Encoding: 8241 8241 132
Width: 1573
Flags: W
HStem: -9.99805 71.3803<655.997 792.423 964.625 1102.63 1272.61 1409.03> 0 21G<213 298> 290.472 71.3793<655.997 794.556 962.402 1102.63 1270.47 1409.03> 367.143 71.3793<165.89 297.473> 667.612 71.3803<165.89 299.683> 711.008 20G<645.825 743>
VStem: 49 79.2602<476.935 630.25> 336.81 77.1498<476.935 630.25> 540 78.2602<99.7942 253.109> 832.21 93.45<93.9099 260.075> 852.4 47.56<74.4222 278.624> 1140.41 93.45<93.9099 260.075> 1165 47.56<74.4222 278.624> 1447.81 77.1498<99.7944 253.109>
LayerCount: 2
Fore
SplineSet
1233.86015625 176.481445312 m 0xb394
 1233.86015625 93.9098987335 1281.92929688 61.3822265625 1340.68046875 61.3822265625 c 0
 1398.16508154 61.3822265625 1447.81015625 93.9098987335 1447.81015625 176.481445312 c 0
 1447.81015625 260.075468976 1398.16508154 290.472265625 1340.68046875 290.472265625 c 0
 1281.92929688 290.472265625 1233.86015625 260.075468976 1233.86015625 176.481445312 c 0xb394
1165 176.481445312 m 0xb38c
 1165 278.623614564 1231.58039289 361.8515625 1347.48046875 361.8515625 c 0
 1466.24873556 361.8515625 1524.95996094 278.623614564 1524.95996094 176.481445312 c 0
 1524.95996094 74.4221678793 1466.24873556 -9.998046875 1347.48046875 -9.998046875 c 0
 1231.58039289 -9.998046875 1165 74.4221678793 1165 176.481445312 c 0xb38c
925.66015625 176.481445312 m 0xb3d4
 925.66015625 93.9098987335 973.729296875 61.3822265625 1032.48046875 61.3822265625 c 0
 1090.39435275 61.3822265625 1140.41015625 93.9098987335 1140.41015625 176.481445312 c 0
 1140.41015625 260.075468976 1090.39435275 290.472265625 1032.48046875 290.472265625 c 0
 973.729296875 290.472265625 925.66015625 260.075468976 925.66015625 176.481445312 c 0xb3d4
852.4 176.481445312 m 0xb3ac
 852.4 278.623614564 911.971331251 361.8515625 1032.48046875 361.8515625 c 0
 1152.98864078 361.8515625 1212.55996094 278.623614564 1212.55996094 176.481445312 c 0
 1212.55996094 74.4221678793 1152.98864078 -9.998046875 1032.48046875 -9.998046875 c 0
 911.971331251 -9.998046875 852.4 74.4221678793 852.4 176.481445312 c 0xb3ac
618.26015625 176.481445312 m 0
 618.26015625 93.9095747806 665.968695103 61.3822265625 724.28046875 61.3822265625 c 0
 782.194253696 61.3822265625 832.21015625 93.9095747806 832.21015625 176.481445312 c 0xb3c4
 832.21015625 260.075294912 782.194253696 290.472265625 724.28046875 290.472265625 c 0
 665.968695103 290.472265625 618.26015625 260.075294912 618.26015625 176.481445312 c 0
540 176.481445312 m 0
 540 278.624023438 598.711240969 361.8515625 717.48046875 361.8515625 c 0
 833.379593423 361.8515625 899.959960938 278.623614564 899.959960938 176.481445312 c 0xb3a4
 899.959960938 74.4221678793 833.379593423 -9.998046875 717.48046875 -9.998046875 c 0
 598.711240969 -9.998046875 540 74.4218750004 540 176.481445312 c 0
128.26015625 553.622070312 m 0
 128.26015625 471.050536997 176.308710996 438.521875 231.48046875 438.521875 c 0
 286.399124661 438.521875 336.81015625 471.050536997 336.81015625 553.622070312 c 0
 336.81015625 637.214816188 286.399124661 667.611914062 231.48046875 667.611914062 c 0x3b84
 176.308710996 667.611914062 128.26015625 637.214816188 128.26015625 553.622070312 c 0
49 553.622070312 m 0
 49 655.764648438 115.580582433 738.9921875 231.48046875 738.9921875 c 0
 347.379386147 738.9921875 413.959960938 655.764648438 413.959960938 553.622070312 c 0
 413.959960938 451.5625 347.379386147 367.142578125 231.48046875 367.142578125 c 0
 115.580582433 367.142578125 49 451.5625 49 553.622070312 c 0
EndSplineSet
Refer: 138 8260 N 1 0 0 1 301 0 2
EndChar

StartChar: uni203D
Encoding: 8253 8253 133
Width: 566
Flags: W
HStem: -10 122.449<190.18 285.82> 292 77.2488<249.284 363.926> 655.429 83.5637<121.353 348.496>
VStem: 177.387 121.227<2.04656 100.402> 193.6 90.8<452.087 791.008> 205.6 66.8<210 548.921> 426.096 91.7744<426.587 584.957>
LayerCount: 2
Fore
SplineSet
205.6 210 m 1xe6
 193.6 791.0078125 l 1
 284.4 791.0078125 l 1xea
 272.4 210 l 1
 205.6 210 l 1xe6
177.38671875 51.224609375 m 0xf2
 177.38671875 88.3151963037 201.278838472 112.44921875 237.999023438 112.44921875 c 0
 274.720256378 112.44921875 298.61328125 88.3151963037 298.61328125 51.224609375 c 0
 298.61328125 14.1333810959 274.720256378 -10 237.999023438 -10 c 0
 201.278838472 -10 177.38671875 14.1333810959 177.38671875 51.224609375 c 0xf2
216.422851562 305 m 1
 228.15625 376.06875 l 1
 228.15625 376.06875 246.884745212 369.248828125 270.3984375 369.248828125 c 0
 366.416167061 369.248828125 426.095703125 415.99338752 426.095703125 503.145507812 c 0
 426.095703125 608.759332144 353.261616322 655.428515625 232.69453125 655.428515625 c 0
 132.687993511 655.428515625 56.923828125 601.958007812 56.923828125 601.958007812 c 1
 24.2412109375 685.311523438 l 1
 24.2412109375 685.311523438 103.4703125 738.9921875 233.89453125 738.9921875 c 0
 404.214863485 738.9921875 517.870117188 661.327703299 517.870117188 505.010742188 c 0
 517.870117188 357.985517121 394.495766264 292 286 292 c 0
 240.442550417 292 216.422851562 305 216.422851562 305 c 1
EndSplineSet
EndChar

StartChar: lira
Encoding: 8356 8356 134
Width: 553
Flags: W
HStem: 0 83.8<148.319 523> 223 70<60 424> 353 70<60 424> 653.621 85.8408<223.201 437.884>
VStem: 73.3516 101.979<443.05 607.939> 150.824 89.6572<199.477 351.412>
LayerCount: 2
Fore
SplineSet
523 0 m 1xf4
 30 0 l 1
 30 79.8 l 1
 30 79.8 150.82421875 165.634453634 150.82421875 289.379882812 c 0xf4
 150.82421875 391.588284089 73.3515625 418.16779209 73.3515625 547.185546875 c 0
 73.3515625 671.398535433 170.409213925 739.461914062 308.80859375 739.461914062 c 0
 438.1704466 739.461914062 495.95703125 698.605273438 495.95703125 698.605273438 c 1
 474.9375 616.024414062 l 1
 474.9375 616.024414062 403.849332154 653.62109375 325.80859375 653.62109375 c 0
 242.477164638 653.62109375 175.330078125 631.818116456 175.330078125 532.414648437 c 0xf8
 175.330078125 432.530193156 240.481445312 407.787865231 240.481445312 290.158203125 c 0
 240.481445312 162.289105693 148.319335938 83.8 148.319335938 83.8 c 1
 523 83.8 l 1
 523 0 l 1xf4
424 223 m 1
 60 223 l 1
 60 293 l 1
 424 293 l 1
 424 223 l 1
424 353 m 1
 60 353 l 1
 60 423 l 1
 424 423 l 1
 424 353 l 1
EndSplineSet
EndChar

StartChar: uni20B5
Encoding: 8373 8373 135
Width: 623
Flags: W
HStem: -9.99805 51.4678<335 414> 683 56.1211<335 414>
VStem: 49 101.649<224.621 504.901> 335 79<-105 41.4697 683 829.47>
LayerCount: 2
Fore
SplineSet
49 364.561523438 m 0
 49 591.206054688 171.022018989 739.12109375 385.888671875 739.12109375 c 0
 534.563152189 739.12109375 595.681640625 672.891601562 595.681640625 672.891601562 c 1
 555.55546875 600.738671875 l 1
 555.55546875 600.738671875 500.770029314 653.859179688 389.688671875 653.859179688 c 0
 222.240222167 653.859179688 150.648632812 538.039880384 150.648632812 364.561523438 c 0
 150.648632812 192.042612115 222.719416127 76.8638671878 391.288671875 76.8638671878 c 0
 508.132885998 76.8638671878 570.018554688 122.195703125 570.018554688 122.195703125 c 1
 598.827148438 44.595703125 l 1
 598.827148438 44.595703125 533.783165439 -9.998046875 385.888671875 -9.998046875 c 0
 171.022018989 -9.998046875 49 137.916992188 49 364.561523438 c 0
335 -105 m 1
 335 41.4697265625 l 1
 414 41.4697265625 l 1
 414 -105 l 1
 335 -105 l 1
335 683 m 1
 335 829.469726562 l 1
 414 829.469726562 l 1
 414 683 l 1
 335 683 l 1
EndSplineSet
EndChar

StartChar: uni20B2
Encoding: 8370 8370 136
Width: 739
Flags: W
HStem: -9.99805 56.6678<335 414> 309 81.8<386 524.419 612.827 704> 309 27.5957<524.419 612.827> 677 62.1211<335 414>
VStem: 49 101.649<216.977 501.071> 335 79<-105 46.6697 677 829.47> 551.281 91.201<145.441 308.275>
LayerCount: 2
Fore
SplineSet
335 -105 m 1x9e
 335 46.6697265625 l 1
 414 46.6697265625 l 1
 414 -105 l 1
 335 -105 l 1x9e
335 677 m 1
 335 829.469726562 l 1
 414 829.469726562 l 1
 414 677 l 1
 335 677 l 1
704 309 m 1xde
 386 309 l 1
 386 390.8 l 1
 704 390.8 l 1
 704 309 l 1xde
49 364.561523438 m 0
 49 591.206054688 173.823530317 739.12109375 378.888671875 739.12109375 c 0
 525.436887286 739.12109375 585.681640625 672.891601562 585.681640625 672.891601562 c 1
 551.35546875 598.938671875 l 1
 551.35546875 598.938671875 496.503993212 650.859179688 385.288671875 650.859179688 c 0
 225.635634319 650.859179688 150.648632812 536.240919834 150.648632812 364.561523438 c 0
 150.648632812 191.562889301 214.110727972 76.0638671878 369.888671875 76.0638671878 c 0
 499.436249732 76.0638671878 551.281445312 137.455508668 551.281445312 229.6 c 0
 551.281445312 304.433115788 524.418554688 336.595703125 524.418554688 336.595703125 c 1
 612.827148438 336.595703125 l 1xbe
 612.827148438 336.595703125 642.482421875 309.754522021 642.482421875 222 c 0
 642.482421875 93.0859042083 554.752165315 -9.998046875 369.888671875 -9.998046875 c 0
 165.498477481 -9.998046875 49 137.916992188 49 364.561523438 c 0
EndSplineSet
EndChar

StartChar: uni20BA
Encoding: 8378 8378 137
Width: 648
Flags: W
HStem: 0 87<206 400.417> 711.008 20G<109 206>
VStem: 109 97<87 731.008>
LayerCount: 2
Fore
SplineSet
360 357.2 m 1
 44 257.2 l 1
 44 328.8 l 1
 360 428.8 l 1
 360 357.2 l 1
360 487.2 m 1
 44 387.2 l 1
 44 458.8 l 1
 360 558.8 l 1
 360 487.2 l 1
206 87 m 1
 300 87 l 2
 516.043478261 87 518.8 299 518.8 299 c 1
 615 286 l 1
 615 286 604.808268735 -3.56437102056e-14 300 0 c 2
 109 0 l 1
 109 731.0078125 l 1
 206 731.0078125 l 1
 206 87 l 1
EndSplineSet
EndChar

StartChar: fraction
Encoding: 8260 8260 138
Width: 304
Flags: W
HStem: 0 21G<-88 -3> 711.008 20G<344.825 442>
LayerCount: 2
Fore
SplineSet
-88 0 m 1
 357 731.0078125 l 1
 442 731.0078125 l 1
 442 731.0078125 -3 0 -3 0 c 1
 -3 0 -88 0 -88 0 c 1
EndSplineSet
EndChar

StartChar: endash
Encoding: 8211 8211 139
Width: 570
Flags: W
HStem: 240 79<44 526>
LayerCount: 2
Fore
SplineSet
44 240 m 1
 44 319 l 1
 526 319 l 1
 526 240 l 1
 44 240 l 1
EndSplineSet
EndChar

StartChar: emdash
Encoding: 8212 8212 140
Width: 820
Flags: W
HStem: 240 79<24 796>
LayerCount: 2
Fore
SplineSet
24 240 m 1
 24 319 l 1
 796 319 l 1
 796 240 l 1
 24 240 l 1
EndSplineSet
EndChar

StartChar: Euro
Encoding: 8364 8364 141
Width: 683
Flags: W
HStem: -9.99805 85.2619<349.178 583.11> 268 70<40 433.757> 398 70<40 460.679> 655.459 83.6619<342.353 561.981>
VStem: 109 99.6486<285.185 452.617>
LayerCount: 2
Fore
SplineSet
433.75703125 268 m 1
 40 268 l 1
 40 338 l 1
 448.92109375 338 l 1
 433.75703125 268 l 1
460.67890625 398 m 1
 40 398 l 1
 40 468 l 1
 475.84296875 468 l 1
 460.67890625 398 l 1
109 364.561523438 m 0
 109 591.206054688 231.021937669 739.12109375 445.888671875 739.12109375 c 0
 594.562778582 739.12109375 655.681640625 672.891601562 655.681640625 672.891601562 c 1
 615.55546875 602.338671875 l 1
 615.55546875 602.338671875 561.033714477 655.459179688 450.488671875 655.459179688 c 0
 281.07842339 655.459179688 208.648632812 538.999326011 208.648632812 364.561523438 c 0
 208.648632812 191.083166488 283.833773894 75.2638671878 459.688671875 75.2638671878 c 0
 571.041150863 75.2638671878 630.018554688 120.595703125 630.018554688 120.595703125 c 1
 658.827148438 44.595703125 l 1
 658.827148438 44.595703125 593.783356025 -9.998046875 445.888671875 -9.998046875 c 0
 231.021937669 -9.998046875 109 137.916992188 109 364.561523438 c 0
EndSplineSet
EndChar

StartChar: uni20AD
Encoding: 8365 8365 142
Width: 665
Flags: W
HStem: 0 21G<105 202 499.736 641> 315.8 79.4<24 600> 711.008 20G<105 202 497.886 631>
VStem: 105 97<0 731.008>
LayerCount: 2
Fore
SplineSet
600 315.8 m 1
 24 315.8 l 1
 24 395.2 l 1
 600 395.2 l 1
 600 315.8 l 1
517.2 0 m 1
 236.2 321.8 l 1
 236.2 390.2 l 1
 514.2 731.0078125 l 1
 631 731.0078125 l 1
 321 367.6 l 1
 641 0 l 1
 517.2 0 l 1
105 0 m 1
 105 731.0078125 l 1
 202 731.0078125 l 1
 202 0 l 1
 105 0 l 1
EndSplineSet
EndChar

StartChar: uni20B9
Encoding: 8377 8377 143
Width: 574
Flags: W
HStem: 0 21G<387.883 495> 284 86.9516<44 282.728> 458 70<44 530> 645.049 85.9584<44 292.642>
VStem: 357.929 97.8486<396.304 584.128>
LayerCount: 2
Fore
SplineSet
168 284 m 2
 44 284 l 1
 44 370.9515625 l 1
 166.888671875 371.061914062 l 2
 275.973699879 371.157901699 357.928710938 395.246279599 357.928710938 505.561523438 c 0
 357.928710938 618.884413778 275.760006084 644.857432523 167.888671875 644.945898438 c 2
 44 645.049414062 l 1
 44 731.0078125 l 1
 183.888671875 731.0078125 l 2
 326.745750968 731.0078125 455.77734375 670.424364554 455.77734375 508.561523438 c 0
 455.77734375 364.125881794 327.688476562 329.276367188 327.688476562 329.276367188 c 1
 327.688476562 329.276367188 393.763666721 316.672109776 430.111914062 204.777148437 c 2
 495 0 l 1
 394 0 l 1
 349.3796875 145.89140625 l 2
 313.411466274 257.474681168 292.430526895 284 168 284 c 2
530 458 m 1
 44 458 l 1
 44 528 l 1
 530 528 l 1
 530 458 l 1
EndSplineSet
EndChar

StartChar: uni20B4
Encoding: 8372 8372 144
Width: 677
Flags: W
HStem: -10 86.4619<249.601 491.54> 263 70<44 633> 393 70<44 633> 651.659 87.4619<192.988 419.399>
VStem: 94 94.7816<126.916 259.696> 475.581 97.3115<472.137 601.659>
LayerCount: 2
Fore
SplineSet
633 263 m 1
 44 263 l 1
 44 333 l 1
 633 333 l 1
 633 263 l 1
633 393 m 1
 44 393 l 1
 44 463 l 1
 633 463 l 1
 633 393 l 1
354.743945312 324.85625 m 0
 209.410008477 287.10554222 188.781640625 254.449220728 188.781640625 191.2 c 0
 188.781640625 115.24513885 250.251812775 76.4619140622 368.223242188 76.4619140622 c 0
 472.741355361 76.4619140622 556.546875 125.582421875 556.546875 125.582421875 c 1
 585.703125 42.2294921875 l 1
 585.703125 42.2294921875 493.28260909 -10 346.71484375 -10 c 0
 181.984148816 -10 94 70.4985703477 94 200.6 c 0
 94 307.940785842 150.407306049 361.611953835 312.722460938 407.881054688 c 0
 440.690852961 443.797403558 475.581054688 470.864038524 475.581054688 536.2 c 0
 475.581054688 609.46530978 422.901628333 651.659179688 305.75625 651.659179688 c 0
 212.093740407 651.659179688 148.5484375 609.138671875 148.5484375 609.138671875 c 1
 115.774414062 688.891601562 l 1
 115.774414062 688.891601562 181.709034094 739.12109375 317.286132812 739.12109375 c 0
 476.176225476 739.12109375 572.892578125 656.659008007 572.892578125 528.6 c 0
 572.892578125 427.683846431 517.339012403 367.116387842 354.743945312 324.85625 c 0
EndSplineSet
EndChar

StartChar: colonmonetary
Encoding: 8353 8353 145
Width: 623
Flags: W
HStem: -9.99805 55.4678<335.378 404.378> 655.459 83.6619<323.857 437.615> 679 60.1211<288.622 357.622 438.622 507.622>
VStem: 49 101.649<227.338 509.691> 154.614 69<-105 -71.5146> 304.614 69<-105 -70.762> 319.386 69<795.232 829.47> 357.622 81<679 713.238> 469.386 69<795.232 829.47>
LayerCount: 2
Fore
SplineSet
304.614257812 -105 m 1x9c80
 335.377929688 45.4697265625 l 1
 404.377929688 45.4697265625 l 1
 373.614257812 -105 l 1
 304.614257812 -105 l 1x9c80
438.622070312 679 m 1xb980
 469.385742188 829.469726562 l 1
 538.385742188 829.469726562 l 1
 507.622070312 679 l 1
 438.622070312 679 l 1xb980
49 364.561523438 m 0
 49 591.206054688 171.022018989 739.12109375 385.888671875 739.12109375 c 0
 534.563152189 739.12109375 595.681640625 672.891601562 595.681640625 672.891601562 c 1
 555.55546875 602.338671875 l 1
 555.55546875 602.338671875 500.770029314 655.459179688 389.688671875 655.459179688 c 0xd880
 222.240222167 655.459179688 150.648632812 538.999326011 150.648632812 364.561523438 c 0
 150.648632812 191.083166488 224.995587437 75.2638671878 398.888671875 75.2638671878 c 0
 510.241406995 75.2638671878 569.218554688 122.195703125 569.218554688 122.195703125 c 1
 598.827148438 44.595703125 l 1
 598.827148438 44.595703125 533.783165439 -9.998046875 385.888671875 -9.998046875 c 0
 171.022018989 -9.998046875 49 137.916992188 49 364.561523438 c 0
154.614257812 -105 m 1
 188.577929688 57.4697265625 l 1
 257.577929688 57.4697265625 l 1
 223.614257812 -105 l 1
 154.614257812 -105 l 1
288.622070312 679 m 1xb980
 319.385742188 829.469726562 l 1
 388.385742188 829.469726562 l 1xba80
 357.622070312 679 l 1
 288.622070312 679 l 1xb980
EndSplineSet
EndChar

StartChar: zero.inferior
Encoding: 8320 8320 148
Width: 454
Flags: W
HStem: -358 69.518<161.035 294.965> 73.482 69.518<162.324 293.676>
VStem: 32.268 74.602<-224.502 8.80156> 349.13 74.602<-224.502 8.80156>
LayerCount: 2
Fore
SplineSet
106.87 -108 m 0
 106.87 -216.692 143.04 -288.482 228 -288.482 c 0
 312.96 -288.482 349.13 -216.692 349.13 -108 c 0
 349.13 0.692 312.96 73.482 228 73.482 c 0
 143.04 73.482 106.87 0.692 106.87 -108 c 0
32.268 -108 m 0
 32.268 44 99.958 143 228 143 c 0
 356.042 143 423.732 44 423.732 -108 c 0
 423.732 -260 356.042 -358 228 -358 c 0
 99.958 -358 32.268 -260 32.268 -108 c 0
EndSplineSet
EndChar

StartChar: one.inferior
Encoding: 8321 8321 149
Width: 276
Flags: W
VStem: 151.186 77.954<-350 51.792>
LayerCount: 2
Fore
SplineSet
229.14 137 m 1
 229.14 -350 l 1
 151.186 -350 l 1
 151.186 51.792 l 1
 151.186 51.792 45.676 -2.688 45.676 -2.688 c 1
 45.676 -2.688 19.818 54.732 19.818 54.732 c 1
 162.51 137 l 1
 229.14 137 l 1
EndSplineSet
EndChar

StartChar: two.inferior
Encoding: 8322 8322 150
Width: 404
Flags: W
HStem: -350 67.504<117.32 379.324> 74.44 68.56<100.303 269.967>
VStem: 36.634 80.686<-282.496 -232.945> 296.75 75.306<-59.3575 49.2645>
LayerCount: 2
Fore
SplineSet
296.75 -6.788 m 0
 296.75 39.678 269.538 74.44 190.93 74.44 c 0
 123.042 74.44 74.464 37.792 74.464 37.792 c 1
 47.592 101.972 l 1
 47.592 101.972 106.592 143 193.268 143 c 0
 304.676 143 372.056 93.296 372.056 -5.436 c 0
 372.056 -92.478 317.112 -129.168 233 -170.632 c 0
 127.166 -221.844 117.658 -255.014 117.32 -282.496 c 1
 379.324 -282.496 l 1
 379.324 -350 l 1
 36.634 -350 l 1
 36.634 -314 l 2
 36.634 -215.522 98.662 -160.142 209.662 -103.354 c 0
 266.65 -75.452 296.75 -50.748 296.75 -6.788 c 0
EndSplineSet
EndChar

StartChar: three.inferior
Encoding: 8323 8323 151
Width: 388
Flags: W
HStem: -358 67.518<60.0297 251.229> -133.562 63.124<110.676 250.636> 73.454 69.546<68.9311 247.596>
VStem: 269.722 76.996<-51.4891 49.8316> 279.06 77.996<-263.587 -157.768>
LayerCount: 2
Fore
SplineSet
169.888 -70.438 m 2xe8
 240.636 -70.438 269.722 -47.212 269.722 -0.774 c 0
 269.722 41.312 245.2 73.454 166.282 73.454 c 0
 94.746 73.454 51.464 42.158 51.464 42.158 c 1
 28.31 106.352 l 1
 28.31 106.352 80.31 143 169.972 143 c 0
 280 143 346.718 95.648 346.718 6.62 c 0xf0
 346.718 -78.268 268.872 -100.648 268.872 -100.648 c 1
 268.872 -100.648 357.056 -121.056 357.056 -215.944 c 0
 357.056 -316.352 281.704 -358 168 -358 c 0
 71.986 -358 14.634 -323 14.634 -323 c 1
 37.112 -256.792 l 1
 37.112 -256.792 85.07 -290.482 163.268 -290.482 c 0
 242.58 -290.482 279.06 -261.946 279.06 -211.522 c 0
 279.06 -158.126 241.566 -133.562 170.226 -133.562 c 2
 110.676 -133.562 l 1
 110.676 -70.438 l 1
 169.888 -70.438 l 2xe8
EndSplineSet
EndChar

StartChar: four.inferior
Encoding: 8324 8324 152
Width: 439
Flags: W
HStem: -227.548 64.476<118.152 410.718>
VStem: 261.622 74.602<-350 26.188>
LayerCount: 2
Fore
SplineSet
336.224 137 m 1
 336.224 -350 l 1
 261.622 -350 l 1
 261.622 26.188 l 1
 261.622 26.188 118.152 -163.072 118.152 -163.072 c 1
 118.152 -163.072 410.718 -163.072 410.718 -163.072 c 1
 410.718 -227.548 l 1
 47.958 -227.548 l 1
 47.958 -227.548 32.198 -171.438 32.198 -171.438 c 1
 32.198 -171.438 262.96 137 262.96 137 c 1
 336.224 137 l 1
EndSplineSet
EndChar

StartChar: five.inferior
Encoding: 8325 8325 153
Width: 406
Flags: W
HStem: -357 68.546<65.4007 262.126> -93.406 62.138<134.278 271.397> 70.496 66.504<132.476 341.69>
VStem: 300.116 75.644<-253.578 -121.584>
LayerCount: 2
Fore
SplineSet
183.014 -357 m 0
 80.296 -357 19.268 -323 19.268 -323 c 1
 41.408 -255.778 l 1
 41.408 -255.778 99.394 -288.454 174.366 -288.454 c 0
 263.988 -288.454 300.116 -250.636 300.116 -188.606 c 0
 300.116 -128.9 267.622 -93.406 202.606 -93.406 c 0
 132.646 -93.406 110.068 -142.394 110.068 -142.394 c 1
 46.324 -126.62 l 1
 71.986 137 l 1
 341.69 137 l 1
 341.69 70.496 l 1
 132.476 70.496 l 1
 118.898 -66.904 l 1
 118.898 -66.904 143.448 -31.268 221.422 -31.268 c 0
 318.83 -31.268 375.76 -89.592 375.76 -186.592 c 0
 375.76 -292.634 308.464 -357 183.014 -357 c 0
EndSplineSet
EndChar

StartChar: six.inferior
Encoding: 8326 8326 154
Width: 427
Flags: W
HStem: -358 66.8<149.11 291.214> -93.8 60.448<149.609 292.656> 75.482 67.518<164.358 338.952>
VStem: 32.268 70.954<-94.398 5.73803> 324.144 71.25<-258.961 -125.924>
LayerCount: 2
Fore
SplineSet
116.546 -192 m 0
 116.546 -249.058 149.322 -291.2 220.662 -291.2 c 0
 292.988 -291.2 324.144 -249.058 324.144 -192 c 0
 324.144 -134.942 293.96 -93.8 220.662 -93.8 c 0
 149.322 -93.8 116.546 -134.942 116.546 -192 c 0
103.222 -94.398 m 1
 103.222 -94.398 127.954 -33.352 231.746 -33.352 c 0
 332.38 -33.352 395.394 -97.676 395.394 -191 c 0
 395.394 -298 328.704 -358 221 -358 c 0
 100.352 -358 32.268 -285 32.268 -107 c 0
 32.268 54 106.31 143 239.028 143 c 0
 333.422 143 380.788 103.296 380.788 103.296 c 1
 355.944 43.806 l 1
 355.944 43.806 316.31 75.482 243.394 75.482 c 0
 153.716 75.482 106.264 22.678 103.222 -94.398 c 1
EndSplineSet
EndChar

StartChar: seven.inferior
Encoding: 8327 8327 155
Width: 402
Flags: W
HStem: 69.496 67.504<33.338 283.638>
VStem: 124.002 77.968<-350 -212.311>
LayerCount: 2
Fore
SplineSet
201.97 -350 m 1
 124.002 -350 l 1
 131.988 -110.194 283.638 69.496 283.638 69.496 c 1
 33.338 69.496 l 1
 33.338 137 l 1
 369.662 137 l 1
 369.662 80.608 l 1
 369.662 80.608 204.294 -102.956 201.97 -350 c 1
EndSplineSet
EndChar

StartChar: eight.inferior
Encoding: 8328 8328 156
Width: 441
Flags: W
HStem: -358 64.138<137.63 304.985> -125.238 58.476<162.646 281.636> -109.056 31.154<113.62 331> 77.862 65.138<148.131 295.913>
VStem: 32.268 73.278<-264.37 -155.837> 55.93 70.588<-42.9869 55.2511> 319.088 70.588<-42.9869 54.622> 337.06 73.278<-264.37 -155.837>
LayerCount: 2
Fore
SplineSet
221.296 -66.762 m 0xd6
 281.636 -66.762 319.088 -39.226 319.088 4.578 c 0
 319.088 51.002 282.96 77.862 220.972 77.862 c 0
 160.984 77.862 126.518 51.002 126.518 4.578 c 0
 126.518 -39.226 162.646 -66.762 221.296 -66.762 c 0xd6
220.972 143 m 0
 326 143 389.676 93.324 389.676 12 c 0
 389.676 -64.76 331 -109.056 220.972 -109.056 c 0xb6
 113.62 -109.056 55.93 -64.76 55.93 12 c 0
 55.93 93.324 117.944 143 220.972 143 c 0
221.31 -293.862 m 0
 294.002 -293.862 337.06 -263.65 337.06 -208.874 c 0
 337.06 -157.436 294.002 -125.238 221.31 -125.238 c 0
 148.618 -125.238 105.546 -157.436 105.546 -208.874 c 0xd9
 105.546 -263.65 148.618 -293.862 221.31 -293.862 c 0
221.31 -77.902 m 0xb9
 343 -77.902 410.338 -127.24 410.338 -215.24 c 0
 410.338 -301.972 336 -358 221.31 -358 c 0
 106.62 -358 32.268 -301.972 32.268 -215.24 c 0
 32.268 -127.24 99.62 -77.902 221.31 -77.902 c 0xb9
EndSplineSet
EndChar

StartChar: nine.inferior
Encoding: 8329 8329 157
Width: 426
Flags: W
HStem: -358 67.518<86.1402 261.981> -182.324 60.772<135.093 278.239> 75.524 67.476<136.541 278.198>
VStem: 32.268 72.264<-87.9666 43.6126> 321.75 72.982<-220.738 -120.588>
LayerCount: 2
Fore
SplineSet
310.82 -23 m 0
 310.82 34.058 278.368 75.524 207.352 75.524 c 0
 135.35 75.524 104.532 34.058 104.532 -23 c 0
 104.532 -79.734 134.378 -121.552 207.352 -121.552 c 0
 278.368 -121.552 310.82 -79.734 310.82 -23 c 0
321.75 -120.588 m 1
 321.75 -120.588 297.018 -182.324 195.254 -182.324 c 0
 94.62 -182.324 32.268 -117.324 32.268 -23.662 c 0
 32.268 83.338 98.296 143 206 143 c 0
 326.648 143 394.732 70 394.732 -108 c 0
 394.732 -269 320.366 -358 187.972 -358 c 0
 93.578 -358 46.212 -318.62 46.212 -318.62 c 1
 69.366 -258.792 l 1
 69.366 -258.792 109.662 -290.482 183.606 -290.482 c 0
 271.932 -290.482 318.708 -237.664 321.75 -120.588 c 1
EndSplineSet
EndChar

StartChar: zero.superior
Encoding: 8304 8304 158
Width: 455
Flags: W
HStem: 342 69.518<161.035 295.079> 773.482 69.518<162.324 293.783>
VStem: 32.268 74.602<475.498 708.802> 349.792 74.602<477.151 707.137>
LayerCount: 2
Fore
SplineSet
106.87 592 m 0
 106.87 483.308 143.04 411.518 228 411.518 c 0
 312.96 411.518 349.792 483.308 349.792 592 c 0
 349.792 700.692 312.96 773.482 228 773.482 c 0
 143.04 773.482 106.87 700.692 106.87 592 c 0
32.268 592 m 0
 32.268 744 99.958 843 228 843 c 0
 356.042 843 424.394 744 424.394 592 c 0
 424.394 440 356.042 342 228 342 c 0
 99.958 342 32.268 440 32.268 592 c 0
EndSplineSet
EndChar

StartChar: one.superior
Encoding: 185 185 159
Width: 276
Flags: W
VStem: 151.186 77.954<350 751.792>
LayerCount: 2
Fore
SplineSet
229.14 837 m 1
 229.14 350 l 1
 151.186 350 l 1
 151.186 751.792 l 1
 45.676 697.312 l 1
 19.818 754.732 l 1
 162.51 837 l 1
 229.14 837 l 1
EndSplineSet
EndChar

StartChar: two.superior
Encoding: 178 178 160
Width: 404
Flags: W
HStem: 350 67.504<117.32 379.324> 737.792 21G<66.0457 74.464> 774.44 68.56<100.371 270.055>
VStem: 36.634 80.686<417.504 467.055> 296.75 75.306<640.642 749.265>
LayerCount: 2
Fore
SplineSet
296.75 693.212 m 0
 296.75 739.678 269.876 774.44 191.268 774.44 c 0
 123.38 774.44 74.464 737.792 74.464 737.792 c 1
 47.592 801.634 l 1
 47.592 801.634 106.592 843 193.268 843 c 0
 304.676 843 372.056 793.296 372.056 694.564 c 0
 372.056 607.522 317.112 570.832 233 529.368 c 0
 127.166 478.156 117.658 444.986 117.32 417.504 c 1
 379.324 417.504 l 1
 379.324 350 l 1
 36.634 350 l 1
 36.634 386 l 2
 36.634 484.478 99.338 539.858 210 596.646 c 0
 266.988 624.548 296.75 649.252 296.75 693.212 c 0
EndSplineSet
EndChar

StartChar: three.superior
Encoding: 179 179 161
Width: 388
Flags: W
HStem: 342 67.518<60.0297 251.229> 566.438 63.124<110.676 250.636> 773.454 69.546<68.3756 247.82>
VStem: 269.722 76.996<648.511 749.832> 279.06 77.996<436.568 542.374>
LayerCount: 2
Fore
SplineSet
169.888 629.562 m 2xe8
 240.636 629.562 269.722 652.788 269.722 699.226 c 0
 269.722 741.312 245.2 773.454 166.282 773.454 c 0
 94.746 773.454 51.464 742.144 51.464 742.144 c 1
 28.31 806.014 l 1
 28.31 806.014 80.31 843 169.972 843 c 0
 280 843 346.718 795.648 346.718 706.62 c 0xf0
 346.718 621.732 268.872 599.352 268.872 599.352 c 1
 268.872 599.352 357.056 579.282 357.056 484.394 c 0
 357.056 383.986 281.704 342 168 342 c 0
 71.986 342 14.634 376.324 14.634 376.324 c 1
 37.112 443.532 l 1
 37.112 443.532 85.07 409.518 163.268 409.518 c 0
 242.58 409.518 279.06 438.054 279.06 488.478 c 0
 279.06 541.874 241.566 566.438 170.226 566.438 c 2
 110.676 566.438 l 1
 110.676 629.562 l 1
 169.888 629.562 l 2xe8
EndSplineSet
EndChar

StartChar: four.superior
Encoding: 8308 8308 162
Width: 439
Flags: W
HStem: 472.452 64.476<118.152 410.718>
VStem: 261.622 74.602<350 725.174>
LayerCount: 2
Fore
SplineSet
336.224 837 m 1
 336.224 350 l 1
 261.622 350 l 1
 261.622 725.174 l 1
 261.622 725.174 118.152 536.928 118.152 536.928 c 1
 118.152 536.928 410.718 536.928 410.718 536.928 c 1
 410.718 472.452 l 1
 47.958 472.452 l 1
 47.958 472.452 32.198 528.562 32.198 528.562 c 1
 32.198 528.562 262.96 837 262.96 837 c 1
 336.224 837 l 1
EndSplineSet
EndChar

StartChar: five.superior
Encoding: 8309 8309 163
Width: 406
Flags: W
HStem: 343 68.546<65.4007 262.126> 606.594 62.138<134.278 271.397> 770.496 66.504<132.476 341.69>
VStem: 300.116 75.644<446.422 578.416>
LayerCount: 2
Fore
SplineSet
183.014 343 m 0
 80.296 343 19.268 377 19.268 377 c 1
 41.408 444.222 l 1
 41.408 444.222 99.394 411.546 174.366 411.546 c 0
 263.988 411.546 300.116 449.364 300.116 511.394 c 0
 300.116 571.1 267.622 606.594 202.606 606.594 c 0
 132.646 606.594 110.068 557.606 110.068 557.606 c 1
 46.324 573.38 l 1
 71.986 837 l 1
 341.69 837 l 1
 341.69 770.496 l 1
 132.476 770.496 l 1
 118.898 633.096 l 1
 118.898 633.096 143.448 668.732 221.422 668.732 c 0
 318.83 668.732 375.76 610.408 375.76 513.408 c 0
 375.76 407.366 308.464 343 183.014 343 c 0
EndSplineSet
EndChar

StartChar: six.superior
Encoding: 8310 8310 164
Width: 427
Flags: W
HStem: 342 66.8<149.11 291.214> 606.2 60.448<149.609 292.656> 775.482 67.518<164.358 338.952>
VStem: 32.268 70.954<604.926 705.738> 324.144 71.25<441.039 574.076>
LayerCount: 2
Fore
SplineSet
116.546 508 m 0
 116.546 450.942 149.322 408.8 220.662 408.8 c 0
 292.988 408.8 324.144 450.942 324.144 508 c 0
 324.144 565.058 293.96 606.2 220.662 606.2 c 0
 149.322 606.2 116.546 565.058 116.546 508 c 0
103.222 604.926 m 1
 103.222 604.926 127.954 666.648 231.746 666.648 c 0
 332.38 666.648 395.394 602.324 395.394 509 c 0
 395.394 402 328.704 342 221 342 c 0
 100.352 342 32.268 415 32.268 593 c 0
 32.268 754 106.31 843 239.028 843 c 0
 333.422 843 380.788 803.296 380.788 803.296 c 1
 355.944 743.792 l 1
 355.944 743.792 316.31 775.482 243.394 775.482 c 0
 153.716 775.482 106.264 722.34 103.222 604.926 c 1
EndSplineSet
EndChar

StartChar: seven.superior
Encoding: 8311 8311 165
Width: 402
Flags: W
HStem: 769.496 67.504<33.338 283.638>
VStem: 124.002 77.968<350 487.689>
LayerCount: 2
Fore
SplineSet
201.97 350 m 1
 124.002 350 l 1
 131.988 589.806 283.638 769.496 283.638 769.496 c 1
 33.338 769.496 l 1
 33.338 837 l 1
 369.662 837 l 1
 369.662 780.27 l 1
 369.662 780.27 204.294 597.044 201.97 350 c 1
EndSplineSet
EndChar

StartChar: eight.superior
Encoding: 8312 8312 166
Width: 443
Flags: W
HStem: 342 64.138<138.167 306.477> 574.762 58.476<162.984 283.326> 590.944 31.154<113.958 332.69> 777.862 65.138<148.575 297.556>
VStem: 32.268 73.278<436.414 543.383> 55.93 70.588<657.013 754.622> 321.116 70.588<657.013 754.622> 339.088 73.278<436.414 543.383>
LayerCount: 2
Fore
SplineSet
222.31 633.238 m 0xd6
 283.326 633.238 321.116 660.774 321.116 704.578 c 0
 321.116 751.002 284.65 777.862 221.986 777.862 c 0
 161.66 777.862 126.518 751.002 126.518 704.578 c 0
 126.518 660.774 162.984 633.238 222.31 633.238 c 0xd6
221.986 843 m 0
 327.69 843 391.704 793.324 391.704 712 c 0
 391.704 635.24 332.69 590.944 221.986 590.944 c 0xb6
 113.958 590.944 55.93 635.24 55.93 712 c 0
 55.93 793.324 118.282 843 221.986 843 c 0
222.324 406.138 m 0
 295.354 406.138 339.088 436.35 339.088 491.126 c 0
 339.088 542.564 295.354 574.762 222.324 574.762 c 0
 149.294 574.762 105.546 542.564 105.546 491.126 c 0xd9
 105.546 436.35 149.294 406.138 222.324 406.138 c 0
222.324 622.098 m 0xb9
 344.69 622.098 412.366 572.76 412.366 484.76 c 0
 412.366 398.028 337.352 342 222.324 342 c 0
 107.296 342 32.268 398.028 32.268 484.76 c 0
 32.268 572.76 99.958 622.098 222.324 622.098 c 0xb9
EndSplineSet
EndChar

StartChar: nine.superior
Encoding: 8313 8313 167
Width: 426
Flags: W
HStem: 342 67.518<86.1402 261.981> 517.676 60.772<135.093 278.239> 775.524 67.476<136.541 278.198>
VStem: 32.268 72.264<612.033 743.613> 321.75 72.982<479.262 580.074>
LayerCount: 2
Fore
SplineSet
310.82 677 m 0
 310.82 734.058 278.368 775.524 207.352 775.524 c 0
 135.35 775.524 104.532 734.058 104.532 677 c 0
 104.532 620.266 134.378 578.448 207.352 578.448 c 0
 278.368 578.448 310.82 620.266 310.82 677 c 0
321.75 580.074 m 1
 321.75 580.074 297.018 517.676 195.254 517.676 c 0
 94.62 517.676 32.268 582.676 32.268 676.338 c 0
 32.268 783.338 98.296 843 206 843 c 0
 326.648 843 394.732 770 394.732 592 c 0
 394.732 431 320.366 342 187.972 342 c 0
 93.578 342 46.212 381.704 46.212 381.704 c 1
 69.366 441.532 l 1
 69.366 441.532 109.662 409.518 183.606 409.518 c 0
 271.932 409.518 318.708 462.998 321.75 580.074 c 1
EndSplineSet
EndChar

StartChar: circumflex
Encoding: 710 710 168
Width: 362
Flags: W
HStem: 520 211.008
VStem: 25 312
LayerCount: 2
Fore
SplineSet
283 520 m 1
 181 647.432617188 l 1
 79 520 l 1
 25 546 l 1
 139 731.0078125 l 1
 223 731.0078125 l 1
 337 546 l 1
 283 520 l 1
EndSplineSet
EndChar

StartChar: caron
Encoding: 711 711 169
Width: 362
Flags: W
HStem: 530 211.008
VStem: 25 312
LayerCount: 2
Fore
SplineSet
79 741.0078125 m 1
 181 613.575195312 l 1
 283 741.0078125 l 1
 337 715.0078125 l 1
 223 530 l 1
 139 530 l 1
 25 715.0078125 l 1
 79 741.0078125 l 1
EndSplineSet
EndChar

StartChar: breve
Encoding: 728 728 170
Width: 322
VWidth: 999
Flags: W
HStem: 614.937 70.9375<88.4398 234.381> 715 20G<30.4838 62.9434 259.877 292.336>
VStem: 9 304.82
LayerCount: 2
Fore
SplineSet
161.41015625 614.936523438 m 0
 54.6552938024 614.936523438 9 701.762695312 9 701.762695312 c 1
 62.943359375 735 l 1
 62.943359375 735 84.7069881031 685.874023438 161.41015625 685.874023438 c 0
 238.113324397 685.874023438 259.876953125 735 259.876953125 735 c 1
 313.8203125 701.762695312 l 1
 313.8203125 701.762695312 268.165018698 614.936523438 161.41015625 614.936523438 c 0
EndSplineSet
EndChar

StartChar: dotaccent
Encoding: 729 729 171
Width: 248
Flags: W
HStem: 616.543 122.449<76.6794 172.32>
VStem: 63.8867 121.227<628.589 726.946>
LayerCount: 2
Fore
SplineSet
63.88671875 677.767578125 m 0
 63.88671875 714.858436361 87.7785436737 738.9921875 124.499023438 738.9921875 c 0
 161.220545073 738.9921875 185.11328125 714.858436361 185.11328125 677.767578125 c 0
 185.11328125 640.676049786 161.220545073 616.54296875 124.499023438 616.54296875 c 0
 87.7785436734 616.54296875 63.88671875 640.676049786 63.88671875 677.767578125 c 0
EndSplineSet
EndChar

StartChar: tilde
Encoding: 732 732 172
Width: 371
VWidth: 999
Flags: W
HStem: 626.364 76.9375<199.061 321.914> 674.934 76.0684<53.2121 172.447> 712.364 20G<329.657 342.319>
LayerCount: 2
Fore
SplineSet
366.400390625 674.326953125 m 1xa0
 366.400390625 674.326953125 326.003559816 626.364257812 263.725585938 626.364257812 c 0xa0
 183.958142703 626.364257812 167.656109487 674.93359375 109.413085938 674.93359375 c 0
 70.3424429844 674.93359375 38.46875 641.395507812 38.46875 641.395507812 c 1
 5 708.876953125 l 1
 5 708.876953125 49.6052245179 751.001953125 107.67578125 751.001953125 c 0x40
 186.1769461 751.001953125 208.809214816 703.301757812 261.98828125 703.301757812 c 0
 306.752825817 703.301757812 329.65703125 732.364257812 329.65703125 732.364257812 c 1
 366.400390625 674.326953125 l 1xa0
EndSplineSet
EndChar

StartChar: hungarumlaut
Encoding: 733 733 173
Width: 412
Flags: W
HStem: 536 205.008
LayerCount: 2
Fore
SplineSet
267 536 m 1
 211 552 l 1
 301 741.0078125 l 1
 387 715.0078125 l 1
 267 536 l 1
77 536 m 1
 21 552 l 1
 111 741.0078125 l 1
 197 715.0078125 l 1
 77 536 l 1
EndSplineSet
EndChar

StartChar: multiply
Encoding: 215 215 174
Width: 450
Flags: W
LayerCount: 2
Fore
SplineSet
418.040039062 500.144335938 m 1
 82.8556640625 164.959960938 l 1
 31.9599609375 215.855664062 l 1
 367.144335938 551.040039062 l 1
 418.040039062 500.144335938 l 1
367.144335938 164.959960938 m 1
 31.9599609375 500.144335938 l 1
 82.8556640625 551.040039062 l 1
 418.040039062 215.855664062 l 1
 367.144335938 164.959960938 l 1
EndSplineSet
EndChar

StartChar: divide
Encoding: 247 247 175
Width: 450
Flags: W
HStem: 152.696 111.804<179.773 270.226> 321.2 73.6<30 420> 451.5 111.804<179.773 270.226>
VStem: 169.648 110.703<162.922 254.274 461.726 553.078>
LayerCount: 2
Fore
SplineSet
420 321.2 m 1
 30 321.2 l 1
 30 394.8 l 1
 420 394.8 l 1
 420 321.2 l 1
169.6484375 208.597460938 m 0
 169.6484375 242.463808181 191.46610528 264.499804688 224.999023438 264.499804688 c 0
 258.53298759 264.499804688 280.3515625 242.463808181 280.3515625 208.597460938 c 0
 280.3515625 174.731311129 258.53298759 152.69609375 224.999023438 152.69609375 c 0
 191.46610528 152.69609375 169.6484375 174.731311129 169.6484375 208.597460938 c 0
169.6484375 507.402539062 m 0
 169.6484375 541.268038211 191.46610528 563.30390625 224.999023438 563.30390625 c 0
 258.53298759 563.30390625 280.3515625 541.268038211 280.3515625 507.402539062 c 0
 280.3515625 473.535541156 258.53298759 451.500195312 224.999023438 451.500195312 c 0
 191.46610528 451.500195312 169.6484375 473.535541156 169.6484375 507.402539062 c 0
EndSplineSet
EndChar

StartChar: AE
Encoding: 198 198 176
Width: 1024
Flags: W
HStem: 0 85<620 980> 158.6 83.6<222 592> 323 88<574 920> 646.008 85<620 980>
VStem: 525 67<158.6 242.2> 574 46<323 411>
LayerCount: 2
Fore
SplineSet
920 323 m 1xf4
 574 323 l 1
 574 411 l 1
 920 411 l 1
 920 323 l 1xf4
620 646.0078125 m 1
 620 85 l 1xf4
 980 85 l 1
 980 0 l 1
 525 0 l 1
 525 731.0078125 l 1xf8
 980 731.0078125 l 1
 980 646.0078125 l 1
 620 646.0078125 l 1
592 158.6 m 1xf8
 160 158.6 l 1
 222 242.2 l 1
 592 242.2 l 1
 592 158.6 l 1xf8
574 731.0078125 m 1xf4
 574 665 l 1
 574 665 131.2 0 131.2 0 c 1
 131.2 0 19 0 19 0 c 1
 519 731.0078125 l 1
 574 731.0078125 l 1xf4
EndSplineSet
EndChar

StartChar: ae
Encoding: 230 230 177
Width: 872
Flags: W
HStem: -9.99805 74.2619<541.661 773.849> -9.99805 75.2619<160.046 314.104> 215.8 68.4<429 746.8> 236.684 65.2494<184.756 379.777> 435.684 75.2494<525.744 686.696> 436.011 75<119.953 312.146>
VStem: 39 93.8486<89.8683 195.82> 360.729 71.2<158 385.574> 429 29.6486<215.8 284.2>
LayerCount: 2
Fore
SplineSet
360.728710938 177.561523438 m 1x53
 440 164 l 1
 420.666353875 50.3438653958 352.03505622 -9.998046875 222.088671875 -9.998046875 c 0
 104.539749007 -9.998046875 39 47.9338153691 39 135.8 c 0
 39 279.102273244 181.00986306 301.800101429 379.928710938 301.93359375 c 1
 379.77734375 236.684179688 l 1
 170.352323835 236.543223701 132.848632812 202.93168983 132.848632812 143.161523438 c 0
 132.848632812 91.4909042044 171.649982811 65.2638671875 235.088671875 65.2638671875 c 0
 305.232770478 65.2638671875 360.728710938 102.116314377 360.728710938 177.561523438 c 1x53
431.928710938 158 m 1
 360.728710938 165 l 1
 360.728710938 306.010742188 l 2
 360.728710938 396.855941278 305.716308424 436.010742188 231.328710938 436.010742188 c 0
 152.353090819 436.010742188 95.9287109375 403.010742188 95.9287109375 403.010742188 c 1
 72.9287109375 471.010742188 l 1
 72.9287109375 471.010742188 134.354736546 511.010742188 244.4 511.010742188 c 0x07
 355.358131004 511.010742188 431.928710938 442.926207049 431.928710938 340.010742188 c 2
 431.928710938 158 l 1
EndSplineSet
Refer: 43 101 N 1 0 0 1 321 0 2
EndChar

StartChar: Eth
Encoding: 208 208 178
Width: 789
Flags: W
HStem: 0 86.9516<228 490.136> 319.2 82.6<34 430> 644.049 86.9584<228 485.782>
VStem: 131 97<86.9516 644.049> 642.929 97.8486<233.695 495.554>
LayerCount: 2
Fore
SplineSet
430 319.2 m 1
 34 319.2 l 1
 34 401.8 l 1
 430 401.8 l 1
 430 319.2 l 1
EndSplineSet
Refer: 5 68 N 1 0 0 1 62 0 2
EndChar

StartChar: eth
Encoding: 240 240 179
Width: 588
Flags: W
HStem: -9.99805 81.0619<211.331 379.005> 433.884 77.0494<210.047 386.271>
VStem: 52.0713 86.0486<149.455 358.806> 456 88.8486<153.227 525.627> 456 53.2486<285.562 367.809>
LayerCount: 2
Fore
SplineSet
185.078125 608.658203125 m 1xe0
 511.991210938 702.080078125 l 1
 530.970898438 634.667773438 l 1
 204.056835938 541.244921875 l 1
 185.078125 608.658203125 l 1xe0
456 251.561523438 m 0xf0
 456 509.287994991 379.033494122 599.985617886 254.93359375 720.548828125 c 1
 332.227148438 771.274414062 l 1
 332.227148438 771.274414062 544.848632812 601 544.848632812 279 c 0xf0
 544.848632812 93.8330078125 450.464328191 -9.998046875 296.959960938 -9.998046875 c 0
 144.731992442 -9.998046875 52.0712890625 94.0830078122 52.0712890625 253.561523438 c 0
 52.0712890625 409.295898438 137.261814879 510.93359375 285.6 510.93359375 c 0
 416.476462677 510.93359375 509.248632812 425.267508669 509.248632812 285.561523438 c 1xe8
 456 273.561523438 l 1
 456 367.809032487 400.897533983 433.884179688 297.648632812 433.884179688 c 0
 185.897205237 433.884179688 138.119921875 361.692330344 138.119921875 253.561523438 c 0
 138.119921875 144.126801806 185.691273859 71.0638671875 296.959960938 71.0638671875 c 0
 411.611440199 71.0638671875 456 160.269279263 456 251.561523438 c 0xf0
EndSplineSet
EndChar

StartChar: Thorn
Encoding: 222 222 180
Width: 650
Flags: W
HStem: 0 21G<69 166> 154 78.3516<134 437.639> 518.649 80.7584<135 436.316> 711.008 20G<69 166>
VStem: 69 97<0 154 232.352 518.649 599.408 731.008> 135 31<154 232.352 518.649 599.408> 508.729 93.0486<293.715 456.35>
LayerCount: 2
Fore
SplineSet
69 0 m 1xfa
 69 731.0078125 l 1
 166 731.0078125 l 1
 166 0 l 1
 69 0 l 1xfa
134 154 m 1
 134 232.3515625 l 1
 313.888671875 232.461914062 l 2
 425.43484822 232.570086624 508.728710938 258.012988422 508.728710938 374.561523438 c 0
 508.728710938 491.625535242 425.422504065 518.501161514 313.888671875 518.545898438 c 2
 135 518.649414062 l 1
 135 599.4078125 l 1xf6
 344.888671875 599.4078125 l 2
 480.05048035 599.4078125 601.77734375 538.171253052 601.77734375 374.561523438 c 0
 601.77734375 213.240207598 483.259109269 154 344.888671875 154 c 2
 134 154 l 1
EndSplineSet
EndChar

StartChar: thorn
Encoding: 254 254 181
Width: 602
Flags: W
HStem: -9.99805 77.4619<228.299 397.915> 434.284 76.6494<231.104 399.166> 731.002 20G<69.8 159.2>
VStem: 69.8 89.4<-180 751.002> 111.351 47.8486<66.4395 183.562> 120.351 38.8486<283.562 425.747> 468.08 86.8486<143.548 360.691>
LayerCount: 2
Fore
SplineSet
69.8 -180 m 1xf2
 69.8 751.001953125 l 1
 159.2 751.001953125 l 1
 159.2 -180 l 1
 69.8 -180 l 1xf2
159.2 213.561523438 m 1
 159.2 142.383390064 206.771022219 67.4638671875 318.040039062 67.4638671875 c 0
 423.143373144 67.4638671875 468.080078125 141.966988874 468.080078125 253.561523438 c 0
 468.080078125 361.932191067 423.177900551 434.284179688 318.151367188 434.284179688 c 0
 214.805778673 434.284179688 159.2 373.943123935 159.2 283.561523438 c 1xf2
 120.351367188 283.561523438 l 1xe6
 120.351367188 425.747070312 203.279655003 510.93359375 331 510.93359375 c 0
 473.240234375 510.93359375 554.928710938 409.295898438 554.928710938 253.561523438 c 0
 554.928710938 94.0830078122 469.45703125 -9.998046875 329.040039062 -9.998046875 c 0
 193.720477698 -9.998046875 111.351367188 66.4394531247 111.351367188 183.561523438 c 1xea
 159.2 213.561523438 l 1
EndSplineSet
EndChar

StartChar: kgreenlandic
Encoding: 312 312 182
Width: 555
Flags: W
HStem: 0 21G<75.8 165.2 395.058 529> 225.8 60.4<89 202.2> 481.011 20G<75.8 165.2 388.113 519>
VStem: 75.8 89.4<0 225.8 286.2 501.011> 89 76.2<225.8 286.2>
LayerCount: 2
Fore
SplineSet
202.2 286.2 m 1xe8
 202.2 225.8 l 1
 89 225.8 l 1
 89 286.2 l 1
 202.2 286.2 l 1xe8
413.8 0 m 1
 202.2 225.8 l 1
 202.2 286.2 l 1
 407.2 501.010742188 l 1
 519 501.010742188 l 1
 285 261 l 1
 529 0 l 1
 413.8 0 l 1
75.8 0 m 1xf0
 75.8 501.010742188 l 1
 165.2 501.010742188 l 1
 165.2 0 l 1
 75.8 0 l 1xf0
EndSplineSet
EndChar

StartChar: Eng
Encoding: 330 330 183
Width: 719
Flags: W
HStem: -189.994 78.4<351.481 523.829> 0 21G<69 164.8> 711.008 20G<69 184.434 554.2 650>
VStem: 69 95.8<0 571.005> 345 12.4<-137.281 -127.707> 554.2 95.8<-79.5023 -7.33691 168.6 731.008>
LayerCount: 2
Back
SplineSet
75 0 m 5
 75 731.0078125 l 5
 208 731.0078125 l 5
 517 228.599609375 l 5
 517 731.0078125 l 5
 644 731.0078125 l 5
 644 0 l 5
 511 0 l 5
 202 515.004882812 l 5
 202 0 l 5
 75 0 l 5
EndSplineSet
Fore
SplineSet
69 0 m 1
 69 731.0078125 l 1
 170.8 731.0078125 l 1
 554.2 168.599609375 l 1
 554.2 731.0078125 l 1
 650 731.0078125 l 1
 650 -3 l 2
 650 -125.529296875 598.706896552 -189.994140625 475 -189.994140625 c 0
 393.162223519 -189.994140625 345 -169.594140625 345 -169.594140625 c 1
 345 -169.594140625 357.4 -95.394140625 357.4 -95.394140625 c 1
 357.4 -95.394140625 399.405363582 -111.594140625 458.2 -111.594140625 c 0
 516.165672289 -111.594140625 550.161950208 -85.9272074138 552.6765625 -7.3369140625 c 1
 164.8 571.004882812 l 1
 164.8 0 l 1
 69 0 l 1
EndSplineSet
Substitution2: "'ss06' Style Set 6 lookup 7-1" Eng.ss06
EndChar

StartChar: eng
Encoding: 331 331 184
Width: 595
Flags: W
HStem: -189.994 76.8<271.34 412.076> 0 21G<69.8 159.2> 435.284 75.6494<228.986 389.143> 481.011 20G<69.8 159.2>
VStem: 69.8 89.4<0 501.011> 440.577 89.4<-83.2384 380.899>
LayerCount: 2
Fore
SplineSet
69.8 0 m 1xdc
 69.8 501.010742188 l 1
 159.2 501.010742188 l 1
 159.2 0 l 1
 69.8 0 l 1xdc
159.2 284 m 1
 159.2 284 112.2 293.561523438 112.2 293.561523438 c 1
 136.530813866 444 202.624492978 510.93359375 338 510.93359375 c 0
 464.779374443 510.93359375 529.97734375 441.493288275 529.97734375 296.561523438 c 2
 529.97734375 -9 l 2
 529.97734375 -117.937600252 481.849897882 -189.994140625 365.77734375 -189.994140625 c 0
 304.29921875 -189.994140625 261.77734375 -171.994140625 261.77734375 -171.994140625 c 1
 274.17734375 -99.994140625 l 1
 274.17734375 -99.994140625 303.598032226 -113.194140625 344.77734375 -113.194140625 c 0
 412.225216427 -113.194140625 440.57734375 -80.9049839986 440.57734375 -5.994140625 c 2
 440.57734375 279.561523438 l 2
 440.57734375 386.12731618 400.75381574 435.284179688 307 435.284179688 c 0xec
 211.865235971 435.284179688 159.2 374.718090373 159.2 284 c 1
EndSplineSet
EndChar

StartChar: OE
Encoding: 338 338 185
Width: 991
Flags: W
HStem: 0 85<583 952> 0 85.0619<306.037 532.777> 323 88<535 892> 646.008 85<583 952> 646.546 84.4619<305.581 532.777>
VStem: 59 94.0486<231.57 497.817> 535 48<323 411>
LayerCount: 2
Fore
SplineSet
532.77734375 84.9515625 m 1x6e
 532.77734375 84.9515625 532.77734375 0 532.77734375 0 c 1
 428.888671875 0 l 2
 235.411609394 0 59 97.9169921874 59 364.561523438 c 0
 59 631.206054688 234.27255996 731.0078125 428.888671875 731.0078125 c 2
 532.77734375 731.0078125 l 1
 532.77734375 646.649414062 l 1
 448.888671875 646.545898438 l 2
 291.776079544 646.37189247 153.048632812 593.823000572 153.048632812 364.561523438 c 0
 153.048632812 135.319778124 291.776079715 85.2463778262 448.888671875 85.0619140622 c 2
 448.888671875 85.0619140622 532.77734375 84.9515625 532.77734375 84.9515625 c 1x6e
EndSplineSet
Refer: 10 69 N 1 0 0 1 417 0 2
EndChar

StartChar: oe
Encoding: 339 339 186
Width: 920
Flags: W
HStem: -9.99805 78.0619<209.009 365.949 591.33 831.017> 215.8 68.4<489 794.8> 432.684 78.2494<204.502 370.458 579.465 740.518>
VStem: 49 87.2486<145.544 355.487> 437.529 87.2486<118.205 385.134> 489 29.6486<218.661 281.616>
LayerCount: 2
Fore
SplineSet
136.248632812 253.561523438 m 0xf8
 136.248632812 142.32734375 185.431527734 68.0638671875 287.888671875 68.0638671875 c 0
 389.152001929 68.0638671875 437.528710938 142.32734375 437.528710938 253.561523438 c 0
 437.528710938 360.973046875 389.185511148 432.684179688 288 432.684179688 c 0
 185.464918123 432.684179688 136.248632812 360.973046875 136.248632812 253.561523438 c 0xf8
49 253.561523438 m 0
 49 409.295898438 139.390854588 510.93359375 287.888671875 510.93359375 c 0
 435.143175219 510.93359375 524.77734375 409.295898438 524.77734375 253.561523438 c 0
 524.77734375 94.0830078125 435.143175219 -9.998046875 287.888671875 -9.998046875 c 0
 139.390854588 -9.998046875 49 94.0830078125 49 253.561523438 c 0
430 253.561523438 m 0
 430 409.295898438 518.12035269 510.93359375 662.888671875 510.93359375 c 0
 829.304493014 510.93359375 881.465820312 376.304492187 881.465820312 279.9109375 c 0
 881.465820312 240.33125 877 215.8 877 215.8 c 1
 489 215.8 l 1
 489 284.2 l 1
 794.8 284.2 l 1
 794.8 284.2 794.981445313 289.953125 794 301 c 0
 789.413867187 371.076367187 753.7631058 435.684179688 659 435.684179688 c 0
 560.683307204 435.684179688 518.648632812 361.971484375 518.648632812 251.561523438 c 0xf4
 518.648632812 129.169921875 573.31862493 64.2638671875 702.4 64.2638671875 c 0
 787.642826459 64.2638671875 836.218554688 92.395703125 836.218554688 92.395703125 c 1
 851.827148438 18.595703125 l 1
 851.827148438 18.595703125 795.949399426 -9.998046875 698.888671875 -9.998046875 c 0
 513.127130799 -9.998046875 430 94.0830078125 430 253.561523438 c 0
EndSplineSet
EndChar

StartChar: longs
Encoding: 383 383 187
Width: 269
Flags: W
HStem: 0 21G<89.8 179.2> 688.411 72.6<209.994 348.902>
VStem: 89.8 89.4<0 655.432>
LayerCount: 2
Fore
SplineSet
179.2 569.010742188 m 2
 179.2 0 l 1
 179.2 0 89.8 0 89.8 0 c 1
 89.8 0 89.8 582.010742188 89.8 582.010742188 c 2
 89.8 689.749918194 138.513651055 761.010742188 256 761.010742188 c 0
 316.295853366 761.010742188 358 745.010742188 358 745.010742188 c 1
 346.4 675.810742188 l 1
 346.4 675.810742188 318.729550781 688.410742188 280 688.410742188 c 0
 209.031883446 688.410742188 179.2 652.446347924 179.2 569.010742188 c 2
EndSplineSet
EndChar

StartChar: uni018F
Encoding: 399 399 188
Width: 765
Flags: W
HStem: -9.99805 89.2619<272.851 486.259> 336.723 83.6<147.108 659.308> 650.459 88.6619<178.644 467.304>
VStem: 44 102.6<210.716 368.545> 623.86 37.4486<336.723 420.323>
LayerCount: 2
Back
SplineSet
35 364.561523438 m 0
 35 591.206054688 163.541887394 739.12109375 389.888671875 739.12109375 c 0
 653.541980974 739.12109375 740.108398438 551.971330386 740.108398438 365.891601562 c 0
 740.108398438 303.039520695 732 284 732 284 c 1
 162 284 l 1
 160 424 l 1
 562 424 l 1
 562 424 560.13712938 586.659179688 391 586.659179688 c 0
 261.796380576 586.659179688 205.848632812 497.743164062 205.848632812 364.561523438 c 4
 205.848632812 231.379882812 273.845797251 142.463867188 432.888671875 142.463867188 c 0
 580.720714467 142.463867188 659.018554688 179.595703125 659.018554688 179.595703125 c 1
 682.827148438 32.595703125 l 1
 682.827148438 32.595703125 604.343305548 -9.998046875 425.888671875 -9.998046875 c 0
 176.581210181 -9.998046875 35 137.916992188 35 364.561523438 c 0
EndSplineSet
Fore
SplineSet
721.108398438 364.561523438 m 0
 721.108398438 137.916992187 597.637358794 -9.998046875 380.219726562 -9.998046875 c 0
 127.105933223 -9.998046875 44 165.117312952 44 339.231445312 c 0
 44 397.858998735 52.1083984375 420.323046875 52.1083984375 420.323046875 c 1
 659.308398438 420.323046875 l 1
 661.308398438 336.723046875 l 1
 147.108398438 336.723046875 l 1
 147.108398438 336.723046875 146.6 331.566450629 146.6 313.2 c 0
 146.6 203.249884374 211.159468753 79.2638671878 379.308398438 79.2638671878 c 0
 547.955926659 79.2638671878 623.859765625 193.481780555 623.859765625 364.561523438 c 0
 623.859765625 536.001058429 534.731535573 650.459179688 339.619726562 650.459179688 c 0
 197.540669638 650.459179688 122.28984375 607.32734375 122.28984375 607.32734375 c 1
 101.28125 692.52734375 l 1
 101.28125 692.52734375 175.48868472 739.12109375 344.219726562 739.12109375 c 0
 584.598036006 739.12109375 721.108398438 591.206054687 721.108398438 364.561523438 c 0
EndSplineSet
EndChar

StartChar: florin
Encoding: 402 402 190
Width: 398
Flags: W
HStem: -190.011 76.4<-30.9471 104.924> 428.4 72.6107<34 362> 686.811 74.2<249.994 388.902>
VStem: 129.8 89.4<-89.3397 655.066>
LayerCount: 2
Fore
SplineSet
34 501.010742188 m 1
 362 501.010742188 l 1
 362 428.4 l 1
 34 428.4 l 1
 34 501.010742188 l 1
129.8 -11.6107421875 m 2
 129.8 -11.6107421875 129.8 582.010742188 129.8 582.010742188 c 2
 129.8 689.749918194 178.513651055 761.010742188 296 761.010742188 c 0
 356.295853366 761.010742188 398 745.010742188 398 745.010742188 c 1
 386.4 674.210742188 l 1
 386.4 674.210742188 358.729550781 686.810742188 320 686.810742188 c 0
 249.031883446 686.810742188 219.2 651.328282855 219.2 569.010742188 c 2
 219.2 -13.0107421875 l 2
 219.2 -119.546287212 174.237931034 -190.010742188 65.8 -190.010742188 c 0
 2.66668492759 -190.010742188 -41 -171.610742188 -41 -171.610742188 c 1
 -27.8 -98.8107421877 l 1
 -27.8 -98.8107421877 1.28704740082 -113.610742188 42 -113.610742188 c 0
 103.815830078 -113.610742188 129.8 -82.8878506213 129.8 -11.6107421875 c 2
EndSplineSet
EndChar

StartChar: uni01B7
Encoding: 439 439 191
Width: 584
Flags: W
HStem: -9.99805 82.1375<101.539 369.122> 348.937 71.8627<305.2 377.699> 646.6 84.4<44 397.8>
VStem: 445.627 95.284<137.837 291.827>
LayerCount: 2
Fore
SplineSet
305.2 420.8 m 1
 381.354915902 420.8 540.911132812 400.24829986 540.911132812 218.470898438 c 0
 540.911132812 55.3423438328 424.617822678 -9.998046875 250 -9.998046875 c 0
 105.442626837 -9.998046875 19.451171875 40.1091796875 19.451171875 40.1091796875 c 1
 43.9744140625 117.062695312 l 1
 43.9744140625 117.062695312 121.926541391 72.139453125 244.2 72.139453125 c 0
 383.53922628 72.139453125 445.627148438 121.874586831 445.627148438 219.268359375 c 0
 445.627148438 307.777418433 380.331788655 348.606698998 255.138671875 348.937304688 c 2
 174 349.2 l 1
 174 398.8 l 1
 397.8 646.6 l 1
 44 646.6 l 1
 44 731 l 1
 510 731 l 1
 510 650.6 l 1
 305.2 420.8 l 1
EndSplineSet
EndChar

StartChar: uni0292
Encoding: 658 658 192
Width: 524
Flags: W
HStem: -189.994 77.9375<72.0999 321.776> 134.941 69.2588<269.4 329.624> 423.011 78<44 359.8>
VStem: 390.027 90.884<-54.3754 85.602>
LayerCount: 2
Fore
SplineSet
269.4 204.2 m 1
 323.805827305 204.2 480.911132812 182.066805989 480.911132812 19.4048828125 c 0
 480.911132812 -128.314453125 372.612931632 -189.994140625 210 -189.994140625 c 0
 96.793333396 -189.994140625 29.451171875 -159.086914062 29.451171875 -159.086914062 c 1
 29.451171875 -159.086914062 48.5744140625 -80.7333984377 48.5744140625 -80.7333984377 c 1
 48.5744140625 -80.7333984377 108.695616262 -112.056640625 203 -112.056640625 c 0
 332.377883562 -112.056640625 390.027148438 -63.1576192688 390.027148438 16.60234375 c 0
 390.027148438 98.9088446062 328.707225545 134.508254751 211.138671875 134.941210938 c 2
 142 135.20390625 l 1
 142 185.20390625 l 1
 359.8 423.010742188 l 1
 44 423.010742188 l 1
 44 501.010742188 l 1
 470 501.010742188 l 1
 470 427.010742188 l 1
 269.4 204.2 l 1
EndSplineSet
EndChar

StartChar: Oslash
Encoding: 216 216 193
Width: 797
Flags: W
HStem: -9.99805 89.8619<286.441 511.336> 649.259 89.8619<286.441 511.336>
VStem: 49 97.8486<228.433 500.69> 650.929 97.8486<228.433 500.69>
LayerCount: 2
Fore
SplineSet
163.5 -91.4697265625 m 1
 548.5 801.403320312 l 1
 633.5 801.403320312 l 1
 248.5 -91.4697265625 l 1
 163.5 -91.4697265625 l 1
EndSplineSet
Refer: 1 79 N 1 0 0 1 0 0 2
EndChar

StartChar: oslash
Encoding: 248 248 194
Width: 589
Flags: W
HStem: -9.99805 78.0619<209.49 379.178> 432.684 78.2494<207.839 380.898>
VStem: 49 87.2486<148.585 355.487> 453.529 87.2486<150.438 353.698>
LayerCount: 2
Fore
SplineSet
77.1 -91.4697265625 m 1
 438.1 581.403320312 l 1
 511.9 581.403320312 l 1
 150.9 -91.4697265625 l 1
 77.1 -91.4697265625 l 1
EndSplineSet
Refer: 29 111 N 1 0 0 1 0 0 2
EndChar

StartChar: ring
Encoding: 730 730 197
Width: 355
Flags: W
HStem: 500.07 60.8965<127.829 228.681> 699.918 61.084<125.839 229.169>
VStem: 47 65.7531<574.616 686.451> 243.024 65.7531<575.113 685.981>
LayerCount: 2
Fore
SplineSet
112.753125 632.396484375 m 0
 112.753125 589.563728272 131.99390609 560.966796875 176.99609375 560.966796875 c 0
 223.249062697 560.966796875 243.02421875 589.563728272 243.02421875 632.396484375 c 0
 243.02421875 672.885976253 223.278874471 699.91796875 177.094726562 699.91796875 c 0
 132.02371977 699.91796875 112.753125 672.885976253 112.753125 632.396484375 c 0
47 632.629882812 m 0
 47 710.307590418 96.1471025234 761.001953125 176.888671875 761.001953125 c 0
 258.873427822 761.001953125 308.77734375 710.307590418 308.77734375 632.629882812 c 0
 308.77734375 552.418795277 258.873427822 500.0703125 176.888671875 500.0703125 c 0
 96.1471025234 500.0703125 47 552.418795277 47 632.629882812 c 0
EndSplineSet
EndChar

StartChar: ogonek
Encoding: 731 731 198
Width: 307
VWidth: 999
Flags: W
HStem: -249 59.2<135.208 266.853>
VStem: 44 75<-173.143 -46.6682>
LayerCount: 2
Fore
SplineSet
44 -130 m 0
 44 -30.5220125786 136 39 136 39 c 1
 210 39 l 1
 210 39 119 -33.0700636942 119 -116 c 0
 119 -169.058458227 147.412890625 -189.8 197.4 -189.8 c 0
 241.537820513 -189.8 261.4 -173 261.4 -173 c 1
 277 -226 l 1
 277 -226 244.426287616 -249 179 -249 c 0
 95.8716901736 -249 44 -206.663064236 44 -130 c 0
EndSplineSet
EndChar

StartChar: minute
Encoding: 8242 8242 203
Width: 235
Flags: W
HStem: 456 275.008
VStem: 29 179
LayerCount: 2
Fore
SplineSet
29 456 m 1
 113 731.0078125 l 1
 208 731.0078125 l 1
 94 456 l 1
 29 456 l 1
EndSplineSet
EndChar

StartChar: bullet
Encoding: 8226 8226 206
Width: 325
Flags: W
HStem: 250 226.449<92.6443 232.581>
VStem: 50 225.227<292.876 433.573>
LayerCount: 2
Fore
SplineSet
50 363.224609375 m 0
 50 431.817406607 94.3894466578 476.44921875 162.612304688 476.44921875 c 0
 230.836094646 476.44921875 275.2265625 431.817406607 275.2265625 363.224609375 c 0
 275.2265625 294.630626073 230.836094646 250 162.612304688 250 c 0
 94.3894466578 250 50 294.630626073 50 363.224609375 c 0
EndSplineSet
EndChar

StartChar: dagger
Encoding: 8224 8224 207
Width: 530
Flags: W
HStem: 392.011 77<30 500>
VStem: 211.5 107<-171.47 89.9233> 219.5 91<468.559 759.47> 227.5 75<165.169 717.786>
LayerCount: 2
Fore
SplineSet
211.5 -171.469726562 m 1xc0
 227.5 427 l 1x90
 219.5 759.469726562 l 1
 310.5 759.469726562 l 1xa0
 302.5 426 l 1x90
 318.5 -171.469726562 l 1
 211.5 -171.469726562 l 1xc0
30 392.010742188 m 1
 30 469.010742188 l 1
 500 469.010742188 l 1
 500 392.010742188 l 1
 30 392.010742188 l 1
EndSplineSet
EndChar

StartChar: daggerdbl
Encoding: 8225 8225 208
Width: 530
Flags: W
HStem: 102.011 77<30 500> 442.011 77<30 500>
VStem: 219.1 91.8<-171.47 26.1894 201.286 419.571 577.882 759.47> 227.5 75<-78.9288 287 344.333 724.036>
LayerCount: 2
Fore
SplineSet
30 102.010742188 m 1xc0
 30 179.010742188 l 1
 500 179.010742188 l 1
 500 102.010742188 l 1
 30 102.010742188 l 1xc0
217.5 -171.469726562 m 1
 227.5 137 l 1xd0
 219.1 317 l 1xe0
 227.5 477 l 1
 219.5 759.469726562 l 1
 310.5 759.469726562 l 1
 302.5 476 l 1xd0
 310.9 318 l 1xe0
 302.5 136 l 1xd0
 312.5 -171.469726562 l 1
 217.5 -171.469726562 l 1
30 442.010742188 m 1
 30 519.010742188 l 1
 500 519.010742188 l 1
 500 442.010742188 l 1
 30 442.010742188 l 1
EndSplineSet
EndChar

StartChar: uni2116
Encoding: 8470 8470 209
Width: 1126
Flags: W
HStem: 0 21G<69 164.8 534.771 650> 258.6 70.6<736 1070> 386.061 75.7264<845.88 969.134> 663.078 75.9139<843.844 971.232> 711.008 20G<69 184.434 554.2 650>
VStem: 69 95.8<0 571.005> 554.2 95.8<168.6 731.008> 736.111 80.4121<490.64 634.202> 999.477 80.4121<491.497 633.386>
LayerCount: 2
Fore
SplineSet
736 329.2 m 1xe780
 1070 329.2 l 1
 1070 258.6 l 1
 736 258.6 l 1
 736 329.2 l 1xe780
816.5234375 564.844726562 m 0
 816.5234375 503.046190107 844.324562368 461.786914062 906.897460938 461.786914062 c 0
 971.014232351 461.786914062 999.4765625 503.046190107 999.4765625 564.844726562 c 0
 999.4765625 623.750841161 971.051529856 663.078320312 907.020507812 663.078320312 c 0xf780
 844.361865848 663.078320312 816.5234375 623.750841161 816.5234375 564.844726562 c 0
736.111328125 564.620117188 m 0
 736.111328125 670.132341608 800.771955996 738.9921875 907 738.9921875 c 0
 1014.47121317 738.9921875 1079.88867188 670.132341608 1079.88867188 564.620117188 c 0
 1079.88867188 456.574675497 1014.47121317 386.060546875 907 386.060546875 c 0
 800.771955996 386.060546875 736.111328125 456.574675497 736.111328125 564.620117188 c 0
EndSplineSet
Refer: 11 78 N 1 0 0 1 0 0 2
EndChar

StartChar: uni20BF
Encoding: 8383 8383 210
Width: 640
Flags: W
HStem: -105 158.47<175 254 355 434> 0 84.66<161 449.192> 326.656 77.6953<130 419.102> 646.449 84.5584<161 415.724> 671 158.47<175 254 355 434>
VStem: 130 31<326.656 404.352> 175 79<-105 53.4697 671 829.47> 355 79<-105 53.4697 671 829.47> 479.929 92.8486<455.252 592.263> 502.929 92.8486<134.194 275.065>
LayerCount: 2
Fore
SplineSet
355 -105 m 1xa7
 355 53.4697265625 l 1
 434 53.4697265625 l 1
 434 -105 l 1
 355 -105 l 1xa7
355 671 m 1x2f
 355 829.469726562 l 1
 434 829.469726562 l 1
 434 671 l 1
 355 671 l 1x2f
175 -105 m 1xa7
 175 53.4697265625 l 1
 254 53.4697265625 l 1
 254 -105 l 1
 175 -105 l 1xa7
175 671 m 1x2f
 175 829.469726562 l 1
 254 829.469726562 l 1
 254 671 l 1
 175 671 l 1x2f
EndSplineSet
Refer: 19 66 N 1 0 0 1 0 0 2
EndChar

StartChar: uni20A6
Encoding: 8358 8358 211
Width: 874
Flags: W
HStem: 0 21G<157 252 606.367 724> 265.4 72<44 226 648 830> 396.6 72<44 226 648 830> 711.008 20G<157 274.823 629 724>
VStem: 44 208<265.4 337.4 396.6 468.6> 157 95<0 265.4 337.4 396.6 468.6 581.005> 157 69<265.4 337.4 396.6 468.6> 629 201<265.4 337.4 396.6 468.6> 629 95<158.6 265.4 337.4 396.6 468.6 731.008> 648 76<265.4 337.4 396.6 468.6>
LayerCount: 2
Fore
SplineSet
830 265.4 m 1xf1
 648 265.4 l 1
 648 337.4 l 1xf040
 830 337.4 l 1
 830 265.4 l 1xf1
830 396.6 m 1xf1
 648 396.6 l 1
 648 468.6 l 1xf040
 830 468.6 l 1
 830 396.6 l 1xf1
226 265.4 m 1xf2
 44 265.4 l 1
 44 337.4 l 1xf8
 226 337.4 l 1
 226 265.4 l 1xf2
226 396.6 m 1xf2
 44 396.6 l 1
 44 468.6 l 1xf8
 226 468.6 l 1
 226 396.6 l 1xf2
157 0 m 1xf440
 157 731.0078125 l 1
 262 731.0078125 l 1
 629 158.599609375 l 1
 629 731.0078125 l 1
 724 731.0078125 l 1xf280
 724 0 l 1
 619 0 l 1
 252 581.004882812 l 1
 252 0 l 1
 157 0 l 1xf440
EndSplineSet
EndChar

StartChar: uni20BD
Encoding: 8381 8381 212
Width: 703
Flags: W
HStem: 0 21G<145 242> 166.352 70<30 544> 306.352 72<30 500.98> 645.249 85.7584<242 490.305>
VStem: 145 97<0 645.249> 559.929 94.8486<432.415 584.967>
LayerCount: 2
Fore
SplineSet
544 166.3515625 m 1
 30 166.3515625 l 1
 30 236.3515625 l 1
 544 236.3515625 l 1
 544 166.3515625 l 1
30 306.3515625 m 1
 30 378.3515625 l 1
 376.088671875 378.461914062 l 2
 481.337045223 378.601391987 559.928710938 402.515160385 559.928710938 505.561523438 c 0
 559.928710938 617.848055795 476.207042023 645.003502499 364.088671875 645.145898438 c 2
 242 645.249414062 l 1
 242 0 l 1
 145 0 l 1
 145 731.0078125 l 1
 370.888671875 731.0078125 l 2
 553.502929688 731.0078125 654.77734375 664.414278078 654.77734375 505.561523438 c 0
 654.77734375 376.702748086 563.397460938 306.3515625 409 306.3515625 c 2
 30 306.3515625 l 1
EndSplineSet
EndChar

StartChar: dong
Encoding: 8363 8363 213
Width: 645
Flags: W
HStem: 0 72<34 590> 142.002 74.6494<228.141 388.58> 495.472 72.4619<229.358 392.547> 615.8 67.4<305 601> 731.002 20G<440.8 534.2>
VStem: 85.0713 88.8486<272.551 439.247> 440.8 93.4<347.374 751.002> 440.8 59.8486<383.374 491.152>
LayerCount: 2
Fore
SplineSet
590 0 m 1xfc
 34 0 l 1
 34 72 l 1
 590 72 l 1
 590 0 l 1xfc
601 615.8 m 1
 305 615.8 l 1
 305 683.2 l 1
 601 683.2 l 1
 601 615.8 l 1
534.2 152 m 1xfe
 440.8 152 l 1xfd
 440.8 751.001953125 l 1
 534.2 751.001953125 l 1
 534.2 152 l 1xfe
440.8 381.374023438 m 1xfe
 440.8 436.962047701 405.981068399 495.471679688 306.959960938 495.471679688 c 0
 218.883102467 495.471679688 173.919921875 438.584311872 173.919921875 353.374023438 c 0
 173.919921875 271.387593499 218.850514294 216.651367188 306.848632812 216.651367188 c 0
 405.944266932 216.651367188 440.8 268.986226492 440.8 347.374023438 c 1xfe
 495.648632812 359.374023438 l 1
 495.648632812 229.6953125 422.902812592 142.001953125 283 142.001953125 c 0
 147.569305765 142.001953125 85.0712890625 231.358071676 85.0712890625 353.374023438 c 0
 85.0712890625 479.082316626 153.93897104 567.93359375 287.959960938 567.93359375 c 0
 433.186488222 567.93359375 500.648632812 491.152470196 500.648632812 383.374023438 c 1xfd
 440.8 381.374023438 l 1xfe
EndSplineSet
EndChar

StartChar: uni1E9E
Encoding: 7838 7838 220
Width: 743
Flags: W
HStem: -10 81.124<356.685 552.672> 0 21G<69 166> 332.6 74.4<467.8 548.714> 647.008 84<229.757 537>
VStem: 69 97<0 584.255> 609.6 94.4<125.907 279.089>
LayerCount: 2
Fore
SplineSet
69 504 m 2x7c
 69 663.708074726 155.236363636 731.0078125 348 731.0078125 c 2
 655 731.0078125 l 1
 655 663.0078125 l 1
 467.8 407 l 1
 572.114229616 407 704 369.917874396 704 205 c 0
 704 59.7807017544 616.292682927 -10 472 -10 c 0
 368.006105201 -10 309 26 309 26 c 1
 335 104 l 1
 335 104 384.124006138 71.1240234375 466.015625 71.1240234375 c 0xbc
 553.463588577 71.1240234375 609.6 115.637398888 609.6 205 c 0
 609.6 293.136082474 552.825531915 332.6 419 332.6 c 2
 345 332.6 l 1
 345 385 l 1
 537 647.0078125 l 1
 339 647.0078125 l 2
 199.083662998 647.0078125 166 594.197991071 166 471.0078125 c 2
 166 0 l 1
 69 0 l 1
 69 504 l 2x7c
EndSplineSet
EndChar

StartChar: germandbls
Encoding: 223 223 221
Width: 725
Flags: W
HStem: -9.99805 72.9795<347.877 564.018> 0 21G<83.8 173.2> 437.504 74.4293<419.46 569.371> 683.011 78<250.143 490.218>
VStem: 83.8 89.4<0 605.69> 302.204 88.0576<318.153 409.682> 569.6 83.0182<505.966 605.742> 590.521 86.1689<88.0659 179.378>
LayerCount: 2
Fore
SplineSet
465.733007813 216.87578125 m 0xbd
 336.232109356 243.712031394 302.204101562 288.296086639 302.204101562 359 c 0
 302.204101562 454.267177631 377.991206246 511.93359375 487 511.93359375 c 0
 539.360128659 511.93359375 569.6 504 569.6 504 c 1
 567.664147395 622.944830093 520.777258545 683.010742188 370 683.010742188 c 0
 209.378135788 683.010742188 173.2 615.757626195 173.2 483.010742188 c 2
 173.2 0 l 1
 173.2 0 83.8 0 83.8 0 c 1
 83.8 0 83.8 496.010742188 83.8 496.010742188 c 2
 83.8 657.8424452 154.224391085 761.010742188 361 761.010742188 c 0
 612.119934871 761.010742188 652.618164062 625.344728673 652.618164062 508.6 c 0x7e
 652.618164062 452.221346535 642.294921875 408.244335938 642.294921875 408.244335938 c 1
 642.294921875 408.244335938 590.414048548 437.504296875 513.943164062 437.504296875 c 0
 428.629330334 437.504296875 390.26171875 408.80275703 390.26171875 362.518554688 c 0
 390.26171875 323.24075336 415.324743302 303.647056568 502.64765625 285.529101562 c 0
 631.914367612 257.669759544 676.689453125 213.804328653 676.689453125 139.40234375 c 0
 676.689453125 47.3285907896 607.115850293 -9.998046875 476.856445312 -9.998046875 c 0
 365.552339321 -9.998046875 295 26.5625 295 26.5625 c 1
 314.314453125 98.861328125 l 1
 314.314453125 98.861328125 381.554998645 62.9814453125 463.993164062 62.9814453125 c 0
 549.71111743 62.9814453125 590.520507812 87.2546622332 590.520507812 134.336914062 c 0
 590.520507812 172.170113171 569.590682852 195.766693354 465.733007813 216.87578125 c 0xbd
EndSplineSet
EndChar

StartChar: uni2113
Encoding: 8467 8467 222
Width: 619
Flags: W
HStem: -10 88.5299<296.924 502.06> 677.672 83.3299<319.625 447.056>
VStem: 125 96.0295<230.759 520.319> 475.244 93.8961<482.815 647.615>
LayerCount: 2
Fore
SplineSet
125 302.099609375 m 0
 125 604.2472265 215.531031183 761.001953125 386.000390625 761.001953125 c 0
 517.277422298 761.001953125 569.139648438 665.748800285 569.139648438 576.90703125 c 0
 569.139648438 224.859743207 29.4 166.8 29.4 166.8 c 1
 19.4 252.6 l 1
 19.4 252.6 475.243554688 299.51706882 475.243554688 572.201953125 c 0
 475.243554688 638.491229935 445.393384494 677.672070312 388.000390625 677.672070312 c 0
 270.332559099 677.672070312 221.029492188 531.40004466 221.029492188 317.875 c 0
 221.029492188 162.486955274 254.079247253 78.5298828122 392.8 78.5298828122 c 0
 481.698371014 78.5298828122 539.958007812 119.624804688 539.958007812 119.624804688 c 1
 563 42 l 1
 563 42 504.560172591 -10 375.400390625 -10 c 0
 213.653772247 -10 125 92.7666055969 125 302.099609375 c 0
EndSplineSet
EndChar

StartChar: uni20B8
Encoding: 8376 8376 223
Width: 614
Flags: W
HStem: 0 21G<258.5 355.5> 450 85<40 258.5 355.5 574> 450 55<258.5 355.5> 646 85<40 574>
VStem: 258.5 97<0 505>
LayerCount: 2
Fore
SplineSet
574 646 m 1x98
 40 646 l 1
 40 731 l 1
 574 731 l 1
 574 646 l 1x98
574 450 m 1xd8
 40 450 l 1
 40 535 l 1
 574 535 l 1
 574 450 l 1xd8
258.5 0 m 1
 258.5 505 l 1
 355.5 505 l 1xb8
 355.5 0 l 1
 258.5 0 l 1
EndSplineSet
EndChar

StartChar: uni20BC
Encoding: 8380 8380 224
Width: 839
Flags: W
HStem: 0 21G<69 166 371 468 669.777 766.777> 464.144 86.8619<280.207 555.57> 711.008 20G<371 468>
VStem: 69 97<0 349.863> 371 97<0 731.008> 669.777 97<0 349.863>
LayerCount: 2
Fore
SplineSet
417.888671875 551.005859375 m 0
 678.442112953 551.005859375 766.77734375 425.994872977 766.77734375 234.446289062 c 2
 766.77734375 0 l 1
 669.77734375 0 l 1
 669.77734375 204.446289062 l 2
 669.77734375 360.17445143 635.048079666 464.143945312 417.888671875 464.143945312 c 0
 200.729264084 464.143945312 166 360.17445143 166 204.446289062 c 2
 166 0 l 1
 69 0 l 1
 69 234.446289062 l 2
 69 425.994872977 157.335230797 551.005859375 417.888671875 551.005859375 c 0
371 0 m 1
 371 731.0078125 l 1
 468 731.0078125 l 1
 468 0 l 1
 371 0 l 1
EndSplineSet
EndChar

StartChar: Ohorn
Encoding: 416 416 225
Width: 797
Flags: W
HStem: -9.99805 89.8619<286.441 511.336> 649.259 89.8619<286.441 511.336>
VStem: 49 97.8486<228.433 500.69> 621.16 88.7598<676.248 813.507> 650.929 97.8486<228.433 500.69>
LayerCount: 2
Fore
SplineSet
591.080078125 825.799804688 m 1xf0
 687.759765625 825.799804688 l 1
 687.759765625 825.799804688 709.919921875 795.200195312 709.919921875 738.9921875 c 0
 709.919921875 650.651635806 629.999609375 601.439648438 629.999609375 601.439648438 c 1
 572.16015625 641.360351562 l 1
 572.16015625 641.360351562 621.16015625 688 621.16015625 733.729492188 c 0
 621.16015625 790.55078125 591.080078125 825.799804688 591.080078125 825.799804688 c 1xf0
EndSplineSet
Refer: 1 79 N 1 0 0 1 0 0 2
EndChar

StartChar: ohorn
Encoding: 417 417 226
Width: 589
Flags: W
HStem: -9.99805 78.0619<209.49 379.178> 432.684 78.2494<207.839 380.898>
VStem: 49 87.2486<148.585 355.487> 444.76 85.1598<466.248 603.507> 453.529 87.2486<150.438 353.698>
LayerCount: 2
Fore
SplineSet
414.680078125 615.799804688 m 1xf0
 507.759765625 615.799804688 l 1
 507.759765625 615.799804688 529.919921875 585.200195312 529.919921875 528.9921875 c 0
 529.919921875 440.651635806 449.999609375 391.439648438 449.999609375 391.439648438 c 1
 395.76015625 431.360351562 l 1
 395.76015625 431.360351562 444.76015625 478 444.76015625 523.729492188 c 0
 444.76015625 580.55078125 414.680078125 615.799804688 414.680078125 615.799804688 c 1xf0
EndSplineSet
Refer: 29 111 N 1 0 0 1 0 0 2
EndChar

StartChar: Uhorn
Encoding: 431 431 227
Width: 777
Flags: W
HStem: -9.99805 90.2619<250.82 464.958> 673 58.0078<614 636.439> 711.008 20G<69 166 549.777 646.777>
VStem: 69 97<168.919 731.008> 549.777 97<168.919 731.008> 641 92<738.217 815.667>
LayerCount: 2
Fore
SplineSet
607.080078125 825.799804688 m 1xb4
 703.759765625 825.799804688 l 1
 703.759765625 825.799804688 733 801.398367098 733 756 c 0
 733 701.274725275 685 673 614 673 c 1xd4
 568 731.0078125 l 1
 602 731.0078125 641 732.480474404 641 770 c 0
 641 804 607.080078125 825.799804688 607.080078125 825.799804688 c 1xb4
EndSplineSet
Refer: 6 85 N 1 0 0 1 0 0 2
EndChar

StartChar: uhorn
Encoding: 432 432 228
Width: 660
Flags: W
HStem: -9.92285 75.6494<210.634 370.969> 0 21G<440.577 529.977> 481.011 20G<69.8 159.2 440.577 529.977>
VStem: 69.8 89.4<120.112 501.011> 440.577 89.4<207.449 501.011> 524 92<508.23 596.632>
LayerCount: 2
Fore
SplineSet
481.759765625 615.799804688 m 1x34
 578.439453125 615.799804688 l 1
 578.439453125 615.799804688 616 586.155514673 616 531.002929688 c 0
 616 472.980951665 571.226890756 443.002929688 505 443.002929688 c 1
 451 501.010742188 l 1
 485 501.010742188 524 502.672238349 524 545.002929688 c 0
 524 588.140961504 481.759765625 615.799804688 481.759765625 615.799804688 c 1x34
EndSplineSet
Refer: 50 117 N 1 0 0 1 0 0 2
EndChar

StartChar: integral
Encoding: 8747 8747 229
Width: 448
Flags: W
HStem: -190.011 82<-40.9205 91.2925> 683.011 78<306.697 436.958>
LayerCount: 2
Fore
SplineSet
129 31.9892578125 m 2
 179 570.010742188 l 2
 189.02509482 684.888256569 229.120543504 761.010742188 350 761.010742188 c 0
 407.931310096 761.010742188 448 745.010742188 448 745.010742188 c 1
 434 672.010742188 l 1
 434 672.010742188 408.163134765 683.010742188 372 683.010742188 c 0
 300.187024915 683.010742188 278.283479017 645.813196559 270 557.010742188 c 2
 220 20.9892578125 l 2
 208.893313266 -105.808893598 169.879310345 -190.010742188 49 -190.010742188 c 0
 -8.93131907393 -190.010742188 -49 -174.010742188 -49 -174.010742188 c 1
 -49 -174.010742188 -35 -97.0107421877 -35 -97.0107421877 c 1
 -35 -97.0107421877 -9.16336763821 -108.010742188 27 -108.010742188 c 0
 98.8133789061 -108.010742188 119.842223333 -66.5523541132 129 31.9892578125 c 2
EndSplineSet
EndChar

StartChar: dotlessi
Encoding: 305 305 231
Width: 269
Flags: W
HStem: 0 21G<89.8 179.2> 481.011 20G<89.8 179.2>
VStem: 89.8 89.4<0 501.011>
LayerCount: 2
Fore
SplineSet
89.8 0 m 1
 89.8 0 89.8 501.010742188 89.8 501.010742188 c 1
 89.8 501.010742188 179.2 501.010742188 179.2 501.010742188 c 1
 179.2 0 l 1
 179.2 0 89.8 0 89.8 0 c 1
EndSplineSet
EndChar

StartChar: uni0237
Encoding: 567 567 232
Width: 269
Flags: W
HStem: -190 76.4<-70.9085 65.3766> 481.011 20G<89.8 179.2>
VStem: 89.8 89.4<-89.3289 501.011>
LayerCount: 2
Back
SplineSet
75 -6 m 6xe8
 75 501.010742188 l 5
 194 501.010742188 l 5
 194 -9 l 6
 194 -117.943127962 145.051724138 -190 27 -190 c 4
 -38.0249499809 -190 -83 -172 -83 -172 c 5
 -69 -78 l 5
 -69 -78 -42.7466477614 -90 -6 -90 c 4
 51.0282714843 -90 75 -64.6987951807 75 -6 c 6xe8
EndSplineSet
Fore
SplineSet
89.8 -11.6 m 2
 89.8 -11.6 89.8 501.010742188 89.8 501.010742188 c 1
 89.8 501.010742188 179.2 501.010742188 179.2 501.010742188 c 1
 179.2 -13 l 2
 179.2 -119.535545024 134.589655172 -190 27 -190 c 0
 -36.8426781631 -190 -81 -171.6 -81 -171.6 c 1
 -81 -171.6 -67.8 -98.8 -67.8 -98.8 c 1
 -67.8 -98.8 -38.7129525991 -113.6 2 -113.6 c 0
 63.8158300781 -113.6 89.8 -82.8771084336 89.8 -11.6 c 2
EndSplineSet
EndChar

StartChar: uni20B3
Encoding: 8371 8371 233
Width: 824
Flags: W
HStem: 0 21G<77.5 175.9 639.937 746.5> 147 70<44 780> 277 70<74 750> 711.008 20G<349.645 464.24>
LayerCount: 2
Fore
SplineSet
456.3 731.0078125 m 1
 746.5 0 l 1
 647.7 0 l 1
 407.693554688 618.313476562 l 1
 407.693554688 618.313476562 175.9 0 175.9 0 c 1
 175.9 0 77.5 0 77.5 0 c 1
 357.3 731.0078125 l 1
 456.3 731.0078125 l 1
750 277 m 1
 74 277 l 1
 74 347 l 1
 750 347 l 1
 750 277 l 1
780 147 m 1
 44 147 l 1
 44 217 l 1
 780 217 l 1
 780 147 l 1
EndSplineSet
EndChar

StartChar: hookabovecomb
Encoding: 777 777 234
Width: 0
Flags: W
HStem: 468 95.6488<57.315 124.286> 514 49.6488<79.6434 162.305> 676.229 62.7637<12.3661 158.228>
VStem: 55.5816 70.7561<468 514.653> 172.254 77.5744<574.498 661.234>
LayerCount: 2
Fore
SplineSet
124.845507812 514.653320312 m 1x78
 126.337695312 468 l 1
 126.337695312 468 55.581640625 468 55.581640625 468 c 1
 55.581640625 468 57.3150390625 568.06875 57.3150390625 568.06875 c 1
 57.3150390625 568.06875 77.1076077462 563.648828125 101.957226562 563.648828125 c 0xb8
 149.504090373 563.648828125 172.254492188 582.324600632 172.254492188 617.145507812 c 0
 172.254492188 658.12153154 139.748900293 676.228515625 92.0533203125 676.228515625 c 0
 47.7253811095 676.228515625 18.6826171875 656.958007812 18.6826171875 656.958007812 c 1
 0 715.311523438 l 1
 0 715.311523438 37.4070491068 738.9921875 101.653320312 738.9921875 c 0
 188.493286028 738.9921875 249.82890625 704.035336217 249.82890625 618.410742188 c 0
 249.82890625 547.910675056 199.866435359 514 144 514 c 0
 131.488235203 514 124.845507812 514.653320312 124.845507812 514.653320312 c 1x78
EndSplineSet
EndChar

StartChar: uni20B1
Encoding: 8369 8369 235
Width: 844
Flags: W
HStem: 0 21G<165 262> 234.8 85.7516<236 520.987> 346.2 72<44 218 622 800> 476.2 72<44 218 626 800> 643.649 87.3584<262 516.908>
VStem: 44 218<346.2 418.2 476.2 548.2> 165 53<346.2 418.2 476.2 548.2> 236 26<234.8 320.552> 599.929 200.071<349.054 418.2 476.2 548.2> 622 75.7773<346.2 418.2 476.2 548.2>
LayerCount: 2
Fore
SplineSet
800 346.2 m 1xf880
 622 346.2 l 1
 622 418.2 l 1xf840
 800 418.2 l 1
 800 346.2 l 1xf880
800 476.2 m 1xf880
 626 476.2 l 1
 626 548.2 l 1
 800 548.2 l 1
 800 476.2 l 1xf880
218 346.2 m 1xfa
 44 346.2 l 1
 44 418.2 l 1xfc
 218 418.2 l 1
 218 346.2 l 1xfa
218 476.2 m 1xfa
 44 476.2 l 1
 44 548.2 l 1xfc
 218 548.2 l 1
 218 476.2 l 1xfa
236 234.8 m 1xfb40
 236 320.5515625 l 1
 388.888671875 320.661914062 l 2
 509.70941501 320.743864143 599.928710938 349.054002387 599.928710938 478.561523438 c 0xf980
 599.928710938 612.699222911 509.709407805 643.452792797 388.888671875 643.545898438 c 2
 262 643.649414062 l 1
 262 0 l 1
 165 0 l 1
 165 731.0078125 l 1
 406.888671875 731.0078125 l 2
 559.93955835 731.0078125 697.77734375 662.254433238 697.77734375 478.561523438 c 0
 697.77734375 300.271452264 559.043446889 234.8 406.888671875 234.8 c 2
 236 234.8 l 1xfb40
EndSplineSet
EndChar

StartChar: uni20A9
Encoding: 8361 8361 236
Width: 1114
Flags: W
HStem: 0 21G<297.267 425.376 697.476 825.897> 266.6 72<64 254 860 1050> 396.6 72<44 254 872 1070> 711.008 20G<129 233.404 895.538 1000>
LayerCount: 2
Fore
SplineSet
1050 266.6 m 1
 860 266.6 l 1
 860 338.6 l 1
 1050 338.6 l 1
 1050 266.6 l 1
1070 396.6 m 1
 872 396.6 l 1
 872 468.6 l 1
 1070 468.6 l 1
 1070 396.6 l 1
254 266.6 m 1
 64 266.6 l 1
 64 338.6 l 1
 254 338.6 l 1
 254 266.6 l 1
254 396.6 m 1
 44 396.6 l 1
 44 468.6 l 1
 254 468.6 l 1
 254 396.6 l 1
302 0 m 1
 129 731.0078125 l 1
 229 731.0078125 l 1
 365.606445312 110.694335938 l 1
 507 671.0078125 l 1
 612 671.0078125 l 1
 761.606445312 110.694335938 l 1
 900 731.0078125 l 1
 1000 731.0078125 l 1
 821 0 l 1
 702.8 0 l 1
 559.5 538.271484375 l 1
 420.2 0 l 1
 302 0 l 1
EndSplineSet
EndChar

StartChar: franc
Encoding: 8355 8355 237
Width: 584
Flags: W
HStem: 0 21G<109 206> 129 71<34 380> 347 80<158 490> 646.008 85<206 550>
VStem: 109 97<0 347 427 646.008> 158 48<347 427>
LayerCount: 2
Fore
SplineSet
380 129 m 1xf0
 34 129 l 1
 34 200 l 1
 380 200 l 1
 380 129 l 1xf0
490 347 m 1
 158 347 l 1
 158 427 l 1xf4
 490 427 l 1
 490 347 l 1
206 646.0078125 m 1xf8
 206 0 l 1
 109 0 l 1
 109 731.0078125 l 1
 550 731.0078125 l 1
 550 646.0078125 l 1
 206 646.0078125 l 1xf8
EndSplineSet
EndChar

StartChar: peseta
Encoding: 8359 8359 238
Width: 844
Flags: W
HStem: 0 21G<165 262> 234.8 85.7516<236 520.987> 436.2 71.2<34 810> 643.649 87.3584<262 520.134>
VStem: 165 97<0 234.8 320.552 643.649> 236 26<234.8 320.552> 599.929 97.8486<390.772 571.331>
LayerCount: 2
Fore
SplineSet
810 436.2 m 1xf2
 629 436.2 l 1
 585 436.2 l 1
 265 436.2 l 1
 209 436.2 l 1
 34 436.2 l 1
 34 507.4 l 1
 211 507.4 l 1
 267 507.4 l 1
 583 507.4 l 1
 627 507.4 l 1
 810 507.4 l 1
 810 436.2 l 1xf2
236 234.8 m 1xf6
 236 320.5515625 l 1xf6
 388.888671875 320.661914062 l 2
 509.709395333 320.760452894 599.928710938 349.054002387 599.928710938 478.561523438 c 0
 599.928710938 612.699222911 513.129372765 643.428236527 396.888671875 643.545898438 c 2
 262 643.649414062 l 1
 262 0 l 1
 165 0 l 1
 165 731.0078125 l 1xfa
 414.888671875 731.0078125 l 2
 563.730363526 731.0078125 697.77734375 662.254433238 697.77734375 478.561523438 c 0
 697.77734375 300.271452264 559.043446889 234.8 406.888671875 234.8 c 2
 236 234.8 l 1xf6
EndSplineSet
EndChar

StartChar: uni20BE
Encoding: 8382 8382 239
Width: 781
Flags: W
HStem: 0 85<459 740> 27.002 57.998<197.279 395.889> 649.659 89.4619<349.031 488.677>
VStem: 69 100.849<253.485 511.445> 317 72<388 812> 447 72<388 812> 650.355 92.3262<414.892 520.407>
LayerCount: 2
Fore
SplineSet
519 812 m 1x3e
 519 388 l 1
 447 388 l 1
 447 812 l 1
 519 812 l 1x3e
389 812 m 1
 389 388 l 1
 317 388 l 1
 317 812 l 1
 389 812 l 1
740 0 m 1xbe
 40 0 l 1xbe
 40 85 l 1x7e
 740 85 l 1
 740 0 l 1xbe
395.888671875 27.001953125 m 1x7e
 197.27902554 27.001953125 69 172.152483691 69 394.561523438 c 0
 69 603.05352116 194.643963218 739.12109375 415.888671875 739.12109375 c 0
 613.047062303 739.12109375 734.53201141 618.46249822 742.681640625 414.891601562 c 1
 650.35546875 403.138671875 l 1
 641.045783401 577.109784828 570.157667037 649.659179688 422.888671875 649.659179688 c 0
 245.632763134 649.659179688 169.848632812 543.528817 169.848632812 384.561523438 c 0
 169.848632812 204.928972159 268.054290348 85 459 85 c 1xbe
 395.888671875 27.001953125 l 1x7e
EndSplineSet
EndChar

StartChar: uni030F
Encoding: 783 783 251
Width: 0
Flags: W
HStem: 524 217.008
LayerCount: 2
Fore
SplineSet
142.8 524 m 1
 22.8 715.0078125 l 1
 108.8 741.0078125 l 1
 198.8 540 l 1
 142.8 524 l 1
332.8 524 m 1
 212.8 715.0078125 l 1
 298.8 741.0078125 l 1
 388.8 540 l 1
 332.8 524 l 1
EndSplineSet
EndChar

StartChar: uni0326
Encoding: 806 806 254
Width: 0
Flags: W
HStem: -204 204.449
VStem: 20 121.227<-109.24 -14.9853>
LayerCount: 2
Fore
SplineSet
20 -61.232421875 m 0
 20 -23.8649656009 43.1483794707 0.44921875 78.7255859375 0.44921875 c 0
 116.58992844 0.44921875 141.2265625 -27.1962847762 141.2265625 -77.232421875 c 0
 141.2265625 -148.221735405 58.11328125 -204 58.11328125 -204 c 1
 21.71328125 -173.8 l 1
 21.71328125 -173.8 57.9296640625 -147.930542453 74.11328125 -122 c 1
 41.0571628937 -118.869631568 20 -95.6327762047 20 -61.232421875 c 0
EndSplineSet
EndChar

StartChar: uni031B
Encoding: 795 795 258
Width: 0
Flags: W
HStem: 506.648 224.36
VStem: 73 76.7598<581.456 718.715>
LayerCount: 2
Fore
SplineSet
42.919921875 731.0078125 m 1
 127.599609375 731.0078125 l 1
 127.599609375 731.0078125 149.759765625 700.408203124 149.759765625 644.200195312 c 0
 149.759765625 555.859643618 69.839453125 506.64765625 69.839453125 506.64765625 c 1
 24 546.568359375 l 1
 24 546.568359375 73 593.208007812 73 638.9375 c 0
 73 695.758789062 42.919921875 731.0078125 42.919921875 731.0078125 c 1
EndSplineSet
EndChar

StartChar: dcaron
Encoding: 271 271 406
Width: 763
Flags: W
HStem: -9.99805 77.0494<211.996 374.925> 0 21G<447.8 537.2> 433.072 77.8619<213.237 380.495> 731 20G<656.131 762> 731.002 20G<447.8 537.2>
VStem: 52.0713 86.8486<145.1 355.45> 447.8 38.8486<75.1885 217.374 317.374 434.496> 447.8 89.4<217.374 751.002>
LayerCount: 2
Fore
SplineSet
663 751 m 25x34
 762 751 l 25
 663 553 l 25
 595 553 l 25
 663 751 l 25x34
EndSplineSet
Refer: 44 100 N 1 0 0 1 0 0 2
EndChar

StartChar: tcaron
Encoding: 357 357 407
Width: 463
Flags: W
HStem: -10 76<243.985 364.264> 429 72.0107<28 368> 731 20G<366.131 472>
VStem: 129.8 89.4<91.368 654.611>
LayerCount: 2
Fore
SplineSet
373 751 m 1
 472 751 l 1
 373 553 l 1
 305 553 l 1
 373 751 l 1
EndSplineSet
Refer: 41 116 N 1 0 0 1 0 0 2
EndChar

StartChar: dcroat
Encoding: 273 273 409
Width: 622
Flags: W
HStem: -9.99805 77.0494<211.996 374.925> 0 21G<447.8 537.2> 433.072 77.8619<213.237 380.495> 575 71<302 608> 731.002 20G<447.8 537.2>
VStem: 52.0713 86.8486<145.1 355.45> 447.8 38.8486<75.1885 217.374 317.374 434.496> 447.8 89.4<217.374 751.002>
LayerCount: 2
Fore
SplineSet
608 575 m 1x3c
 302 575 l 1
 302 646 l 1
 608 646 l 1
 608 575 l 1x3c
EndSplineSet
Refer: 44 100 N 1 0 0 1 0 0 2
EndChar

StartChar: Tbar
Encoding: 358 358 410
Width: 614
Flags: W
HStem: 0 21G<258.5 355.5> 271.2 78.6<119 495> 646 55<258.5 355.5> 646 85<40 258.5 355.5 574>
VStem: 258.5 97<0 701>
LayerCount: 2
Fore
SplineSet
495 271.2 m 1xc8
 119 271.2 l 1
 119 349.8 l 1
 495 349.8 l 1
 495 271.2 l 1xc8
EndSplineSet
Refer: 17 84 N 1 0 0 1 0 0 2
EndChar

StartChar: tbar
Encoding: 359 359 411
Width: 412
Flags: W
HStem: -10 76<243.985 364.264> 229.4 70.6<43 339> 429 72.0107<28 368>
VStem: 129.8 89.4<91.368 654.611>
LayerCount: 2
Fore
SplineSet
339 229.4 m 1
 43 229.4 l 1
 43 300 l 1
 339 300 l 1
 339 229.4 l 1
EndSplineSet
Refer: 41 116 N 1 0 0 1 0 0 2
EndChar

StartChar: Hbar
Encoding: 294 294 412
Width: 859
Flags: W
HStem: 0 21G<139 236 623 720> 317 82<184 660> 531.811 79<44 815> 711.008 20G<139 236 623 720>
VStem: 139 97<0 317 399 731.008> 184 52<317 399> 623 37<317 399> 623 97<0 317 399 731.008>
LayerCount: 2
Fore
SplineSet
815 531.810742188 m 1xf0
 44 528.8 l 1
 44 607.8 l 1
 815 610.810742188 l 1
 815 531.810742188 l 1xf0
EndSplineSet
Refer: 2 72 N 1 0 0 1 70 0 2
EndChar

StartChar: hbar
Encoding: 295 295 413
Width: 637
Flags: W
HStem: 0 21G<111.8 201.2 482.577 571.977> 435.284 75.6494<270.809 431.143> 575 71<34 360> 731.002 20G<111.8 201.2>
VStem: 111.8 89.4<0 751.002> 482.577 89.4<0 380.899>
LayerCount: 2
Fore
SplineSet
360 575 m 1
 34 575 l 1
 34 646 l 1
 360 646 l 1
 360 575 l 1
EndSplineSet
Refer: 36 104 N 1 0 0 1 42 0 2
EndChar

StartChar: uogonek
Encoding: 371 371 423
Width: 595
Flags: W
HStem: -268 59.2<443.208 574.853> -9.92285 75.6494<210.634 370.969> 0 21G<440.577 529.977> 481.011 20G<69.8 159.2 440.577 529.977>
VStem: 69.8 89.4<120.112 501.011> 352 75<-192.143 -68.7394> 440.577 89.4<207.449 501.011>
LayerCount: 2
Fore
SplineSet
352 -149 m 0x9e
 352 -49.5224609375 452 20 452 20 c 1
 452 20 518 14.4 518 14.4 c 1
 518 14.4 427 -55.0663045004 427 -135 c 0
 427 -188.058398438 455.412695313 -208.8 505.4 -208.8 c 0
 549.537695313 -208.8 569.4 -192 569.4 -192 c 1
 585 -245 l 1
 585 -245 552.426757812 -268 487 -268 c 0
 403.871484375 -268 352 -225.663085937 352 -149 c 0x9e
EndSplineSet
Refer: 50 117 N 1 0 0 1 0 0 3
EndChar

StartChar: Lslash
Encoding: 321 321 429
Width: 612
Flags: W
HStem: 0 85<210 588> 711.008 20G<113 210>
VStem: 113 97<85 731.008>
LayerCount: 2
Fore
SplineSet
418 397 m 1
 32 308 l 1
 26 383 l 1
 412 472 l 1
 418 397 l 1
EndSplineSet
Refer: 7 76 N 1 0 0 1 44 0 2
EndChar

StartChar: lslash
Encoding: 322 322 430
Width: 425
Flags: W
HStem: -10.0088 80<236.299 361.857> 731.002 20G<119.8 209.2>
VStem: 119.8 89.4<97.3557 751.002>
LayerCount: 2
Fore
SplineSet
352 418.2 m 1
 28 329.2 l 1
 22 403.8 l 1
 346 492.8 l 1
 352 418.2 l 1
EndSplineSet
Refer: 35 108 N 1 0 0 1 44 0 2
EndChar

StartChar: guilsinglleft
Encoding: 8249 8249 530
Width: 340
Flags: W
VStem: 57 234
LayerCount: 2
Fore
SplineSet
57 277 m 1
 197 441 l 1
 291 441 l 1
 137.75 254 l 1
 291 67 l 1
 197 67 l 1
 57 231 l 1
 57 277 l 1
EndSplineSet
EndChar

StartChar: guilsinglright
Encoding: 8250 8250 531
Width: 340
Flags: W
VStem: 49 234
LayerCount: 2
Fore
SplineSet
283 231 m 1
 143 67 l 1
 49 67 l 1
 202.25 254 l 1
 49 441 l 1
 143 441 l 1
 283 277 l 1
 283 231 l 1
EndSplineSet
EndChar

StartChar: uni20AE
Encoding: 8366 8366 532
Width: 614
Flags: W
HStem: 0 21G<258.5 355.5> 646 85<40 258.5 355.5 574> 646 55<258.5 355.5>
VStem: 258.5 97<0 701>
LayerCount: 2
Fore
SplineSet
574 646 m 1xd0
 40 646 l 1
 40 731 l 1
 574 731 l 1
 574 646 l 1xd0
258.5 0 m 1
 258.5 701 l 1
 355.5 701 l 1xb0
 355.5 0 l 1
 258.5 0 l 1
494 263 m 1
 120 153 l 1
 120 223 l 1
 494 333 l 1
 494 263 l 1
494 393 m 1
 120 283 l 1
 120 353 l 1
 494 463 l 1
 494 393 l 1
EndSplineSet
EndChar

StartChar: estimated
Encoding: 8494 8494 533
Width: 765
Flags: W
HStem: -9.99805 79.4619<300.86 608.932> 306 86<122 609.8> 362 30<609.8 649> 652.259 86.8619<282.406 511.28>
VStem: 103.849 72<306 564.562> 122 18.6486<313.045 384.77> 609.8 126.308<362 587.014> 609.8 69.2<362 392 418.734 592> 649.598 29.4023<392.007 499.168>
LayerCount: 2
Fore
SplineSet
609.8 624 m 1xb1
 679 592 l 1
 679 362 l 1xb1
 609.8 362 l 1xb2
 609.8 624 l 1xb1
103.848632812 564.561523438 m 1x98
 175.848632812 592.561523438 l 1
 175.848632812 140.561523438 l 1
 103.848632812 172.561523438 l 1
 103.848632812 564.561523438 l 1x98
43 364.561523438 m 0
 43 591.206054688 168.644260108 739.12109375 389.888671875 739.12109375 c 0
 630.75911878 739.12109375 736.108398438 587.014334807 736.108398438 395.891601562 c 0
 736.108398438 326.899493668 728 306 728 306 c 1
 122 306 l 1xd6
 120 392 l 1
 649 392 l 1
 649 392 649.59765625 401.981749903 649.59765625 418.734375 c 0
 649.59765625 499.167874782 607.353511828 652.259179688 395 652.259179688 c 0
 217.506753554 652.259179688 140.648632812 535.479048824 140.648632812 360.561523438 c 0xb480
 140.648632812 186.003790157 228.711905574 69.4638671875 434.688671875 69.4638671875 c 0
 578.075225542 69.4638671875 654.018554688 106.995703125 654.018554688 106.995703125 c 1
 672.827148438 32.595703125 l 1
 672.827148438 32.595703125 597.397882812 -9.998046875 425.888671875 -9.998046875 c 0
 181.683582895 -9.998046875 43 137.916992188 43 364.561523438 c 0
EndSplineSet
EndChar

StartChar: Omega
Encoding: 8486 8486 534
Width: 837
Flags: W
HStem: 0 82<44 214.328 310.767 384 453 526.563 623.166 793> 649.259 89.8619<304.751 533.026>
VStem: 69 94.8486<246.29 498.529> 673.929 94.8486<246.29 498.529>
LayerCount: 2
Fore
SplineSet
384 0 m 1
 44 0 l 1
 44 82 l 1
 214.328125 82 l 1
 214.328125 82 69 154.873087178 69 384.561523438 c 0
 69 599.104132899 201.391145755 739.12109375 418.888671875 739.12109375 c 0
 636.386197995 739.12109375 768.77734375 599.104132899 768.77734375 384.561523438 c 0
 768.77734375 154.873087178 623.166015625 82 623.166015625 82 c 1
 793 82 l 1
 793 0 l 1
 453 0 l 1
 453 82 l 1
 569.024344654 96.349976764 673.928710938 195.122512219 673.928710938 364.561523438 c 0
 673.928710938 535.281474207 597.545710183 649.259179688 418.888671875 649.259179688 c 0
 240.231633567 649.259179688 163.848632812 535.281474207 163.848632812 364.561523438 c 0
 163.848632812 195.122512219 268.560564721 96.349976764 384 82 c 1
 384 0 l 1
EndSplineSet
EndChar

StartChar: uni2E3A
Encoding: 11834 11834 536
Width: 1080
Flags: W
HStem: 240 79<44 1036>
LayerCount: 2
Fore
SplineSet
44 240 m 1
 44 319 l 1
 1036 319 l 1
 1036 240 l 1
 44 240 l 1
EndSplineSet
EndChar

StartChar: uni2E3B
Encoding: 11835 11835 537
Width: 1380
Flags: W
HStem: 240 79<44 1336>
LayerCount: 2
Fore
SplineSet
44 240 m 1
 44 319 l 1
 1336 319 l 1
 1336 240 l 1
 44 240 l 1
EndSplineSet
EndChar

